<ttFont>
    <TTGlyph name=".notdef" xMin="102" yMin="-468" xMax="922" yMax="1580">
      <contour>
        <pt x="102" y="-468" on="1"/>
        <pt x="102" y="1580" on="1"/>
        <pt x="922" y="1580" on="1"/>
        <pt x="922" y="-468" on="1"/>
      </contour>
      <contour>
        <pt x="204" y="-366" on="1"/>
        <pt x="820" y="-366" on="1"/>
        <pt x="820" y="1478" on="1"/>
        <pt x="204" y="1478" on="1"/>
      </contour>
    </TTGlyph>
    <TTGlyph name="A" xMin="-39" yMin="0" xMax="1435" yMax="1536">
      <contour>
        <pt x="1057" y="1536" on="1"/>
        <pt x="1285" y="150" on="1"/>
        <pt x="1435" y="98" on="1"/>
        <pt x="1413" y="0" on="1"/>
        <pt x="827" y="0" on="1"/>
        <pt x="851" y="90" on="1"/>
        <pt x="1059" y="156" on="1"/>
        <pt x="991" y="524" on="1"/>
        <pt x="507" y="524" on="1"/>
        <pt x="321" y="150" on="1"/>
        <pt x="527" y="98" on="1"/>
        <pt x="501" y="0" on="1"/>
        <pt x="-39" y="0" on="1"/>
        <pt x="-17" y="90" on="1"/>
        <pt x="163" y="156" on="1"/>
        <pt x="879" y="1498" on="1"/>
      </contour>
      <contour>
        <pt x="569" y="646" on="1"/>
        <pt x="975" y="646" on="1"/>
        <pt x="879" y="1252" on="1"/>
      </contour>
    </TTGlyph>
    <TTGlyph name="AE" xMin="-54" yMin="0" xMax="2064" yMax="1506">
      <contour>
        <pt x="1132" y="1281" on="1"/>
        <pt x="684" y="686" on="1"/>
        <pt x="1036" y="686" on="1"/>
      </contour>
      <contour>
        <pt x="1020" y="572" on="1"/>
        <pt x="606" y="572" on="1"/>
        <pt x="291" y="152" on="1"/>
        <pt x="498" y="100" on="1"/>
        <pt x="472" y="0" on="1"/>
        <pt x="-54" y="0" on="1"/>
        <pt x="-32" y="92" on="1"/>
        <pt x="134" y="158" on="1"/>
        <pt x="1170" y="1506" on="1"/>
        <pt x="2064" y="1506" on="1"/>
        <pt x="1968" y="1124" on="1"/>
        <pt x="1872" y="1140" on="1"/>
        <pt x="1866" y="1396" on="1"/>
        <pt x="1362" y="1396" on="1"/>
        <pt x="1270" y="824" on="1"/>
        <pt x="1568" y="824" on="1"/>
        <pt x="1640" y="972" on="1"/>
        <pt x="1752" y="980" on="1"/>
        <pt x="1640" y="514" on="1"/>
        <pt x="1536" y="496" on="1"/>
        <pt x="1532" y="710" on="1"/>
        <pt x="1252" y="710" on="1"/>
        <pt x="1158" y="116" on="1"/>
        <pt x="1694" y="116" on="1"/>
        <pt x="1852" y="398" on="1"/>
        <pt x="1942" y="380" on="1"/>
        <pt x="1848" y="0" on="1"/>
        <pt x="1298" y="0" on="1"/>
        <pt x="788" y="0" on="1"/>
        <pt x="728" y="0" on="1"/>
        <pt x="752" y="90" on="1"/>
        <pt x="948" y="144" on="1"/>
        <pt x="954" y="146" on="1"/>
      </contour>
    </TTGlyph>
    <TTGlyph name="Aacute" xMin="-39" yMin="0" xMax="1435" yMax="2066">
      <contour>
        <pt x="1057" y="1536" on="1"/>
        <pt x="1285" y="150" on="1"/>
        <pt x="1435" y="98" on="1"/>
        <pt x="1413" y="0" on="1"/>
        <pt x="827" y="0" on="1"/>
        <pt x="851" y="90" on="1"/>
        <pt x="1059" y="156" on="1"/>
        <pt x="991" y="524" on="1"/>
        <pt x="507" y="524" on="1"/>
        <pt x="321" y="150" on="1"/>
        <pt x="527" y="98" on="1"/>
        <pt x="501" y="0" on="1"/>
        <pt x="-39" y="0" on="1"/>
        <pt x="-17" y="90" on="1"/>
        <pt x="163" y="156" on="1"/>
        <pt x="879" y="1498" on="1"/>
      </contour>
      <contour>
        <pt x="569" y="646" on="1"/>
        <pt x="975" y="646" on="1"/>
        <pt x="879" y="1252" on="1"/>
      </contour>
      <contour>
        <pt x="1251" y="2018" on="1"/>
        <pt x="1029" y="1634" on="1"/>
        <pt x="967" y="1672" on="1"/>
        <pt x="1115" y="2066" on="1"/>
      </contour>
    </TTGlyph>
    <TTGlyph name="Abreve" xMin="-39" yMin="0" xMax="1435" yMax="1920">
      <contour>
        <pt x="1057" y="1536" on="1"/>
        <pt x="1285" y="150" on="1"/>
        <pt x="1435" y="98" on="1"/>
        <pt x="1413" y="0" on="1"/>
        <pt x="827" y="0" on="1"/>
        <pt x="851" y="90" on="1"/>
        <pt x="1059" y="156" on="1"/>
        <pt x="991" y="524" on="1"/>
        <pt x="507" y="524" on="1"/>
        <pt x="321" y="150" on="1"/>
        <pt x="527" y="98" on="1"/>
        <pt x="501" y="0" on="1"/>
        <pt x="-39" y="0" on="1"/>
        <pt x="-17" y="90" on="1"/>
        <pt x="163" y="156" on="1"/>
        <pt x="879" y="1498" on="1"/>
      </contour>
      <contour>
        <pt x="569" y="646" on="1"/>
        <pt x="975" y="646" on="1"/>
        <pt x="879" y="1252" on="1"/>
      </contour>
      <contour>
        <pt x="747" y="1880" on="1"/>
        <pt x="803" y="1918" on="1"/>
        <pt x="813" y="1898" on="1"/>
        <pt x="835" y="1854" on="0"/>
        <pt x="923" y="1796" on="0"/>
        <pt x="977" y="1796" on="1"/>
        <pt x="1084" y="1796" on="0"/>
        <pt x="1149" y="1900" on="1"/>
        <pt x="1161" y="1920" on="1"/>
        <pt x="1211" y="1886" on="1"/>
        <pt x="1203" y="1862" on="1"/>
        <pt x="1174" y="1773" on="0"/>
        <pt x="1057" y="1664" on="0"/>
        <pt x="977" y="1664" on="1"/>
        <pt x="891" y="1664" on="0"/>
        <pt x="774" y="1771" on="0"/>
        <pt x="753" y="1856" on="1"/>
      </contour>
    </TTGlyph>
    <TTGlyph name="Acaron" xMin="-39" yMin="0" xMax="1435" yMax="1918">
      <contour>
        <pt x="1057" y="1536" on="1"/>
        <pt x="1285" y="150" on="1"/>
        <pt x="1435" y="98" on="1"/>
        <pt x="1413" y="0" on="1"/>
        <pt x="827" y="0" on="1"/>
        <pt x="851" y="90" on="1"/>
        <pt x="1059" y="156" on="1"/>
        <pt x="991" y="524" on="1"/>
        <pt x="507" y="524" on="1"/>
        <pt x="321" y="150" on="1"/>
        <pt x="527" y="98" on="1"/>
        <pt x="501" y="0" on="1"/>
        <pt x="-39" y="0" on="1"/>
        <pt x="-17" y="90" on="1"/>
        <pt x="163" y="156" on="1"/>
        <pt x="879" y="1498" on="1"/>
      </contour>
      <contour>
        <pt x="569" y="646" on="1"/>
        <pt x="975" y="646" on="1"/>
        <pt x="879" y="1252" on="1"/>
      </contour>
      <contour>
        <pt x="966" y="1644" on="1"/>
        <pt x="748" y="1844" on="1"/>
        <pt x="846" y="1918" on="1"/>
        <pt x="1026" y="1744" on="1"/>
        <pt x="1038" y="1744" on="1"/>
        <pt x="1188" y="1914" on="1"/>
        <pt x="1240" y="1878" on="1"/>
        <pt x="1032" y="1660" on="1"/>
      </contour>
    </TTGlyph>
    <TTGlyph name="Acircumflex" xMin="-39" yMin="0" xMax="1435" yMax="1914">
      <contour>
        <pt x="1057" y="1536" on="1"/>
        <pt x="1285" y="150" on="1"/>
        <pt x="1435" y="98" on="1"/>
        <pt x="1413" y="0" on="1"/>
        <pt x="827" y="0" on="1"/>
        <pt x="851" y="90" on="1"/>
        <pt x="1059" y="156" on="1"/>
        <pt x="991" y="524" on="1"/>
        <pt x="507" y="524" on="1"/>
        <pt x="321" y="150" on="1"/>
        <pt x="527" y="98" on="1"/>
        <pt x="501" y="0" on="1"/>
        <pt x="-39" y="0" on="1"/>
        <pt x="-17" y="90" on="1"/>
        <pt x="163" y="156" on="1"/>
        <pt x="879" y="1498" on="1"/>
      </contour>
      <contour>
        <pt x="569" y="646" on="1"/>
        <pt x="975" y="646" on="1"/>
        <pt x="879" y="1252" on="1"/>
      </contour>
      <contour>
        <pt x="1005" y="1914" on="1"/>
        <pt x="1221" y="1689" on="1"/>
        <pt x="1161" y="1646" on="1"/>
        <pt x="963" y="1778" on="1"/>
        <pt x="951" y="1778" on="1"/>
        <pt x="781" y="1644" on="1"/>
        <pt x="735" y="1680" on="1"/>
        <pt x="939" y="1898" on="1"/>
      </contour>
    </TTGlyph>
    <TTGlyph name="Adieresis" xMin="-39" yMin="0" xMax="1435" yMax="1868">
      <contour>
        <pt x="1057" y="1536" on="1"/>
        <pt x="1285" y="150" on="1"/>
        <pt x="1435" y="98" on="1"/>
        <pt x="1413" y="0" on="1"/>
        <pt x="827" y="0" on="1"/>
        <pt x="851" y="90" on="1"/>
        <pt x="1059" y="156" on="1"/>
        <pt x="991" y="524" on="1"/>
        <pt x="507" y="524" on="1"/>
        <pt x="321" y="150" on="1"/>
        <pt x="527" y="98" on="1"/>
        <pt x="501" y="0" on="1"/>
        <pt x="-39" y="0" on="1"/>
        <pt x="-17" y="90" on="1"/>
        <pt x="163" y="156" on="1"/>
        <pt x="879" y="1498" on="1"/>
      </contour>
      <contour>
        <pt x="569" y="646" on="1"/>
        <pt x="975" y="646" on="1"/>
        <pt x="879" y="1252" on="1"/>
      </contour>
      <contour>
        <pt x="1245" y="1774" on="1"/>
        <pt x="1245" y="1732" on="0"/>
        <pt x="1182" y="1676" on="0"/>
        <pt x="1139" y="1676" on="1"/>
        <pt x="1097" y="1676" on="0"/>
        <pt x="1037" y="1732" on="0"/>
        <pt x="1037" y="1774" on="1"/>
        <pt x="1037" y="1815" on="0"/>
        <pt x="1098" y="1868" on="0"/>
        <pt x="1139" y="1868" on="1"/>
        <pt x="1182" y="1868" on="0"/>
        <pt x="1245" y="1814" on="0"/>
      </contour>
      <contour>
        <pt x="919" y="1774" on="1"/>
        <pt x="919" y="1732" on="0"/>
        <pt x="858" y="1676" on="0"/>
        <pt x="815" y="1676" on="1"/>
        <pt x="773" y="1676" on="0"/>
        <pt x="713" y="1732" on="0"/>
        <pt x="713" y="1774" on="1"/>
        <pt x="713" y="1815" on="0"/>
        <pt x="774" y="1868" on="0"/>
        <pt x="815" y="1868" on="1"/>
        <pt x="858" y="1868" on="0"/>
        <pt x="919" y="1815" on="0"/>
      </contour>
    </TTGlyph>
    <TTGlyph name="Agrave" xMin="-39" yMin="0" xMax="1435" yMax="2056">
      <contour>
        <pt x="1057" y="1536" on="1"/>
        <pt x="1285" y="150" on="1"/>
        <pt x="1435" y="98" on="1"/>
        <pt x="1413" y="0" on="1"/>
        <pt x="827" y="0" on="1"/>
        <pt x="851" y="90" on="1"/>
        <pt x="1059" y="156" on="1"/>
        <pt x="991" y="524" on="1"/>
        <pt x="507" y="524" on="1"/>
        <pt x="321" y="150" on="1"/>
        <pt x="527" y="98" on="1"/>
        <pt x="501" y="0" on="1"/>
        <pt x="-39" y="0" on="1"/>
        <pt x="-17" y="90" on="1"/>
        <pt x="163" y="156" on="1"/>
        <pt x="879" y="1498" on="1"/>
      </contour>
      <contour>
        <pt x="569" y="646" on="1"/>
        <pt x="975" y="646" on="1"/>
        <pt x="879" y="1252" on="1"/>
      </contour>
      <contour>
        <pt x="739" y="2010" on="1"/>
        <pt x="879" y="2056" on="1"/>
        <pt x="1039" y="1652" on="1"/>
        <pt x="969" y="1610" on="1"/>
      </contour>
    </TTGlyph>
    <TTGlyph name="Amacron" xMin="-39" yMin="0" xMax="1435" yMax="1791">
      <contour>
        <pt x="1057" y="1536" on="1"/>
        <pt x="1285" y="150" on="1"/>
        <pt x="1435" y="98" on="1"/>
        <pt x="1413" y="0" on="1"/>
        <pt x="827" y="0" on="1"/>
        <pt x="851" y="90" on="1"/>
        <pt x="1059" y="156" on="1"/>
        <pt x="991" y="524" on="1"/>
        <pt x="507" y="524" on="1"/>
        <pt x="321" y="150" on="1"/>
        <pt x="527" y="98" on="1"/>
        <pt x="501" y="0" on="1"/>
        <pt x="-39" y="0" on="1"/>
        <pt x="-17" y="90" on="1"/>
        <pt x="163" y="156" on="1"/>
        <pt x="879" y="1498" on="1"/>
      </contour>
      <contour>
        <pt x="569" y="646" on="1"/>
        <pt x="975" y="646" on="1"/>
        <pt x="879" y="1252" on="1"/>
      </contour>
      <contour>
        <pt x="719" y="1791" on="1"/>
        <pt x="1253" y="1791" on="1"/>
        <pt x="1237" y="1670" on="1"/>
        <pt x="703" y="1670" on="1"/>
      </contour>
    </TTGlyph>
    <TTGlyph name="Aogonek" xMin="-39" yMin="-452" xMax="1481" yMax="1536">
      <contour>
        <pt x="1393" y="0" on="1"/>
        <pt x="1345" y="-53" on="0"/>
        <pt x="1331" y="-164" on="1"/>
        <pt x="1330" y="-168" on="0"/>
        <pt x="1330" y="-177" on="1"/>
        <pt x="1330" y="-229" on="0"/>
        <pt x="1408" y="-349" on="0"/>
        <pt x="1481" y="-390" on="1"/>
        <pt x="1439" y="-452" on="1"/>
        <pt x="1312" y="-439" on="0"/>
        <pt x="1151" y="-317" on="0"/>
        <pt x="1151" y="-236" on="1"/>
        <pt x="1151" y="-181" on="0"/>
        <pt x="1214" y="-76" on="0"/>
        <pt x="1297" y="0" on="1"/>
        <pt x="827" y="0" on="1"/>
        <pt x="851" y="90" on="1"/>
        <pt x="1059" y="156" on="1"/>
        <pt x="991" y="524" on="1"/>
        <pt x="507" y="524" on="1"/>
        <pt x="321" y="150" on="1"/>
        <pt x="527" y="98" on="1"/>
        <pt x="501" y="0" on="1"/>
        <pt x="-39" y="0" on="1"/>
        <pt x="-17" y="90" on="1"/>
        <pt x="163" y="156" on="1"/>
        <pt x="879" y="1498" on="1"/>
        <pt x="1057" y="1536" on="1"/>
        <pt x="1285" y="150" on="1"/>
        <pt x="1435" y="98" on="1"/>
        <pt x="1413" y="0" on="1"/>
      </contour>
      <contour>
        <pt x="569" y="646" on="1"/>
        <pt x="975" y="646" on="1"/>
        <pt x="879" y="1252" on="1"/>
      </contour>
    </TTGlyph>
    <TTGlyph name="Aring" xMin="-39" yMin="0" xMax="1435" yMax="2058">
      <contour>
        <pt x="1057" y="1536" on="1"/>
        <pt x="1285" y="150" on="1"/>
        <pt x="1435" y="98" on="1"/>
        <pt x="1413" y="0" on="1"/>
        <pt x="827" y="0" on="1"/>
        <pt x="851" y="90" on="1"/>
        <pt x="1059" y="156" on="1"/>
        <pt x="991" y="524" on="1"/>
        <pt x="507" y="524" on="1"/>
        <pt x="321" y="150" on="1"/>
        <pt x="527" y="98" on="1"/>
        <pt x="501" y="0" on="1"/>
        <pt x="-39" y="0" on="1"/>
        <pt x="-17" y="90" on="1"/>
        <pt x="163" y="156" on="1"/>
        <pt x="879" y="1498" on="1"/>
      </contour>
      <contour>
        <pt x="569" y="646" on="1"/>
        <pt x="975" y="646" on="1"/>
        <pt x="879" y="1252" on="1"/>
      </contour>
      <contour>
        <pt x="869" y="1864" on="1"/>
        <pt x="869" y="1800" on="0"/>
        <pt x="932" y="1708" on="0"/>
        <pt x="985" y="1708" on="1"/>
        <pt x="1035" y="1708" on="0"/>
        <pt x="1089" y="1780" on="0"/>
        <pt x="1089" y="1846" on="1"/>
        <pt x="1089" y="1911" on="0"/>
        <pt x="1025" y="2000" on="0"/>
        <pt x="973" y="2000" on="1"/>
        <pt x="924" y="2000" on="0"/>
        <pt x="869" y="1923" on="0"/>
      </contour>
      <contour>
        <pt x="1175" y="1950" on="0"/>
        <pt x="1175" y="1774" on="0"/>
        <pt x="1059" y="1650" on="0"/>
        <pt x="971" y="1650" on="1"/>
        <pt x="886" y="1650" on="0"/>
        <pt x="783" y="1758" on="0"/>
        <pt x="783" y="1850" on="1"/>
        <pt x="783" y="1935" on="0"/>
        <pt x="903" y="2058" on="0"/>
        <pt x="987" y="2058" on="1"/>
        <pt x="1073" y="2058" on="0"/>
      </contour>
    </TTGlyph>
    <TTGlyph name="Atilde" xMin="-39" yMin="0" xMax="1435" yMax="1856">
      <contour>
        <pt x="1057" y="1536" on="1"/>
        <pt x="1285" y="150" on="1"/>
        <pt x="1435" y="98" on="1"/>
        <pt x="1413" y="0" on="1"/>
        <pt x="827" y="0" on="1"/>
        <pt x="851" y="90" on="1"/>
        <pt x="1059" y="156" on="1"/>
        <pt x="991" y="524" on="1"/>
        <pt x="507" y="524" on="1"/>
        <pt x="321" y="150" on="1"/>
        <pt x="527" y="98" on="1"/>
        <pt x="501" y="0" on="1"/>
        <pt x="-39" y="0" on="1"/>
        <pt x="-17" y="90" on="1"/>
        <pt x="163" y="156" on="1"/>
        <pt x="879" y="1498" on="1"/>
      </contour>
      <contour>
        <pt x="569" y="646" on="1"/>
        <pt x="975" y="646" on="1"/>
        <pt x="879" y="1252" on="1"/>
      </contour>
      <contour>
        <pt x="697" y="1670" on="1"/>
        <pt x="699" y="1676" on="0"/>
        <pt x="700" y="1680" on="1"/>
        <pt x="706" y="1704" on="0"/>
        <pt x="722" y="1739" on="1"/>
        <pt x="742" y="1783" on="0"/>
        <pt x="769" y="1810" on="1"/>
        <pt x="803" y="1844" on="0"/>
        <pt x="845" y="1844" on="1"/>
        <pt x="850" y="1844" on="0"/>
        <pt x="856" y="1842" on="0"/>
        <pt x="861" y="1842" on="1"/>
        <pt x="1131" y="1806" on="1"/>
        <pt x="1135" y="1806" on="1"/>
        <pt x="1148" y="1806" on="0"/>
        <pt x="1182" y="1830" on="0"/>
        <pt x="1193" y="1844" on="1"/>
        <pt x="1203" y="1856" on="1"/>
        <pt x="1261" y="1854" on="1"/>
        <pt x="1260" y="1851" on="0"/>
        <pt x="1257" y="1838" on="0"/>
        <pt x="1256" y="1835" on="1"/>
        <pt x="1240" y="1785" on="0"/>
        <pt x="1208" y="1741" on="1"/>
        <pt x="1163" y="1680" on="0"/>
        <pt x="1103" y="1680" on="1"/>
        <pt x="1089" y="1680" on="1"/>
        <pt x="819" y="1718" on="1"/>
        <pt x="815" y="1718" on="1"/>
        <pt x="800" y="1718" on="0"/>
        <pt x="764" y="1690" on="0"/>
        <pt x="753" y="1674" on="1"/>
        <pt x="743" y="1660" on="1"/>
      </contour>
    </TTGlyph>
    <TTGlyph name="B" xMin="78" yMin="0" xMax="1374" yMax="1522">
      <contour>
        <pt x="626" y="732" on="1"/>
        <pt x="518" y="116" on="1"/>
        <pt x="752" y="116" on="1"/>
        <pt x="846" y="116" on="0"/>
        <pt x="1000" y="178" on="0"/>
        <pt x="1048" y="231" on="1"/>
        <pt x="1142" y="334" on="0"/>
        <pt x="1142" y="472" on="1"/>
        <pt x="1142" y="584" on="0"/>
        <pt x="1004" y="732" on="0"/>
        <pt x="884" y="732" on="1"/>
      </contour>
      <contour>
        <pt x="1066" y="814" on="1"/>
        <pt x="1211" y="805" on="0"/>
        <pt x="1374" y="635" on="0"/>
        <pt x="1374" y="510" on="1"/>
        <pt x="1374" y="359" on="0"/>
        <pt x="1258" y="231" on="1"/>
        <pt x="1129" y="88" on="0"/>
        <pt x="903" y="31" on="1"/>
        <pt x="780" y="0" on="0"/>
        <pt x="630" y="0" on="1"/>
        <pt x="78" y="0" on="1"/>
        <pt x="100" y="90" on="1"/>
        <pt x="304" y="146" on="1"/>
        <pt x="510" y="1338" on="1"/>
        <pt x="318" y="1374" on="1"/>
        <pt x="342" y="1466" on="1"/>
        <pt x="716" y="1522" on="0"/>
        <pt x="926" y="1522" on="1"/>
        <pt x="1158" y="1522" on="0"/>
        <pt x="1271" y="1425" on="1"/>
        <pt x="1372" y="1336" on="0"/>
        <pt x="1372" y="1214" on="1"/>
        <pt x="1372" y="1110" on="0"/>
        <pt x="1307" y="1004" on="1"/>
        <pt x="1234" y="884" on="0"/>
        <pt x="1068" y="824" on="1"/>
      </contour>
      <contour>
        <pt x="646" y="834" on="1"/>
        <pt x="886" y="834" on="1"/>
        <pt x="1002" y="834" on="0"/>
        <pt x="1142" y="1010" on="0"/>
        <pt x="1144" y="1156" on="1"/>
        <pt x="1144" y="1262" on="0"/>
        <pt x="1081" y="1336" on="1"/>
        <pt x="1010" y="1418" on="0"/>
        <pt x="838" y="1418" on="1"/>
        <pt x="792" y="1418" on="0"/>
        <pt x="746" y="1410" on="1"/>
      </contour>
    </TTGlyph>
    <TTGlyph name="C" xMin="203" yMin="-30" xMax="1485" yMax="1538">
      <contour>
        <pt x="591" y="255" on="1"/>
        <pt x="715" y="128" on="0"/>
        <pt x="899" y="128" on="1"/>
        <pt x="1120" y="128" on="0"/>
        <pt x="1319" y="312" on="1"/>
        <pt x="1365" y="246" on="1"/>
        <pt x="1246" y="106" on="0"/>
        <pt x="945" y="-30" on="0"/>
        <pt x="783" y="-30" on="1"/>
        <pt x="542" y="-30" on="0"/>
        <pt x="376" y="127" on="1"/>
        <pt x="294" y="203" on="0"/>
        <pt x="203" y="440" on="0"/>
        <pt x="203" y="584" on="1"/>
        <pt x="203" y="761" on="0"/>
        <pt x="275" y="943" on="1"/>
        <pt x="354" y="1146" on="0"/>
        <pt x="491" y="1285" on="1"/>
        <pt x="651" y="1447" on="0"/>
        <pt x="853" y="1506" on="1"/>
        <pt x="967" y="1538" on="0"/>
        <pt x="1089" y="1538" on="1"/>
        <pt x="1351" y="1538" on="0"/>
        <pt x="1485" y="1416" on="1"/>
        <pt x="1385" y="1014" on="1"/>
        <pt x="1287" y="1030" on="1"/>
        <pt x="1283" y="1296" on="1"/>
        <pt x="1249" y="1355" on="0"/>
        <pt x="1104" y="1422" on="0"/>
        <pt x="1001" y="1422" on="1"/>
        <pt x="896" y="1422" on="0"/>
        <pt x="700" y="1311" on="0"/>
        <pt x="624" y="1212" on="1"/>
        <pt x="547" y="1111" on="0"/>
        <pt x="459" y="818" on="0"/>
        <pt x="459" y="652" on="1"/>
        <pt x="459" y="523" on="0"/>
        <pt x="528" y="318" on="0"/>
      </contour>
    </TTGlyph>
    <TTGlyph name="Cacute" xMin="203" yMin="-30" xMax="1485" yMax="2066">
      <contour>
        <pt x="591" y="255" on="1"/>
        <pt x="715" y="128" on="0"/>
        <pt x="899" y="128" on="1"/>
        <pt x="1120" y="128" on="0"/>
        <pt x="1319" y="312" on="1"/>
        <pt x="1365" y="246" on="1"/>
        <pt x="1246" y="106" on="0"/>
        <pt x="945" y="-30" on="0"/>
        <pt x="783" y="-30" on="1"/>
        <pt x="542" y="-30" on="0"/>
        <pt x="376" y="127" on="1"/>
        <pt x="294" y="203" on="0"/>
        <pt x="203" y="440" on="0"/>
        <pt x="203" y="584" on="1"/>
        <pt x="203" y="761" on="0"/>
        <pt x="275" y="943" on="1"/>
        <pt x="354" y="1146" on="0"/>
        <pt x="491" y="1285" on="1"/>
        <pt x="651" y="1447" on="0"/>
        <pt x="853" y="1506" on="1"/>
        <pt x="967" y="1538" on="0"/>
        <pt x="1089" y="1538" on="1"/>
        <pt x="1351" y="1538" on="0"/>
        <pt x="1485" y="1416" on="1"/>
        <pt x="1385" y="1014" on="1"/>
        <pt x="1287" y="1030" on="1"/>
        <pt x="1283" y="1296" on="1"/>
        <pt x="1249" y="1355" on="0"/>
        <pt x="1104" y="1422" on="0"/>
        <pt x="1001" y="1422" on="1"/>
        <pt x="896" y="1422" on="0"/>
        <pt x="700" y="1311" on="0"/>
        <pt x="624" y="1212" on="1"/>
        <pt x="547" y="1111" on="0"/>
        <pt x="459" y="818" on="0"/>
        <pt x="459" y="652" on="1"/>
        <pt x="459" y="523" on="0"/>
        <pt x="528" y="318" on="0"/>
      </contour>
      <contour>
        <pt x="1411" y="2018" on="1"/>
        <pt x="1189" y="1634" on="1"/>
        <pt x="1127" y="1672" on="1"/>
        <pt x="1275" y="2066" on="1"/>
      </contour>
    </TTGlyph>
    <TTGlyph name="Ccaron" xMin="203" yMin="-30" xMax="1485" yMax="1918">
      <contour>
        <pt x="591" y="255" on="1"/>
        <pt x="715" y="128" on="0"/>
        <pt x="899" y="128" on="1"/>
        <pt x="1120" y="128" on="0"/>
        <pt x="1319" y="312" on="1"/>
        <pt x="1365" y="246" on="1"/>
        <pt x="1246" y="106" on="0"/>
        <pt x="945" y="-30" on="0"/>
        <pt x="783" y="-30" on="1"/>
        <pt x="542" y="-30" on="0"/>
        <pt x="376" y="127" on="1"/>
        <pt x="294" y="203" on="0"/>
        <pt x="203" y="440" on="0"/>
        <pt x="203" y="584" on="1"/>
        <pt x="203" y="761" on="0"/>
        <pt x="275" y="943" on="1"/>
        <pt x="354" y="1146" on="0"/>
        <pt x="491" y="1285" on="1"/>
        <pt x="651" y="1447" on="0"/>
        <pt x="853" y="1506" on="1"/>
        <pt x="967" y="1538" on="0"/>
        <pt x="1089" y="1538" on="1"/>
        <pt x="1351" y="1538" on="0"/>
        <pt x="1485" y="1416" on="1"/>
        <pt x="1385" y="1014" on="1"/>
        <pt x="1287" y="1030" on="1"/>
        <pt x="1283" y="1296" on="1"/>
        <pt x="1249" y="1355" on="0"/>
        <pt x="1104" y="1422" on="0"/>
        <pt x="1001" y="1422" on="1"/>
        <pt x="896" y="1422" on="0"/>
        <pt x="700" y="1311" on="0"/>
        <pt x="624" y="1212" on="1"/>
        <pt x="547" y="1111" on="0"/>
        <pt x="459" y="818" on="0"/>
        <pt x="459" y="652" on="1"/>
        <pt x="459" y="523" on="0"/>
        <pt x="528" y="318" on="0"/>
      </contour>
      <contour>
        <pt x="1071" y="1644" on="1"/>
        <pt x="853" y="1844" on="1"/>
        <pt x="951" y="1918" on="1"/>
        <pt x="1131" y="1744" on="1"/>
        <pt x="1143" y="1744" on="1"/>
        <pt x="1293" y="1914" on="1"/>
        <pt x="1345" y="1878" on="1"/>
        <pt x="1137" y="1660" on="1"/>
      </contour>
    </TTGlyph>
    <TTGlyph name="Ccedilla" xMin="204" yMin="-472" xMax="1486" yMax="1538">
      <contour>
        <pt x="824" y="-92" on="1"/>
        <pt x="932" y="-186" on="0"/>
        <pt x="932" y="-274" on="1"/>
        <pt x="932" y="-398" on="0"/>
        <pt x="690" y="-472" on="1"/>
        <pt x="666" y="-400" on="1"/>
        <pt x="715" y="-383" on="0"/>
        <pt x="770" y="-329" on="0"/>
        <pt x="770" y="-300" on="1"/>
        <pt x="770" y="-250" on="0"/>
        <pt x="682" y="-166" on="1"/>
        <pt x="776" y="-30" on="1"/>
        <pt x="537" y="-25" on="0"/>
        <pt x="375" y="130" on="1"/>
        <pt x="295" y="206" on="0"/>
        <pt x="204" y="442" on="0"/>
        <pt x="204" y="584" on="1"/>
        <pt x="204" y="761" on="0"/>
        <pt x="276" y="943" on="1"/>
        <pt x="355" y="1146" on="0"/>
        <pt x="492" y="1285" on="1"/>
        <pt x="652" y="1447" on="0"/>
        <pt x="854" y="1506" on="1"/>
        <pt x="968" y="1538" on="0"/>
        <pt x="1090" y="1538" on="1"/>
        <pt x="1352" y="1538" on="0"/>
        <pt x="1486" y="1416" on="1"/>
        <pt x="1386" y="1014" on="1"/>
        <pt x="1288" y="1030" on="1"/>
        <pt x="1284" y="1296" on="1"/>
        <pt x="1250" y="1355" on="0"/>
        <pt x="1105" y="1422" on="0"/>
        <pt x="1002" y="1422" on="1"/>
        <pt x="897" y="1422" on="0"/>
        <pt x="701" y="1311" on="0"/>
        <pt x="625" y="1212" on="1"/>
        <pt x="548" y="1111" on="0"/>
        <pt x="460" y="818" on="0"/>
        <pt x="460" y="652" on="1"/>
        <pt x="460" y="523" on="0"/>
        <pt x="529" y="318" on="0"/>
        <pt x="592" y="255" on="1"/>
        <pt x="716" y="128" on="0"/>
        <pt x="900" y="128" on="1"/>
        <pt x="1121" y="128" on="0"/>
        <pt x="1320" y="312" on="1"/>
        <pt x="1366" y="246" on="1"/>
        <pt x="1163" y="8" on="0"/>
        <pt x="870" y="-26" on="1"/>
      </contour>
    </TTGlyph>
    <TTGlyph name="Cdotaccent" xMin="203" yMin="-30" xMax="1485" yMax="1928">
      <contour>
        <pt x="591" y="255" on="1"/>
        <pt x="715" y="128" on="0"/>
        <pt x="899" y="128" on="1"/>
        <pt x="1120" y="128" on="0"/>
        <pt x="1319" y="312" on="1"/>
        <pt x="1365" y="246" on="1"/>
        <pt x="1246" y="106" on="0"/>
        <pt x="945" y="-30" on="0"/>
        <pt x="783" y="-30" on="1"/>
        <pt x="542" y="-30" on="0"/>
        <pt x="376" y="127" on="1"/>
        <pt x="294" y="203" on="0"/>
        <pt x="203" y="440" on="0"/>
        <pt x="203" y="584" on="1"/>
        <pt x="203" y="761" on="0"/>
        <pt x="275" y="943" on="1"/>
        <pt x="354" y="1146" on="0"/>
        <pt x="491" y="1285" on="1"/>
        <pt x="651" y="1447" on="0"/>
        <pt x="853" y="1506" on="1"/>
        <pt x="967" y="1538" on="0"/>
        <pt x="1089" y="1538" on="1"/>
        <pt x="1351" y="1538" on="0"/>
        <pt x="1485" y="1416" on="1"/>
        <pt x="1385" y="1014" on="1"/>
        <pt x="1287" y="1030" on="1"/>
        <pt x="1283" y="1296" on="1"/>
        <pt x="1249" y="1355" on="0"/>
        <pt x="1104" y="1422" on="0"/>
        <pt x="1001" y="1422" on="1"/>
        <pt x="896" y="1422" on="0"/>
        <pt x="700" y="1311" on="0"/>
        <pt x="624" y="1212" on="1"/>
        <pt x="547" y="1111" on="0"/>
        <pt x="459" y="818" on="0"/>
        <pt x="459" y="652" on="1"/>
        <pt x="459" y="523" on="0"/>
        <pt x="528" y="318" on="0"/>
      </contour>
      <contour>
        <pt x="1288" y="1790" on="1"/>
        <pt x="1288" y="1729" on="0"/>
        <pt x="1200" y="1642" on="0"/>
        <pt x="1080" y="1642" on="0"/>
        <pt x="996" y="1729" on="0"/>
        <pt x="996" y="1791" on="1"/>
        <pt x="996" y="1848" on="0"/>
        <pt x="1082" y="1928" on="0"/>
        <pt x="1140" y="1928" on="1"/>
        <pt x="1201" y="1928" on="0"/>
        <pt x="1288" y="1847" on="0"/>
      </contour>
    </TTGlyph>
    <TTGlyph name="D" xMin="87" yMin="0" xMax="1671" yMax="1524">
      <contour>
        <pt x="533" y="126" on="1"/>
        <pt x="703" y="126" on="1"/>
        <pt x="857" y="126" on="0"/>
        <pt x="1127" y="243" on="0"/>
        <pt x="1219" y="345" on="1"/>
        <pt x="1310" y="446" on="0"/>
        <pt x="1411" y="708" on="0"/>
        <pt x="1411" y="850" on="1"/>
        <pt x="1411" y="1084" on="0"/>
        <pt x="1282" y="1237" on="1"/>
        <pt x="1217" y="1314" on="0"/>
        <pt x="1007" y="1400" on="0"/>
        <pt x="875" y="1400" on="1"/>
        <pt x="802" y="1400" on="0"/>
        <pt x="733" y="1392" on="1"/>
      </contour>
      <contour>
        <pt x="1437" y="1406" on="1"/>
        <pt x="1518" y="1353" on="0"/>
        <pt x="1626" y="1199" on="0"/>
        <pt x="1649" y="1111" on="1"/>
        <pt x="1671" y="1027" on="0"/>
        <pt x="1671" y="926" on="1"/>
        <pt x="1671" y="638" on="0"/>
        <pt x="1486" y="399" on="1"/>
        <pt x="1292" y="150" on="0"/>
        <pt x="983" y="52" on="1"/>
        <pt x="820" y="0" on="0"/>
        <pt x="635" y="0" on="1"/>
        <pt x="87" y="0" on="1"/>
        <pt x="111" y="90" on="1"/>
        <pt x="319" y="156" on="1"/>
        <pt x="505" y="1336" on="1"/>
        <pt x="311" y="1372" on="1"/>
        <pt x="335" y="1464" on="1"/>
        <pt x="704" y="1524" on="0"/>
        <pt x="939" y="1524" on="1"/>
        <pt x="1257" y="1524" on="0"/>
      </contour>
    </TTGlyph>
    <TTGlyph name="Dcaron" xMin="87" yMin="0" xMax="1671" yMax="1918">
      <contour>
        <pt x="533" y="126" on="1"/>
        <pt x="703" y="126" on="1"/>
        <pt x="857" y="126" on="0"/>
        <pt x="1127" y="243" on="0"/>
        <pt x="1219" y="345" on="1"/>
        <pt x="1310" y="446" on="0"/>
        <pt x="1411" y="708" on="0"/>
        <pt x="1411" y="850" on="1"/>
        <pt x="1411" y="1084" on="0"/>
        <pt x="1282" y="1237" on="1"/>
        <pt x="1217" y="1314" on="0"/>
        <pt x="1007" y="1400" on="0"/>
        <pt x="875" y="1400" on="1"/>
        <pt x="802" y="1400" on="0"/>
        <pt x="733" y="1392" on="1"/>
      </contour>
      <contour>
        <pt x="1437" y="1406" on="1"/>
        <pt x="1518" y="1353" on="0"/>
        <pt x="1626" y="1199" on="0"/>
        <pt x="1649" y="1111" on="1"/>
        <pt x="1671" y="1027" on="0"/>
        <pt x="1671" y="926" on="1"/>
        <pt x="1671" y="638" on="0"/>
        <pt x="1486" y="399" on="1"/>
        <pt x="1292" y="150" on="0"/>
        <pt x="983" y="52" on="1"/>
        <pt x="820" y="0" on="0"/>
        <pt x="635" y="0" on="1"/>
        <pt x="87" y="0" on="1"/>
        <pt x="111" y="90" on="1"/>
        <pt x="319" y="156" on="1"/>
        <pt x="505" y="1336" on="1"/>
        <pt x="311" y="1372" on="1"/>
        <pt x="335" y="1464" on="1"/>
        <pt x="704" y="1524" on="0"/>
        <pt x="939" y="1524" on="1"/>
        <pt x="1257" y="1524" on="0"/>
      </contour>
      <contour>
        <pt x="1035" y="1644" on="1"/>
        <pt x="817" y="1844" on="1"/>
        <pt x="915" y="1918" on="1"/>
        <pt x="1095" y="1744" on="1"/>
        <pt x="1107" y="1744" on="1"/>
        <pt x="1257" y="1914" on="1"/>
        <pt x="1309" y="1878" on="1"/>
        <pt x="1101" y="1660" on="1"/>
      </contour>
    </TTGlyph>
    <TTGlyph name="Dcroat" xMin="87" yMin="0" xMax="1671" yMax="1791">
      <contour>
        <pt x="533" y="126" on="1"/>
        <pt x="703" y="126" on="1"/>
        <pt x="857" y="126" on="0"/>
        <pt x="1127" y="243" on="0"/>
        <pt x="1219" y="345" on="1"/>
        <pt x="1310" y="446" on="0"/>
        <pt x="1411" y="708" on="0"/>
        <pt x="1411" y="850" on="1"/>
        <pt x="1411" y="1084" on="0"/>
        <pt x="1282" y="1237" on="1"/>
        <pt x="1217" y="1314" on="0"/>
        <pt x="1007" y="1400" on="0"/>
        <pt x="875" y="1400" on="1"/>
        <pt x="802" y="1400" on="0"/>
        <pt x="733" y="1392" on="1"/>
      </contour>
      <contour>
        <pt x="1437" y="1406" on="1"/>
        <pt x="1518" y="1353" on="0"/>
        <pt x="1626" y="1199" on="0"/>
        <pt x="1649" y="1111" on="1"/>
        <pt x="1671" y="1027" on="0"/>
        <pt x="1671" y="926" on="1"/>
        <pt x="1671" y="638" on="0"/>
        <pt x="1486" y="399" on="1"/>
        <pt x="1292" y="150" on="0"/>
        <pt x="983" y="52" on="1"/>
        <pt x="820" y="0" on="0"/>
        <pt x="635" y="0" on="1"/>
        <pt x="87" y="0" on="1"/>
        <pt x="111" y="90" on="1"/>
        <pt x="319" y="156" on="1"/>
        <pt x="505" y="1336" on="1"/>
        <pt x="311" y="1372" on="1"/>
        <pt x="335" y="1464" on="1"/>
        <pt x="704" y="1524" on="0"/>
        <pt x="939" y="1524" on="1"/>
        <pt x="1257" y="1524" on="0"/>
      </contour>
      <contour>
        <pt x="803" y="1791" on="1"/>
        <pt x="1337" y="1791" on="1"/>
        <pt x="1321" y="1670" on="1"/>
        <pt x="787" y="1670" on="1"/>
      </contour>
    </TTGlyph>
    <TTGlyph name="E" xMin="100" yMin="0" xMax="1482" yMax="1506">
      <contour>
        <pt x="328" y="1506" on="1"/>
        <pt x="1482" y="1506" on="1"/>
        <pt x="1386" y="1120" on="1"/>
        <pt x="1288" y="1136" on="1"/>
        <pt x="1282" y="1396" on="1"/>
        <pt x="736" y="1396" on="1"/>
        <pt x="646" y="820" on="1"/>
        <pt x="982" y="820" on="1"/>
        <pt x="1056" y="964" on="1"/>
        <pt x="1166" y="980" on="1"/>
        <pt x="1054" y="510" on="1"/>
        <pt x="952" y="494" on="1"/>
        <pt x="946" y="706" on="1"/>
        <pt x="628" y="706" on="1"/>
        <pt x="534" y="116" on="1"/>
        <pt x="1108" y="116" on="1"/>
        <pt x="1266" y="394" on="1"/>
        <pt x="1360" y="380" on="1"/>
        <pt x="1264" y="0" on="1"/>
        <pt x="100" y="0" on="1"/>
        <pt x="118" y="90" on="1"/>
        <pt x="318" y="146" on="1"/>
        <pt x="510" y="1364" on="1"/>
        <pt x="308" y="1414" on="1"/>
      </contour>
    </TTGlyph>
    <TTGlyph name="Eacute" xMin="100" yMin="0" xMax="1482" yMax="2066">
      <contour>
        <pt x="328" y="1506" on="1"/>
        <pt x="1482" y="1506" on="1"/>
        <pt x="1386" y="1120" on="1"/>
        <pt x="1288" y="1136" on="1"/>
        <pt x="1282" y="1396" on="1"/>
        <pt x="736" y="1396" on="1"/>
        <pt x="646" y="820" on="1"/>
        <pt x="982" y="820" on="1"/>
        <pt x="1056" y="964" on="1"/>
        <pt x="1166" y="980" on="1"/>
        <pt x="1054" y="510" on="1"/>
        <pt x="952" y="494" on="1"/>
        <pt x="946" y="706" on="1"/>
        <pt x="628" y="706" on="1"/>
        <pt x="534" y="116" on="1"/>
        <pt x="1108" y="116" on="1"/>
        <pt x="1266" y="394" on="1"/>
        <pt x="1360" y="380" on="1"/>
        <pt x="1264" y="0" on="1"/>
        <pt x="100" y="0" on="1"/>
        <pt x="118" y="90" on="1"/>
        <pt x="318" y="146" on="1"/>
        <pt x="510" y="1364" on="1"/>
        <pt x="308" y="1414" on="1"/>
      </contour>
      <contour>
        <pt x="1240" y="2018" on="1"/>
        <pt x="1018" y="1634" on="1"/>
        <pt x="956" y="1672" on="1"/>
        <pt x="1104" y="2066" on="1"/>
      </contour>
    </TTGlyph>
    <TTGlyph name="Ecaron" xMin="100" yMin="0" xMax="1482" yMax="1918">
      <contour>
        <pt x="328" y="1506" on="1"/>
        <pt x="1482" y="1506" on="1"/>
        <pt x="1386" y="1120" on="1"/>
        <pt x="1288" y="1136" on="1"/>
        <pt x="1282" y="1396" on="1"/>
        <pt x="736" y="1396" on="1"/>
        <pt x="646" y="820" on="1"/>
        <pt x="982" y="820" on="1"/>
        <pt x="1056" y="964" on="1"/>
        <pt x="1166" y="980" on="1"/>
        <pt x="1054" y="510" on="1"/>
        <pt x="952" y="494" on="1"/>
        <pt x="946" y="706" on="1"/>
        <pt x="628" y="706" on="1"/>
        <pt x="534" y="116" on="1"/>
        <pt x="1108" y="116" on="1"/>
        <pt x="1266" y="394" on="1"/>
        <pt x="1360" y="380" on="1"/>
        <pt x="1264" y="0" on="1"/>
        <pt x="100" y="0" on="1"/>
        <pt x="118" y="90" on="1"/>
        <pt x="318" y="146" on="1"/>
        <pt x="510" y="1364" on="1"/>
        <pt x="308" y="1414" on="1"/>
      </contour>
      <contour>
        <pt x="940" y="1644" on="1"/>
        <pt x="721" y="1844" on="1"/>
        <pt x="820" y="1918" on="1"/>
        <pt x="1000" y="1744" on="1"/>
        <pt x="1012" y="1744" on="1"/>
        <pt x="1162" y="1914" on="1"/>
        <pt x="1214" y="1878" on="1"/>
        <pt x="1006" y="1660" on="1"/>
      </contour>
    </TTGlyph>
    <TTGlyph name="Ecircumflex" xMin="100" yMin="0" xMax="1482" yMax="1914">
      <contour>
        <pt x="328" y="1506" on="1"/>
        <pt x="1482" y="1506" on="1"/>
        <pt x="1386" y="1120" on="1"/>
        <pt x="1288" y="1136" on="1"/>
        <pt x="1282" y="1396" on="1"/>
        <pt x="736" y="1396" on="1"/>
        <pt x="646" y="820" on="1"/>
        <pt x="982" y="820" on="1"/>
        <pt x="1056" y="964" on="1"/>
        <pt x="1166" y="980" on="1"/>
        <pt x="1054" y="510" on="1"/>
        <pt x="952" y="494" on="1"/>
        <pt x="946" y="706" on="1"/>
        <pt x="628" y="706" on="1"/>
        <pt x="534" y="116" on="1"/>
        <pt x="1108" y="116" on="1"/>
        <pt x="1266" y="394" on="1"/>
        <pt x="1360" y="380" on="1"/>
        <pt x="1264" y="0" on="1"/>
        <pt x="100" y="0" on="1"/>
        <pt x="118" y="90" on="1"/>
        <pt x="318" y="146" on="1"/>
        <pt x="510" y="1364" on="1"/>
        <pt x="308" y="1414" on="1"/>
      </contour>
      <contour>
        <pt x="994" y="1914" on="1"/>
        <pt x="1210" y="1689" on="1"/>
        <pt x="1150" y="1646" on="1"/>
        <pt x="952" y="1778" on="1"/>
        <pt x="940" y="1778" on="1"/>
        <pt x="770" y="1644" on="1"/>
        <pt x="724" y="1680" on="1"/>
        <pt x="928" y="1898" on="1"/>
      </contour>
    </TTGlyph>
    <TTGlyph name="Edieresis" xMin="100" yMin="0" xMax="1482" yMax="1868">
      <contour>
        <pt x="328" y="1506" on="1"/>
        <pt x="1482" y="1506" on="1"/>
        <pt x="1386" y="1120" on="1"/>
        <pt x="1288" y="1136" on="1"/>
        <pt x="1282" y="1396" on="1"/>
        <pt x="736" y="1396" on="1"/>
        <pt x="646" y="820" on="1"/>
        <pt x="982" y="820" on="1"/>
        <pt x="1056" y="964" on="1"/>
        <pt x="1166" y="980" on="1"/>
        <pt x="1054" y="510" on="1"/>
        <pt x="952" y="494" on="1"/>
        <pt x="946" y="706" on="1"/>
        <pt x="628" y="706" on="1"/>
        <pt x="534" y="116" on="1"/>
        <pt x="1108" y="116" on="1"/>
        <pt x="1266" y="394" on="1"/>
        <pt x="1360" y="380" on="1"/>
        <pt x="1264" y="0" on="1"/>
        <pt x="100" y="0" on="1"/>
        <pt x="118" y="90" on="1"/>
        <pt x="318" y="146" on="1"/>
        <pt x="510" y="1364" on="1"/>
        <pt x="308" y="1414" on="1"/>
      </contour>
      <contour>
        <pt x="1233" y="1774" on="1"/>
        <pt x="1233" y="1732" on="0"/>
        <pt x="1171" y="1676" on="0"/>
        <pt x="1128" y="1676" on="1"/>
        <pt x="1086" y="1676" on="0"/>
        <pt x="1026" y="1732" on="0"/>
        <pt x="1026" y="1774" on="1"/>
        <pt x="1026" y="1815" on="0"/>
        <pt x="1087" y="1868" on="0"/>
        <pt x="1128" y="1868" on="1"/>
        <pt x="1171" y="1868" on="0"/>
        <pt x="1233" y="1814" on="0"/>
      </contour>
      <contour>
        <pt x="908" y="1774" on="1"/>
        <pt x="908" y="1732" on="0"/>
        <pt x="847" y="1676" on="0"/>
        <pt x="804" y="1676" on="1"/>
        <pt x="762" y="1676" on="0"/>
        <pt x="702" y="1732" on="0"/>
        <pt x="702" y="1774" on="1"/>
        <pt x="702" y="1815" on="0"/>
        <pt x="763" y="1868" on="0"/>
        <pt x="804" y="1868" on="1"/>
        <pt x="847" y="1868" on="0"/>
        <pt x="908" y="1815" on="0"/>
      </contour>
    </TTGlyph>
    <TTGlyph name="Edotaccent" xMin="100" yMin="0" xMax="1482" yMax="1928">
      <contour>
        <pt x="328" y="1506" on="1"/>
        <pt x="1482" y="1506" on="1"/>
        <pt x="1386" y="1120" on="1"/>
        <pt x="1288" y="1136" on="1"/>
        <pt x="1282" y="1396" on="1"/>
        <pt x="736" y="1396" on="1"/>
        <pt x="646" y="820" on="1"/>
        <pt x="982" y="820" on="1"/>
        <pt x="1056" y="964" on="1"/>
        <pt x="1166" y="980" on="1"/>
        <pt x="1054" y="510" on="1"/>
        <pt x="952" y="494" on="1"/>
        <pt x="946" y="706" on="1"/>
        <pt x="628" y="706" on="1"/>
        <pt x="534" y="116" on="1"/>
        <pt x="1108" y="116" on="1"/>
        <pt x="1266" y="394" on="1"/>
        <pt x="1360" y="380" on="1"/>
        <pt x="1264" y="0" on="1"/>
        <pt x="100" y="0" on="1"/>
        <pt x="118" y="90" on="1"/>
        <pt x="318" y="146" on="1"/>
        <pt x="510" y="1364" on="1"/>
        <pt x="308" y="1414" on="1"/>
      </contour>
      <contour>
        <pt x="1114" y="1790" on="1"/>
        <pt x="1114" y="1729" on="0"/>
        <pt x="1026" y="1642" on="0"/>
        <pt x="906" y="1642" on="0"/>
        <pt x="822" y="1729" on="0"/>
        <pt x="822" y="1791" on="1"/>
        <pt x="822" y="1848" on="0"/>
        <pt x="908" y="1928" on="0"/>
        <pt x="966" y="1928" on="1"/>
        <pt x="1027" y="1928" on="0"/>
        <pt x="1114" y="1847" on="0"/>
      </contour>
    </TTGlyph>
    <TTGlyph name="Egrave" xMin="100" yMin="0" xMax="1482" yMax="2056">
      <contour>
        <pt x="328" y="1506" on="1"/>
        <pt x="1482" y="1506" on="1"/>
        <pt x="1386" y="1120" on="1"/>
        <pt x="1288" y="1136" on="1"/>
        <pt x="1282" y="1396" on="1"/>
        <pt x="736" y="1396" on="1"/>
        <pt x="646" y="820" on="1"/>
        <pt x="982" y="820" on="1"/>
        <pt x="1056" y="964" on="1"/>
        <pt x="1166" y="980" on="1"/>
        <pt x="1054" y="510" on="1"/>
        <pt x="952" y="494" on="1"/>
        <pt x="946" y="706" on="1"/>
        <pt x="628" y="706" on="1"/>
        <pt x="534" y="116" on="1"/>
        <pt x="1108" y="116" on="1"/>
        <pt x="1266" y="394" on="1"/>
        <pt x="1360" y="380" on="1"/>
        <pt x="1264" y="0" on="1"/>
        <pt x="100" y="0" on="1"/>
        <pt x="118" y="90" on="1"/>
        <pt x="318" y="146" on="1"/>
        <pt x="510" y="1364" on="1"/>
        <pt x="308" y="1414" on="1"/>
      </contour>
      <contour>
        <pt x="818" y="2010" on="1"/>
        <pt x="958" y="2056" on="1"/>
        <pt x="1118" y="1652" on="1"/>
        <pt x="1048" y="1610" on="1"/>
      </contour>
    </TTGlyph>
    <TTGlyph name="Emacron" xMin="100" yMin="0" xMax="1482" yMax="1791">
      <contour>
        <pt x="328" y="1506" on="1"/>
        <pt x="1482" y="1506" on="1"/>
        <pt x="1386" y="1120" on="1"/>
        <pt x="1288" y="1136" on="1"/>
        <pt x="1282" y="1396" on="1"/>
        <pt x="736" y="1396" on="1"/>
        <pt x="646" y="820" on="1"/>
        <pt x="982" y="820" on="1"/>
        <pt x="1056" y="964" on="1"/>
        <pt x="1166" y="980" on="1"/>
        <pt x="1054" y="510" on="1"/>
        <pt x="952" y="494" on="1"/>
        <pt x="946" y="706" on="1"/>
        <pt x="628" y="706" on="1"/>
        <pt x="534" y="116" on="1"/>
        <pt x="1108" y="116" on="1"/>
        <pt x="1266" y="394" on="1"/>
        <pt x="1360" y="380" on="1"/>
        <pt x="1264" y="0" on="1"/>
        <pt x="100" y="0" on="1"/>
        <pt x="118" y="90" on="1"/>
        <pt x="318" y="146" on="1"/>
        <pt x="510" y="1364" on="1"/>
        <pt x="308" y="1414" on="1"/>
      </contour>
      <contour>
        <pt x="708" y="1791" on="1"/>
        <pt x="1242" y="1791" on="1"/>
        <pt x="1226" y="1670" on="1"/>
        <pt x="692" y="1670" on="1"/>
      </contour>
    </TTGlyph>
    <TTGlyph name="Eng" xMin="101" yMin="-468" xMax="1815" yMax="1506">
      <contour>
        <pt x="1267" y="1506" on="1"/>
        <pt x="1815" y="1506" on="1"/>
        <pt x="1793" y="1414" on="1"/>
        <pt x="1593" y="1368" on="1"/>
        <pt x="1394" y="104" on="1"/>
        <pt x="1380" y="12" on="0"/>
        <pt x="1302" y="-164" on="0"/>
        <pt x="1253" y="-228" on="1"/>
        <pt x="1210" y="-284" on="0"/>
        <pt x="1094" y="-386" on="0"/>
        <pt x="1044" y="-418" on="1"/>
        <pt x="996" y="-448" on="0"/>
        <pt x="954" y="-468" on="1"/>
        <pt x="894" y="-372" on="1"/>
        <pt x="1110" y="-215" on="0"/>
        <pt x="1180" y="7" on="1"/>
        <pt x="625" y="1164" on="1"/>
        <pt x="463" y="138" on="1"/>
        <pt x="671" y="98" on="1"/>
        <pt x="649" y="0" on="1"/>
        <pt x="101" y="0" on="1"/>
        <pt x="119" y="90" on="1"/>
        <pt x="319" y="146" on="1"/>
        <pt x="509" y="1354" on="1"/>
        <pt x="309" y="1414" on="1"/>
        <pt x="329" y="1506" on="1"/>
        <pt x="733" y="1506" on="1"/>
        <pt x="1289" y="330" on="1"/>
        <pt x="1451" y="1364" on="1"/>
        <pt x="1245" y="1414" on="1"/>
      </contour>
    </TTGlyph>
    <TTGlyph name="Eogonek" xMin="100" yMin="-452" xMax="1482" yMax="1506">
      <contour>
        <pt x="1240" y="0" on="1"/>
        <pt x="1178" y="-97" on="0"/>
        <pt x="1178" y="-164" on="1"/>
        <pt x="1178" y="-303" on="0"/>
        <pt x="1328" y="-390" on="1"/>
        <pt x="1286" y="-452" on="1"/>
        <pt x="1159" y="-439" on="0"/>
        <pt x="998" y="-317" on="0"/>
        <pt x="998" y="-236" on="1"/>
        <pt x="998" y="-181" on="0"/>
        <pt x="1061" y="-76" on="0"/>
        <pt x="1144" y="0" on="1"/>
        <pt x="100" y="0" on="1"/>
        <pt x="118" y="90" on="1"/>
        <pt x="318" y="146" on="1"/>
        <pt x="510" y="1364" on="1"/>
        <pt x="308" y="1414" on="1"/>
        <pt x="328" y="1506" on="1"/>
        <pt x="1482" y="1506" on="1"/>
        <pt x="1386" y="1120" on="1"/>
        <pt x="1288" y="1136" on="1"/>
        <pt x="1282" y="1396" on="1"/>
        <pt x="736" y="1396" on="1"/>
        <pt x="646" y="820" on="1"/>
        <pt x="982" y="820" on="1"/>
        <pt x="1056" y="964" on="1"/>
        <pt x="1166" y="980" on="1"/>
        <pt x="1054" y="510" on="1"/>
        <pt x="952" y="494" on="1"/>
        <pt x="946" y="706" on="1"/>
        <pt x="628" y="706" on="1"/>
        <pt x="534" y="116" on="1"/>
        <pt x="1108" y="116" on="1"/>
        <pt x="1266" y="394" on="1"/>
        <pt x="1360" y="380" on="1"/>
        <pt x="1264" y="0" on="1"/>
      </contour>
    </TTGlyph>
    <TTGlyph name="Eth" xMin="88" yMin="0" xMax="1672" yMax="1524">
      <contour>
        <pt x="622" y="680" on="1"/>
        <pt x="534" y="126" on="1"/>
        <pt x="704" y="126" on="1"/>
        <pt x="858" y="126" on="0"/>
        <pt x="1128" y="244" on="0"/>
        <pt x="1220" y="346" on="1"/>
        <pt x="1311" y="447" on="0"/>
        <pt x="1412" y="710" on="0"/>
        <pt x="1412" y="852" on="1"/>
        <pt x="1412" y="1091" on="0"/>
        <pt x="1283" y="1241" on="1"/>
        <pt x="1218" y="1317" on="0"/>
        <pt x="1009" y="1400" on="0"/>
        <pt x="876" y="1400" on="1"/>
        <pt x="803" y="1400" on="0"/>
        <pt x="734" y="1392" on="1"/>
        <pt x="640" y="800" on="1"/>
        <pt x="988" y="816" on="1"/>
        <pt x="954" y="694" on="1"/>
      </contour>
      <contour>
        <pt x="1438" y="1406" on="1"/>
        <pt x="1518" y="1353" on="0"/>
        <pt x="1627" y="1201" on="0"/>
        <pt x="1650" y="1114" on="1"/>
        <pt x="1672" y="1030" on="0"/>
        <pt x="1672" y="930" on="1"/>
        <pt x="1672" y="639" on="0"/>
        <pt x="1487" y="400" on="1"/>
        <pt x="1294" y="150" on="0"/>
        <pt x="984" y="52" on="1"/>
        <pt x="821" y="0" on="0"/>
        <pt x="636" y="0" on="1"/>
        <pt x="88" y="0" on="1"/>
        <pt x="112" y="90" on="1"/>
        <pt x="320" y="156" on="1"/>
        <pt x="402" y="670" on="1"/>
        <pt x="218" y="662" on="1"/>
        <pt x="250" y="784" on="1"/>
        <pt x="420" y="792" on="1"/>
        <pt x="506" y="1336" on="1"/>
        <pt x="312" y="1372" on="1"/>
        <pt x="336" y="1464" on="1"/>
        <pt x="705" y="1524" on="0"/>
        <pt x="940" y="1524" on="1"/>
        <pt x="1258" y="1524" on="0"/>
      </contour>
    </TTGlyph>
    <TTGlyph name="Euro" xMin="165" yMin="-30" xMax="1549" yMax="1538">
      <contour>
        <pt x="1277" y="476" on="1"/>
        <pt x="1385" y="492" on="1"/>
        <pt x="1367" y="134" on="1"/>
        <pt x="1238" y="44" on="0"/>
        <pt x="1011" y="-30" on="0"/>
        <pt x="863" y="-30" on="1"/>
        <pt x="695" y="-30" on="0"/>
        <pt x="439" y="101" on="0"/>
        <pt x="364" y="231" on="1"/>
        <pt x="287" y="362" on="0"/>
        <pt x="287" y="544" on="1"/>
        <pt x="287" y="556" on="0"/>
        <pt x="289" y="576" on="0"/>
        <pt x="289" y="588" on="1"/>
        <pt x="165" y="588" on="1"/>
        <pt x="207" y="716" on="1"/>
        <pt x="301" y="716" on="1"/>
        <pt x="307" y="753" on="0"/>
        <pt x="317" y="800" on="1"/>
        <pt x="205" y="800" on="1"/>
        <pt x="247" y="928" on="1"/>
        <pt x="355" y="928" on="1"/>
        <pt x="425" y="1126" on="0"/>
        <pt x="561" y="1275" on="1"/>
        <pt x="713" y="1441" on="0"/>
        <pt x="925" y="1504" on="1"/>
        <pt x="1039" y="1538" on="0"/>
        <pt x="1171" y="1538" on="1"/>
        <pt x="1295" y="1538" on="0"/>
        <pt x="1475" y="1481" on="0"/>
        <pt x="1549" y="1416" on="1"/>
        <pt x="1447" y="1014" on="1"/>
        <pt x="1345" y="1030" on="1"/>
        <pt x="1337" y="1296" on="1"/>
        <pt x="1297" y="1363" on="0"/>
        <pt x="1186" y="1422" on="0"/>
        <pt x="1083" y="1422" on="1"/>
        <pt x="915" y="1422" on="0"/>
        <pt x="660" y="1162" on="0"/>
        <pt x="599" y="928" on="1"/>
        <pt x="1259" y="928" on="1"/>
        <pt x="1203" y="800" on="1"/>
        <pt x="573" y="800" on="1"/>
        <pt x="573" y="798" on="1"/>
        <pt x="564" y="730" on="0"/>
        <pt x="563" y="716" on="1"/>
        <pt x="1171" y="716" on="1"/>
        <pt x="1115" y="588" on="1"/>
        <pt x="557" y="588" on="1"/>
        <pt x="557" y="586" on="1"/>
        <pt x="557" y="353" on="0"/>
        <pt x="759" y="102" on="0"/>
        <pt x="943" y="102" on="1"/>
        <pt x="1091" y="102" on="0"/>
        <pt x="1185" y="210" on="1"/>
      </contour>
    </TTGlyph>
    <TTGlyph name="F" xMin="100" yMin="0" xMax="1480" yMax="1506">
      <contour>
        <pt x="330" y="1506" on="1"/>
        <pt x="1480" y="1506" on="1"/>
        <pt x="1372" y="1118" on="1"/>
        <pt x="1274" y="1134" on="1"/>
        <pt x="1274" y="1396" on="1"/>
        <pt x="736" y="1396" on="1"/>
        <pt x="644" y="812" on="1"/>
        <pt x="976" y="812" on="1"/>
        <pt x="1050" y="958" on="1"/>
        <pt x="1154" y="974" on="1"/>
        <pt x="1050" y="500" on="1"/>
        <pt x="944" y="482" on="1"/>
        <pt x="942" y="700" on="1"/>
        <pt x="626" y="700" on="1"/>
        <pt x="538" y="148" on="1"/>
        <pt x="806" y="102" on="1"/>
        <pt x="782" y="0" on="1"/>
        <pt x="100" y="0" on="1"/>
        <pt x="118" y="90" on="1"/>
        <pt x="318" y="146" on="1"/>
        <pt x="510" y="1364" on="1"/>
        <pt x="308" y="1414" on="1"/>
      </contour>
    </TTGlyph>
    <TTGlyph name="G" xMin="205" yMin="-38" xMax="1609" yMax="1526">
      <contour>
        <pt x="1483" y="1018" on="1"/>
        <pt x="1385" y="1036" on="1"/>
        <pt x="1381" y="1268" on="1"/>
        <pt x="1345" y="1328" on="0"/>
        <pt x="1162" y="1406" on="0"/>
        <pt x="1025" y="1406" on="1"/>
        <pt x="848" y="1406" on="0"/>
        <pt x="711" y="1300" on="1"/>
        <pt x="557" y="1181" on="0"/>
        <pt x="498" y="943" on="1"/>
        <pt x="465" y="812" on="0"/>
        <pt x="465" y="652" on="1"/>
        <pt x="465" y="376" on="0"/>
        <pt x="700" y="92" on="0"/>
        <pt x="933" y="92" on="1"/>
        <pt x="1084" y="92" on="0"/>
        <pt x="1149" y="148" on="1"/>
        <pt x="1209" y="526" on="1"/>
        <pt x="943" y="572" on="1"/>
        <pt x="967" y="672" on="1"/>
        <pt x="1609" y="672" on="1"/>
        <pt x="1587" y="582" on="1"/>
        <pt x="1437" y="532" on="1"/>
        <pt x="1371" y="106" on="1"/>
        <pt x="1268" y="37" on="0"/>
        <pt x="960" y="-38" on="0"/>
        <pt x="773" y="-38" on="1"/>
        <pt x="631" y="-38" on="0"/>
        <pt x="408" y="57" on="0"/>
        <pt x="340" y="143" on="1"/>
        <pt x="205" y="313" on="0"/>
        <pt x="205" y="564" on="1"/>
        <pt x="205" y="738" on="0"/>
        <pt x="308" y="1052" on="0"/>
        <pt x="398" y="1168" on="1"/>
        <pt x="582" y="1403" on="0"/>
        <pt x="845" y="1486" on="1"/>
        <pt x="971" y="1526" on="0"/>
        <pt x="1103" y="1526" on="1"/>
        <pt x="1425" y="1526" on="0"/>
        <pt x="1577" y="1408" on="1"/>
      </contour>
    </TTGlyph>
    <TTGlyph name="Gbreve" xMin="205" yMin="-38" xMax="1609" yMax="1920">
      <contour>
        <pt x="1483" y="1018" on="1"/>
        <pt x="1385" y="1036" on="1"/>
        <pt x="1381" y="1268" on="1"/>
        <pt x="1345" y="1328" on="0"/>
        <pt x="1162" y="1406" on="0"/>
        <pt x="1025" y="1406" on="1"/>
        <pt x="848" y="1406" on="0"/>
        <pt x="711" y="1300" on="1"/>
        <pt x="557" y="1181" on="0"/>
        <pt x="498" y="943" on="1"/>
        <pt x="465" y="812" on="0"/>
        <pt x="465" y="652" on="1"/>
        <pt x="465" y="376" on="0"/>
        <pt x="700" y="92" on="0"/>
        <pt x="933" y="92" on="1"/>
        <pt x="1084" y="92" on="0"/>
        <pt x="1149" y="148" on="1"/>
        <pt x="1209" y="526" on="1"/>
        <pt x="943" y="572" on="1"/>
        <pt x="967" y="672" on="1"/>
        <pt x="1609" y="672" on="1"/>
        <pt x="1587" y="582" on="1"/>
        <pt x="1437" y="532" on="1"/>
        <pt x="1371" y="106" on="1"/>
        <pt x="1268" y="37" on="0"/>
        <pt x="960" y="-38" on="0"/>
        <pt x="773" y="-38" on="1"/>
        <pt x="631" y="-38" on="0"/>
        <pt x="408" y="57" on="0"/>
        <pt x="340" y="143" on="1"/>
        <pt x="205" y="313" on="0"/>
        <pt x="205" y="564" on="1"/>
        <pt x="205" y="738" on="0"/>
        <pt x="308" y="1052" on="0"/>
        <pt x="398" y="1168" on="1"/>
        <pt x="582" y="1403" on="0"/>
        <pt x="845" y="1486" on="1"/>
        <pt x="971" y="1526" on="0"/>
        <pt x="1103" y="1526" on="1"/>
        <pt x="1425" y="1526" on="0"/>
        <pt x="1577" y="1408" on="1"/>
      </contour>
      <contour>
        <pt x="901" y="1880" on="1"/>
        <pt x="957" y="1918" on="1"/>
        <pt x="967" y="1898" on="1"/>
        <pt x="989" y="1854" on="0"/>
        <pt x="1077" y="1796" on="0"/>
        <pt x="1131" y="1796" on="1"/>
        <pt x="1238" y="1796" on="0"/>
        <pt x="1303" y="1900" on="1"/>
        <pt x="1315" y="1920" on="1"/>
        <pt x="1365" y="1886" on="1"/>
        <pt x="1357" y="1862" on="1"/>
        <pt x="1328" y="1773" on="0"/>
        <pt x="1211" y="1664" on="0"/>
        <pt x="1131" y="1664" on="1"/>
        <pt x="1045" y="1664" on="0"/>
        <pt x="928" y="1771" on="0"/>
        <pt x="907" y="1856" on="1"/>
      </contour>
    </TTGlyph>
    <TTGlyph name="Gcommaaccent" xMin="205" yMin="-484" xMax="1609" yMax="1526">
      <contour>
        <pt x="1483" y="1018" on="1"/>
        <pt x="1385" y="1036" on="1"/>
        <pt x="1381" y="1268" on="1"/>
        <pt x="1345" y="1328" on="0"/>
        <pt x="1162" y="1406" on="0"/>
        <pt x="1025" y="1406" on="1"/>
        <pt x="848" y="1406" on="0"/>
        <pt x="711" y="1300" on="1"/>
        <pt x="557" y="1181" on="0"/>
        <pt x="498" y="943" on="1"/>
        <pt x="465" y="812" on="0"/>
        <pt x="465" y="652" on="1"/>
        <pt x="465" y="376" on="0"/>
        <pt x="700" y="92" on="0"/>
        <pt x="933" y="92" on="1"/>
        <pt x="1084" y="92" on="0"/>
        <pt x="1149" y="148" on="1"/>
        <pt x="1209" y="526" on="1"/>
        <pt x="943" y="572" on="1"/>
        <pt x="967" y="672" on="1"/>
        <pt x="1609" y="672" on="1"/>
        <pt x="1587" y="582" on="1"/>
        <pt x="1437" y="532" on="1"/>
        <pt x="1371" y="106" on="1"/>
        <pt x="1268" y="37" on="0"/>
        <pt x="960" y="-38" on="0"/>
        <pt x="773" y="-38" on="1"/>
        <pt x="631" y="-38" on="0"/>
        <pt x="408" y="57" on="0"/>
        <pt x="340" y="143" on="1"/>
        <pt x="205" y="313" on="0"/>
        <pt x="205" y="564" on="1"/>
        <pt x="205" y="738" on="0"/>
        <pt x="308" y="1052" on="0"/>
        <pt x="398" y="1168" on="1"/>
        <pt x="582" y="1403" on="0"/>
        <pt x="845" y="1486" on="1"/>
        <pt x="971" y="1526" on="0"/>
        <pt x="1103" y="1526" on="1"/>
        <pt x="1425" y="1526" on="0"/>
        <pt x="1577" y="1408" on="1"/>
      </contour>
      <contour>
        <pt x="649" y="-436" on="1"/>
        <pt x="714" y="-418" on="0"/>
        <pt x="797" y="-342" on="0"/>
        <pt x="797" y="-306" on="1"/>
        <pt x="797" y="-273" on="0"/>
        <pt x="760" y="-236" on="0"/>
        <pt x="725" y="-236" on="1"/>
        <pt x="720" y="-236" on="0"/>
        <pt x="705" y="-240" on="1"/>
        <pt x="699" y="-219" on="0"/>
        <pt x="699" y="-202" on="1"/>
        <pt x="699" y="-164" on="0"/>
        <pt x="766" y="-108" on="0"/>
        <pt x="801" y="-108" on="1"/>
        <pt x="905" y="-108" on="0"/>
        <pt x="905" y="-240" on="1"/>
        <pt x="905" y="-298" on="0"/>
        <pt x="854" y="-368" on="1"/>
        <pt x="826" y="-405" on="0"/>
        <pt x="723" y="-467" on="0"/>
        <pt x="657" y="-484" on="1"/>
      </contour>
    </TTGlyph>
    <TTGlyph name="Gdotaccent" xMin="205" yMin="-38" xMax="1609" yMax="1928">
      <contour>
        <pt x="1483" y="1018" on="1"/>
        <pt x="1385" y="1036" on="1"/>
        <pt x="1381" y="1268" on="1"/>
        <pt x="1345" y="1328" on="0"/>
        <pt x="1162" y="1406" on="0"/>
        <pt x="1025" y="1406" on="1"/>
        <pt x="848" y="1406" on="0"/>
        <pt x="711" y="1300" on="1"/>
        <pt x="557" y="1181" on="0"/>
        <pt x="498" y="943" on="1"/>
        <pt x="465" y="812" on="0"/>
        <pt x="465" y="652" on="1"/>
        <pt x="465" y="376" on="0"/>
        <pt x="700" y="92" on="0"/>
        <pt x="933" y="92" on="1"/>
        <pt x="1084" y="92" on="0"/>
        <pt x="1149" y="148" on="1"/>
        <pt x="1209" y="526" on="1"/>
        <pt x="943" y="572" on="1"/>
        <pt x="967" y="672" on="1"/>
        <pt x="1609" y="672" on="1"/>
        <pt x="1587" y="582" on="1"/>
        <pt x="1437" y="532" on="1"/>
        <pt x="1371" y="106" on="1"/>
        <pt x="1268" y="37" on="0"/>
        <pt x="960" y="-38" on="0"/>
        <pt x="773" y="-38" on="1"/>
        <pt x="631" y="-38" on="0"/>
        <pt x="408" y="57" on="0"/>
        <pt x="340" y="143" on="1"/>
        <pt x="205" y="313" on="0"/>
        <pt x="205" y="564" on="1"/>
        <pt x="205" y="738" on="0"/>
        <pt x="308" y="1052" on="0"/>
        <pt x="398" y="1168" on="1"/>
        <pt x="582" y="1403" on="0"/>
        <pt x="845" y="1486" on="1"/>
        <pt x="971" y="1526" on="0"/>
        <pt x="1103" y="1526" on="1"/>
        <pt x="1425" y="1526" on="0"/>
        <pt x="1577" y="1408" on="1"/>
      </contour>
      <contour>
        <pt x="1279" y="1790" on="1"/>
        <pt x="1279" y="1729" on="0"/>
        <pt x="1191" y="1642" on="0"/>
        <pt x="1071" y="1642" on="0"/>
        <pt x="987" y="1729" on="0"/>
        <pt x="987" y="1791" on="1"/>
        <pt x="987" y="1848" on="0"/>
        <pt x="1073" y="1928" on="0"/>
        <pt x="1131" y="1928" on="1"/>
        <pt x="1192" y="1928" on="0"/>
        <pt x="1279" y="1847" on="0"/>
      </contour>
    </TTGlyph>
    <TTGlyph name="Germandbls" xMin="37" yMin="-30" xMax="1649" yMax="1538">
      <contour>
        <pt x="1037" y="1142" on="1"/>
        <pt x="1037" y="1001" on="0"/>
        <pt x="1147" y="918" on="1"/>
        <pt x="1191" y="883" on="0"/>
        <pt x="1254" y="848" on="1"/>
        <pt x="1411" y="761" on="0"/>
        <pt x="1480" y="701" on="1"/>
        <pt x="1589" y="604" on="0"/>
        <pt x="1589" y="436" on="1"/>
        <pt x="1589" y="331" on="0"/>
        <pt x="1490" y="151" on="0"/>
        <pt x="1406" y="92" on="1"/>
        <pt x="1233" y="-30" on="0"/>
        <pt x="1017" y="-30" on="1"/>
        <pt x="883" y="-30" on="0"/>
        <pt x="673" y="67" on="0"/>
        <pt x="637" y="148" on="1"/>
        <pt x="703" y="462" on="1"/>
        <pt x="817" y="444" on="1"/>
        <pt x="825" y="226" on="1"/>
        <pt x="853" y="170" on="0"/>
        <pt x="985" y="94" on="0"/>
        <pt x="1065" y="94" on="1"/>
        <pt x="1192" y="94" on="0"/>
        <pt x="1349" y="224" on="0"/>
        <pt x="1349" y="344" on="1"/>
        <pt x="1349" y="442" on="0"/>
        <pt x="1264" y="502" on="1"/>
        <pt x="1178" y="562" on="0"/>
        <pt x="1075" y="610" on="1"/>
        <pt x="968" y="659" on="0"/>
        <pt x="887" y="743" on="1"/>
        <pt x="801" y="829" on="0"/>
        <pt x="801" y="980" on="1"/>
        <pt x="801" y="1121" on="0"/>
        <pt x="1028" y="1389" on="0"/>
        <pt x="1167" y="1420" on="1"/>
        <pt x="1169" y="1424" on="1"/>
        <pt x="1126" y="1428" on="0"/>
        <pt x="1063" y="1428" on="1"/>
        <pt x="710" y="1428" on="0"/>
        <pt x="633" y="952" on="1"/>
        <pt x="483" y="0" on="1"/>
        <pt x="37" y="0" on="1"/>
        <pt x="63" y="90" on="1"/>
        <pt x="273" y="146" on="1"/>
        <pt x="397" y="924" on="1"/>
        <pt x="446" y="1231" on="0"/>
        <pt x="807" y="1538" on="0"/>
        <pt x="1097" y="1538" on="1"/>
        <pt x="1293" y="1538" on="0"/>
        <pt x="1457" y="1488" on="1"/>
        <pt x="1546" y="1461" on="0"/>
        <pt x="1649" y="1361" on="0"/>
        <pt x="1649" y="1296" on="1"/>
        <pt x="1649" y="1230" on="0"/>
        <pt x="1554" y="1131" on="0"/>
        <pt x="1471" y="1104" on="1"/>
        <pt x="1460" y="1165" on="0"/>
        <pt x="1436" y="1259" on="0"/>
        <pt x="1409" y="1304" on="1"/>
        <pt x="1385" y="1341" on="0"/>
        <pt x="1337" y="1359" on="1"/>
        <pt x="1312" y="1368" on="0"/>
        <pt x="1283" y="1368" on="1"/>
        <pt x="1197" y="1368" on="0"/>
        <pt x="1037" y="1227" on="0"/>
      </contour>
    </TTGlyph>
    <TTGlyph name="Germandbls.alt" xMin="35" yMin="-30" xMax="1637" yMax="1538">
      <contour>
        <pt x="1179" y="924" on="1"/>
        <pt x="1197" y="910" on="0"/>
        <pt x="1320" y="836" on="1"/>
        <pt x="1411" y="781" on="0"/>
        <pt x="1479" y="690" on="1"/>
        <pt x="1555" y="587" on="0"/>
        <pt x="1555" y="436" on="1"/>
        <pt x="1555" y="303" on="0"/>
        <pt x="1402" y="85" on="0"/>
        <pt x="1277" y="27" on="1"/>
        <pt x="1154" y="-30" on="0"/>
        <pt x="1015" y="-30" on="1"/>
        <pt x="884" y="-30" on="0"/>
        <pt x="674" y="74" on="0"/>
        <pt x="637" y="158" on="1"/>
        <pt x="705" y="482" on="1"/>
        <pt x="825" y="464" on="1"/>
        <pt x="837" y="236" on="1"/>
        <pt x="868" y="174" on="0"/>
        <pt x="987" y="94" on="0"/>
        <pt x="1063" y="94" on="1"/>
        <pt x="1168" y="94" on="0"/>
        <pt x="1253" y="159" on="1"/>
        <pt x="1347" y="231" on="0"/>
        <pt x="1347" y="360" on="1"/>
        <pt x="1347" y="450" on="0"/>
        <pt x="1267" y="532" on="1"/>
        <pt x="1208" y="592" on="0"/>
        <pt x="1082" y="667" on="1"/>
        <pt x="1079" y="668" on="0"/>
        <pt x="976" y="729" on="1"/>
        <pt x="907" y="768" on="0"/>
        <pt x="879" y="786" on="1"/>
        <pt x="859" y="846" on="1"/>
        <pt x="1339" y="1384" on="1"/>
        <pt x="1339" y="1390" on="1"/>
        <pt x="1311" y="1403" on="0"/>
        <pt x="1104" y="1428" on="0"/>
        <pt x="1061" y="1428" on="1"/>
        <pt x="966" y="1428" on="0"/>
        <pt x="830" y="1372" on="0"/>
        <pt x="775" y="1308" on="1"/>
        <pt x="668" y="1183" on="0"/>
        <pt x="617" y="862" on="1"/>
        <pt x="481" y="0" on="1"/>
        <pt x="35" y="0" on="1"/>
        <pt x="61" y="90" on="1"/>
        <pt x="271" y="146" on="1"/>
        <pt x="379" y="834" on="1"/>
        <pt x="444" y="1229" on="0"/>
        <pt x="634" y="1389" on="1"/>
        <pt x="727" y="1467" on="0"/>
        <pt x="951" y="1538" on="0"/>
        <pt x="1095" y="1538" on="1"/>
        <pt x="1249" y="1538" on="0"/>
        <pt x="1586" y="1510" on="0"/>
        <pt x="1637" y="1492" on="1"/>
        <pt x="1625" y="1404" on="1"/>
      </contour>
    </TTGlyph>
    <TTGlyph name="Germandbls.alt2" xMin="37" yMin="-30" xMax="1639" yMax="1538">
      <contour>
        <pt x="1445" y="1308" on="1"/>
        <pt x="1374" y="1370" on="0"/>
        <pt x="1273" y="1370" on="1"/>
        <pt x="1227" y="1370" on="0"/>
        <pt x="1116" y="1306" on="0"/>
        <pt x="1075" y="1252" on="1"/>
        <pt x="1033" y="1196" on="0"/>
        <pt x="1033" y="1140" on="1"/>
        <pt x="1033" y="1001" on="0"/>
        <pt x="1143" y="911" on="1"/>
        <pt x="1187" y="873" on="0"/>
        <pt x="1250" y="835" on="1"/>
        <pt x="1403" y="741" on="0"/>
        <pt x="1474" y="672" on="1"/>
        <pt x="1583" y="565" on="0"/>
        <pt x="1583" y="388" on="1"/>
        <pt x="1583" y="288" on="0"/>
        <pt x="1487" y="124" on="0"/>
        <pt x="1403" y="73" on="1"/>
        <pt x="1235" y="-30" on="0"/>
        <pt x="1017" y="-30" on="1"/>
        <pt x="883" y="-30" on="0"/>
        <pt x="673" y="67" on="0"/>
        <pt x="637" y="148" on="1"/>
        <pt x="705" y="472" on="1"/>
        <pt x="825" y="454" on="1"/>
        <pt x="837" y="226" on="1"/>
        <pt x="866" y="167" on="0"/>
        <pt x="986" y="94" on="0"/>
        <pt x="1065" y="94" on="1"/>
        <pt x="1170" y="94" on="0"/>
        <pt x="1254" y="144" on="1"/>
        <pt x="1349" y="201" on="0"/>
        <pt x="1349" y="324" on="1"/>
        <pt x="1349" y="442" on="0"/>
        <pt x="1241" y="520" on="1"/>
        <pt x="1192" y="556" on="0"/>
        <pt x="1135" y="586" on="1"/>
        <pt x="985" y="668" on="0"/>
        <pt x="913" y="732" on="1"/>
        <pt x="805" y="826" on="0"/>
        <pt x="805" y="988" on="1"/>
        <pt x="805" y="1065" on="0"/>
        <pt x="867" y="1214" on="0"/>
        <pt x="920" y="1271" on="1"/>
        <pt x="1028" y="1389" on="0"/>
        <pt x="1167" y="1420" on="1"/>
        <pt x="1169" y="1424" on="1"/>
        <pt x="1126" y="1428" on="0"/>
        <pt x="1063" y="1428" on="1"/>
        <pt x="710" y="1428" on="0"/>
        <pt x="633" y="952" on="1"/>
        <pt x="483" y="0" on="1"/>
        <pt x="37" y="0" on="1"/>
        <pt x="63" y="90" on="1"/>
        <pt x="273" y="146" on="1"/>
        <pt x="397" y="924" on="1"/>
        <pt x="446" y="1231" on="0"/>
        <pt x="807" y="1538" on="0"/>
        <pt x="1097" y="1538" on="1"/>
        <pt x="1267" y="1538" on="0"/>
        <pt x="1559" y="1472" on="0"/>
        <pt x="1639" y="1416" on="1"/>
        <pt x="1559" y="1074" on="1"/>
        <pt x="1443" y="1088" on="1"/>
      </contour>
    </TTGlyph>
    <TTGlyph name="H" xMin="108" yMin="0" xMax="1836" yMax="1506">
      <contour>
        <pt x="702" y="0" on="1"/>
        <pt x="108" y="0" on="1"/>
        <pt x="126" y="90" on="1"/>
        <pt x="316" y="146" on="1"/>
        <pt x="508" y="1364" on="1"/>
        <pt x="316" y="1414" on="1"/>
        <pt x="336" y="1506" on="1"/>
        <pt x="935" y="1506" on="1"/>
        <pt x="914" y="1414" on="1"/>
        <pt x="722" y="1368" on="1"/>
        <pt x="640" y="838" on="1"/>
        <pt x="1328" y="838" on="1"/>
        <pt x="1410" y="1364" on="1"/>
        <pt x="1216" y="1414" on="1"/>
        <pt x="1238" y="1506" on="1"/>
        <pt x="1836" y="1506" on="1"/>
        <pt x="1816" y="1414" on="1"/>
        <pt x="1624" y="1368" on="1"/>
        <pt x="1430" y="138" on="1"/>
        <pt x="1626" y="98" on="1"/>
        <pt x="1604" y="0" on="1"/>
        <pt x="1008" y="0" on="1"/>
        <pt x="1030" y="90" on="1"/>
        <pt x="1218" y="146" on="1"/>
        <pt x="1308" y="716" on="1"/>
        <pt x="618" y="714" on="1"/>
        <pt x="528" y="138" on="1"/>
        <pt x="728" y="98" on="1"/>
      </contour>
    </TTGlyph>
    <TTGlyph name="Hbar" xMin="108" yMin="0" xMax="1836" yMax="1506">
      <contour>
        <pt x="1362" y="1059" on="1"/>
        <pt x="674" y="1059" on="1"/>
        <pt x="640" y="838" on="1"/>
        <pt x="1328" y="838" on="1"/>
      </contour>
      <contour>
        <pt x="293" y="1059" on="1"/>
        <pt x="318" y="1169" on="1"/>
        <pt x="477" y="1169" on="1"/>
        <pt x="508" y="1364" on="1"/>
        <pt x="316" y="1414" on="1"/>
        <pt x="336" y="1506" on="1"/>
        <pt x="935" y="1506" on="1"/>
        <pt x="914" y="1414" on="1"/>
        <pt x="722" y="1368" on="1"/>
        <pt x="691" y="1169" on="1"/>
        <pt x="1380" y="1169" on="1"/>
        <pt x="1410" y="1364" on="1"/>
        <pt x="1216" y="1414" on="1"/>
        <pt x="1238" y="1506" on="1"/>
        <pt x="1836" y="1506" on="1"/>
        <pt x="1816" y="1414" on="1"/>
        <pt x="1624" y="1368" on="1"/>
        <pt x="1593" y="1169" on="1"/>
        <pt x="1754" y="1169" on="1"/>
        <pt x="1729" y="1059" on="1"/>
        <pt x="1575" y="1059" on="1"/>
        <pt x="1430" y="138" on="1"/>
        <pt x="1626" y="98" on="1"/>
        <pt x="1604" y="0" on="1"/>
        <pt x="1008" y="0" on="1"/>
        <pt x="1030" y="90" on="1"/>
        <pt x="1218" y="146" on="1"/>
        <pt x="1308" y="716" on="1"/>
        <pt x="618" y="714" on="1"/>
        <pt x="528" y="138" on="1"/>
        <pt x="728" y="98" on="1"/>
        <pt x="702" y="0" on="1"/>
        <pt x="108" y="0" on="1"/>
        <pt x="126" y="90" on="1"/>
        <pt x="316" y="146" on="1"/>
        <pt x="460" y="1059" on="1"/>
      </contour>
    </TTGlyph>
    <TTGlyph name="I" xMin="100" yMin="0" xMax="956" yMax="1506">
      <contour>
        <pt x="721" y="0" on="1"/>
        <pt x="100" y="0" on="1"/>
        <pt x="118" y="90" on="1"/>
        <pt x="318" y="146" on="1"/>
        <pt x="510" y="1364" on="1"/>
        <pt x="308" y="1414" on="1"/>
        <pt x="328" y="1506" on="1"/>
        <pt x="956" y="1506" on="1"/>
        <pt x="936" y="1414" on="1"/>
        <pt x="732" y="1368" on="1"/>
        <pt x="538" y="138" on="1"/>
        <pt x="744" y="98" on="1"/>
      </contour>
    </TTGlyph>
    <TTGlyph name="Iacute" xMin="100" yMin="0" xMax="956" yMax="2066">
      <contour>
        <pt x="721" y="0" on="1"/>
        <pt x="100" y="0" on="1"/>
        <pt x="118" y="90" on="1"/>
        <pt x="318" y="146" on="1"/>
        <pt x="510" y="1364" on="1"/>
        <pt x="308" y="1414" on="1"/>
        <pt x="328" y="1506" on="1"/>
        <pt x="956" y="1506" on="1"/>
        <pt x="936" y="1414" on="1"/>
        <pt x="732" y="1368" on="1"/>
        <pt x="538" y="138" on="1"/>
        <pt x="744" y="98" on="1"/>
      </contour>
      <contour>
        <pt x="914" y="2018" on="1"/>
        <pt x="692" y="1634" on="1"/>
        <pt x="630" y="1672" on="1"/>
        <pt x="778" y="2066" on="1"/>
      </contour>
    </TTGlyph>
    <TTGlyph name="Icaron" xMin="100" yMin="0" xMax="956" yMax="1918">
      <contour>
        <pt x="721" y="0" on="1"/>
        <pt x="100" y="0" on="1"/>
        <pt x="118" y="90" on="1"/>
        <pt x="318" y="146" on="1"/>
        <pt x="510" y="1364" on="1"/>
        <pt x="308" y="1414" on="1"/>
        <pt x="328" y="1506" on="1"/>
        <pt x="956" y="1506" on="1"/>
        <pt x="936" y="1414" on="1"/>
        <pt x="732" y="1368" on="1"/>
        <pt x="538" y="138" on="1"/>
        <pt x="744" y="98" on="1"/>
      </contour>
      <contour>
        <pt x="648" y="1644" on="1"/>
        <pt x="430" y="1844" on="1"/>
        <pt x="528" y="1918" on="1"/>
        <pt x="708" y="1744" on="1"/>
        <pt x="720" y="1744" on="1"/>
        <pt x="870" y="1914" on="1"/>
        <pt x="922" y="1878" on="1"/>
        <pt x="714" y="1660" on="1"/>
      </contour>
    </TTGlyph>
    <TTGlyph name="Icircumflex" xMin="100" yMin="0" xMax="956" yMax="1914">
      <contour>
        <pt x="721" y="0" on="1"/>
        <pt x="100" y="0" on="1"/>
        <pt x="118" y="90" on="1"/>
        <pt x="318" y="146" on="1"/>
        <pt x="510" y="1364" on="1"/>
        <pt x="308" y="1414" on="1"/>
        <pt x="328" y="1506" on="1"/>
        <pt x="956" y="1506" on="1"/>
        <pt x="936" y="1414" on="1"/>
        <pt x="732" y="1368" on="1"/>
        <pt x="538" y="138" on="1"/>
        <pt x="744" y="98" on="1"/>
      </contour>
      <contour>
        <pt x="688" y="1914" on="1"/>
        <pt x="904" y="1689" on="1"/>
        <pt x="844" y="1646" on="1"/>
        <pt x="646" y="1778" on="1"/>
        <pt x="634" y="1778" on="1"/>
        <pt x="464" y="1644" on="1"/>
        <pt x="418" y="1680" on="1"/>
        <pt x="622" y="1898" on="1"/>
      </contour>
    </TTGlyph>
    <TTGlyph name="Idieresis" xMin="100" yMin="0" xMax="956" yMax="1868">
      <contour>
        <pt x="721" y="0" on="1"/>
        <pt x="100" y="0" on="1"/>
        <pt x="118" y="90" on="1"/>
        <pt x="318" y="146" on="1"/>
        <pt x="510" y="1364" on="1"/>
        <pt x="308" y="1414" on="1"/>
        <pt x="328" y="1506" on="1"/>
        <pt x="956" y="1506" on="1"/>
        <pt x="936" y="1414" on="1"/>
        <pt x="732" y="1368" on="1"/>
        <pt x="538" y="138" on="1"/>
        <pt x="744" y="98" on="1"/>
      </contour>
      <contour>
        <pt x="928" y="1774" on="1"/>
        <pt x="928" y="1732" on="0"/>
        <pt x="865" y="1676" on="0"/>
        <pt x="822" y="1676" on="1"/>
        <pt x="780" y="1676" on="0"/>
        <pt x="720" y="1732" on="0"/>
        <pt x="720" y="1774" on="1"/>
        <pt x="720" y="1815" on="0"/>
        <pt x="781" y="1868" on="0"/>
        <pt x="822" y="1868" on="1"/>
        <pt x="865" y="1868" on="0"/>
        <pt x="928" y="1814" on="0"/>
      </contour>
      <contour>
        <pt x="602" y="1774" on="1"/>
        <pt x="602" y="1732" on="0"/>
        <pt x="541" y="1676" on="0"/>
        <pt x="498" y="1676" on="1"/>
        <pt x="456" y="1676" on="0"/>
        <pt x="396" y="1732" on="0"/>
        <pt x="396" y="1774" on="1"/>
        <pt x="396" y="1815" on="0"/>
        <pt x="457" y="1868" on="0"/>
        <pt x="498" y="1868" on="1"/>
        <pt x="541" y="1868" on="0"/>
        <pt x="602" y="1815" on="0"/>
      </contour>
    </TTGlyph>
    <TTGlyph name="Idotaccent" xMin="100" yMin="0" xMax="956" yMax="1928">
      <contour>
        <pt x="721" y="0" on="1"/>
        <pt x="100" y="0" on="1"/>
        <pt x="118" y="90" on="1"/>
        <pt x="318" y="146" on="1"/>
        <pt x="510" y="1364" on="1"/>
        <pt x="308" y="1414" on="1"/>
        <pt x="328" y="1506" on="1"/>
        <pt x="956" y="1506" on="1"/>
        <pt x="936" y="1414" on="1"/>
        <pt x="732" y="1368" on="1"/>
        <pt x="538" y="138" on="1"/>
        <pt x="744" y="98" on="1"/>
      </contour>
      <contour>
        <pt x="822" y="1790" on="1"/>
        <pt x="822" y="1729" on="0"/>
        <pt x="734" y="1642" on="0"/>
        <pt x="614" y="1642" on="0"/>
        <pt x="530" y="1729" on="0"/>
        <pt x="530" y="1791" on="1"/>
        <pt x="530" y="1848" on="0"/>
        <pt x="616" y="1928" on="0"/>
        <pt x="674" y="1928" on="1"/>
        <pt x="735" y="1928" on="0"/>
        <pt x="822" y="1847" on="0"/>
      </contour>
    </TTGlyph>
    <TTGlyph name="Igrave" xMin="100" yMin="0" xMax="956" yMax="2056">
      <contour>
        <pt x="721" y="0" on="1"/>
        <pt x="100" y="0" on="1"/>
        <pt x="118" y="90" on="1"/>
        <pt x="318" y="146" on="1"/>
        <pt x="510" y="1364" on="1"/>
        <pt x="308" y="1414" on="1"/>
        <pt x="328" y="1506" on="1"/>
        <pt x="956" y="1506" on="1"/>
        <pt x="936" y="1414" on="1"/>
        <pt x="732" y="1368" on="1"/>
        <pt x="538" y="138" on="1"/>
        <pt x="744" y="98" on="1"/>
      </contour>
      <contour>
        <pt x="412" y="2010" on="1"/>
        <pt x="552" y="2056" on="1"/>
        <pt x="712" y="1652" on="1"/>
        <pt x="642" y="1610" on="1"/>
      </contour>
    </TTGlyph>
    <TTGlyph name="Imacron" xMin="100" yMin="0" xMax="956" yMax="1791">
      <contour>
        <pt x="721" y="0" on="1"/>
        <pt x="100" y="0" on="1"/>
        <pt x="118" y="90" on="1"/>
        <pt x="318" y="146" on="1"/>
        <pt x="510" y="1364" on="1"/>
        <pt x="308" y="1414" on="1"/>
        <pt x="328" y="1506" on="1"/>
        <pt x="956" y="1506" on="1"/>
        <pt x="936" y="1414" on="1"/>
        <pt x="732" y="1368" on="1"/>
        <pt x="538" y="138" on="1"/>
        <pt x="744" y="98" on="1"/>
      </contour>
      <contour>
        <pt x="402" y="1791" on="1"/>
        <pt x="936" y="1791" on="1"/>
        <pt x="920" y="1670" on="1"/>
        <pt x="386" y="1670" on="1"/>
      </contour>
    </TTGlyph>
    <TTGlyph name="Iogonek" xMin="100" yMin="-452" xMax="956" yMax="1506">
      <contour>
        <pt x="735" y="20" on="1"/>
        <pt x="661" y="-102" on="0"/>
        <pt x="661" y="-164" on="1"/>
        <pt x="661" y="-303" on="0"/>
        <pt x="811" y="-390" on="1"/>
        <pt x="769" y="-452" on="1"/>
        <pt x="642" y="-439" on="0"/>
        <pt x="481" y="-317" on="0"/>
        <pt x="481" y="-236" on="1"/>
        <pt x="481" y="-181" on="0"/>
        <pt x="544" y="-76" on="0"/>
        <pt x="627" y="0" on="1"/>
        <pt x="100" y="0" on="1"/>
        <pt x="118" y="90" on="1"/>
        <pt x="318" y="146" on="1"/>
        <pt x="510" y="1364" on="1"/>
        <pt x="308" y="1414" on="1"/>
        <pt x="328" y="1506" on="1"/>
        <pt x="956" y="1506" on="1"/>
        <pt x="936" y="1414" on="1"/>
        <pt x="732" y="1368" on="1"/>
        <pt x="538" y="138" on="1"/>
        <pt x="744" y="98" on="1"/>
      </contour>
    </TTGlyph>
    <TTGlyph name="J" xMin="-37" yMin="-394" xMax="941" yMax="1506">
      <contour>
        <pt x="575" y="466" on="1"/>
        <pt x="534" y="209" on="0"/>
        <pt x="474" y="73" on="1"/>
        <pt x="439" y="-7" on="0"/>
        <pt x="360" y="-123" on="0"/>
        <pt x="300" y="-180" on="1"/>
        <pt x="241" y="-236" on="0"/>
        <pt x="111" y="-331" on="0"/>
        <pt x="9" y="-394" on="1"/>
        <pt x="-22" y="-347" on="0"/>
        <pt x="-37" y="-288" on="1"/>
        <pt x="125" y="-148" on="0"/>
        <pt x="292" y="99" on="0"/>
        <pt x="315" y="238" on="1"/>
        <pt x="495" y="1364" on="1"/>
        <pt x="295" y="1414" on="1"/>
        <pt x="313" y="1506" on="1"/>
        <pt x="941" y="1506" on="1"/>
        <pt x="925" y="1414" on="1"/>
        <pt x="721" y="1368" on="1"/>
      </contour>
    </TTGlyph>
    <TTGlyph name="K" xMin="95" yMin="-26" xMax="1649" yMax="1506">
      <contour>
        <pt x="749" y="616" on="1"/>
        <pt x="694" y="706" on="0"/>
        <pt x="669" y="732" on="1"/>
        <pt x="675" y="762" on="1"/>
        <pt x="771" y="835" on="0"/>
        <pt x="821" y="892" on="1"/>
        <pt x="1235" y="1358" on="1"/>
        <pt x="1057" y="1414" on="1"/>
        <pt x="1075" y="1506" on="1"/>
        <pt x="1649" y="1506" on="1"/>
        <pt x="1627" y="1414" on="1"/>
        <pt x="1413" y="1358" on="1"/>
        <pt x="885" y="786" on="1"/>
        <pt x="1095" y="460" on="1"/>
        <pt x="1211" y="282" on="0"/>
        <pt x="1353" y="137" on="0"/>
        <pt x="1451" y="102" on="1"/>
        <pt x="1491" y="88" on="1"/>
        <pt x="1465" y="0" on="1"/>
        <pt x="1389" y="-26" on="0"/>
        <pt x="1313" y="-26" on="1"/>
        <pt x="1174" y="-26" on="0"/>
        <pt x="1071" y="74" on="1"/>
        <pt x="984" y="158" on="0"/>
        <pt x="903" y="316" on="1"/>
      </contour>
      <contour>
        <pt x="545" y="150" on="1"/>
        <pt x="755" y="98" on="1"/>
        <pt x="733" y="0" on="1"/>
        <pt x="95" y="0" on="1"/>
        <pt x="113" y="90" on="1"/>
        <pt x="323" y="156" on="1"/>
        <pt x="511" y="1354" on="1"/>
        <pt x="303" y="1414" on="1"/>
        <pt x="327" y="1506" on="1"/>
        <pt x="961" y="1506" on="1"/>
        <pt x="941" y="1414" on="1"/>
        <pt x="733" y="1358" on="1"/>
      </contour>
    </TTGlyph>
    <TTGlyph name="Kcommaaccent" xMin="95" yMin="-484" xMax="1649" yMax="1506">
      <contour>
        <pt x="749" y="616" on="1"/>
        <pt x="694" y="706" on="0"/>
        <pt x="669" y="732" on="1"/>
        <pt x="675" y="762" on="1"/>
        <pt x="771" y="835" on="0"/>
        <pt x="821" y="892" on="1"/>
        <pt x="1235" y="1358" on="1"/>
        <pt x="1057" y="1414" on="1"/>
        <pt x="1075" y="1506" on="1"/>
        <pt x="1649" y="1506" on="1"/>
        <pt x="1627" y="1414" on="1"/>
        <pt x="1413" y="1358" on="1"/>
        <pt x="885" y="786" on="1"/>
        <pt x="1095" y="460" on="1"/>
        <pt x="1211" y="282" on="0"/>
        <pt x="1353" y="137" on="0"/>
        <pt x="1451" y="102" on="1"/>
        <pt x="1491" y="88" on="1"/>
        <pt x="1465" y="0" on="1"/>
        <pt x="1389" y="-26" on="0"/>
        <pt x="1313" y="-26" on="1"/>
        <pt x="1174" y="-26" on="0"/>
        <pt x="1071" y="74" on="1"/>
        <pt x="984" y="158" on="0"/>
        <pt x="903" y="316" on="1"/>
      </contour>
      <contour>
        <pt x="545" y="150" on="1"/>
        <pt x="755" y="98" on="1"/>
        <pt x="733" y="0" on="1"/>
        <pt x="95" y="0" on="1"/>
        <pt x="113" y="90" on="1"/>
        <pt x="323" y="156" on="1"/>
        <pt x="511" y="1354" on="1"/>
        <pt x="303" y="1414" on="1"/>
        <pt x="327" y="1506" on="1"/>
        <pt x="961" y="1506" on="1"/>
        <pt x="941" y="1414" on="1"/>
        <pt x="733" y="1358" on="1"/>
      </contour>
      <contour>
        <pt x="609" y="-436" on="1"/>
        <pt x="674" y="-418" on="0"/>
        <pt x="757" y="-342" on="0"/>
        <pt x="757" y="-306" on="1"/>
        <pt x="757" y="-273" on="0"/>
        <pt x="720" y="-236" on="0"/>
        <pt x="685" y="-236" on="1"/>
        <pt x="680" y="-236" on="0"/>
        <pt x="665" y="-240" on="1"/>
        <pt x="659" y="-219" on="0"/>
        <pt x="659" y="-202" on="1"/>
        <pt x="659" y="-164" on="0"/>
        <pt x="726" y="-108" on="0"/>
        <pt x="761" y="-108" on="1"/>
        <pt x="865" y="-108" on="0"/>
        <pt x="865" y="-240" on="1"/>
        <pt x="865" y="-298" on="0"/>
        <pt x="814" y="-368" on="1"/>
        <pt x="786" y="-405" on="0"/>
        <pt x="683" y="-467" on="0"/>
        <pt x="617" y="-484" on="1"/>
      </contour>
    </TTGlyph>
    <TTGlyph name="L" xMin="101" yMin="0" xMax="1341" yMax="1506">
      <contour>
        <pt x="959" y="1506" on="1"/>
        <pt x="939" y="1414" on="1"/>
        <pt x="731" y="1358" on="1"/>
        <pt x="535" y="116" on="1"/>
        <pt x="1045" y="116" on="1"/>
        <pt x="1243" y="416" on="1"/>
        <pt x="1341" y="400" on="1"/>
        <pt x="1235" y="0" on="1"/>
        <pt x="101" y="0" on="1"/>
        <pt x="117" y="90" on="1"/>
        <pt x="319" y="146" on="1"/>
        <pt x="509" y="1354" on="1"/>
        <pt x="301" y="1414" on="1"/>
        <pt x="325" y="1506" on="1"/>
      </contour>
    </TTGlyph>
    <TTGlyph name="Lacute" xMin="101" yMin="0" xMax="1341" yMax="2066">
      <contour>
        <pt x="959" y="1506" on="1"/>
        <pt x="939" y="1414" on="1"/>
        <pt x="731" y="1358" on="1"/>
        <pt x="535" y="116" on="1"/>
        <pt x="1045" y="116" on="1"/>
        <pt x="1243" y="416" on="1"/>
        <pt x="1341" y="400" on="1"/>
        <pt x="1235" y="0" on="1"/>
        <pt x="101" y="0" on="1"/>
        <pt x="117" y="90" on="1"/>
        <pt x="319" y="146" on="1"/>
        <pt x="509" y="1354" on="1"/>
        <pt x="301" y="1414" on="1"/>
        <pt x="325" y="1506" on="1"/>
      </contour>
      <contour>
        <pt x="1007" y="2018" on="1"/>
        <pt x="785" y="1634" on="1"/>
        <pt x="723" y="1672" on="1"/>
        <pt x="871" y="2066" on="1"/>
      </contour>
    </TTGlyph>
    <TTGlyph name="Lcaron" xMin="101" yMin="0" xMax="1385" yMax="1552">
      <contour>
        <pt x="945" y="992" on="1"/>
        <pt x="1058" y="1021" on="0"/>
        <pt x="1199" y="1150" on="0"/>
        <pt x="1199" y="1214" on="1"/>
        <pt x="1199" y="1269" on="0"/>
        <pt x="1136" y="1332" on="0"/>
        <pt x="1077" y="1332" on="1"/>
        <pt x="1071" y="1332" on="0"/>
        <pt x="1041" y="1324" on="1"/>
        <pt x="1033" y="1361" on="0"/>
        <pt x="1033" y="1390" on="1"/>
        <pt x="1033" y="1455" on="0"/>
        <pt x="1147" y="1552" on="0"/>
        <pt x="1206" y="1552" on="1"/>
        <pt x="1276" y="1552" on="0"/>
        <pt x="1327" y="1509" on="1"/>
        <pt x="1385" y="1457" on="0"/>
        <pt x="1385" y="1326" on="1"/>
        <pt x="1385" y="1242" on="0"/>
        <pt x="1330" y="1154" on="1"/>
        <pt x="1262" y="1044" on="0"/>
        <pt x="1130" y="973" on="1"/>
        <pt x="1052" y="932" on="0"/>
        <pt x="959" y="908" on="1"/>
      </contour>
      <contour>
        <pt x="959" y="1506" on="1"/>
        <pt x="939" y="1414" on="1"/>
        <pt x="731" y="1358" on="1"/>
        <pt x="535" y="116" on="1"/>
        <pt x="1045" y="116" on="1"/>
        <pt x="1243" y="416" on="1"/>
        <pt x="1341" y="400" on="1"/>
        <pt x="1235" y="0" on="1"/>
        <pt x="101" y="0" on="1"/>
        <pt x="117" y="90" on="1"/>
        <pt x="319" y="146" on="1"/>
        <pt x="509" y="1354" on="1"/>
        <pt x="301" y="1414" on="1"/>
        <pt x="325" y="1506" on="1"/>
      </contour>
    </TTGlyph>
    <TTGlyph name="Lcommaaccent" xMin="101" yMin="-484" xMax="1341" yMax="1506">
      <contour>
        <pt x="959" y="1506" on="1"/>
        <pt x="939" y="1414" on="1"/>
        <pt x="731" y="1358" on="1"/>
        <pt x="535" y="116" on="1"/>
        <pt x="1045" y="116" on="1"/>
        <pt x="1243" y="416" on="1"/>
        <pt x="1341" y="400" on="1"/>
        <pt x="1235" y="0" on="1"/>
        <pt x="101" y="0" on="1"/>
        <pt x="117" y="90" on="1"/>
        <pt x="319" y="146" on="1"/>
        <pt x="509" y="1354" on="1"/>
        <pt x="301" y="1414" on="1"/>
        <pt x="325" y="1506" on="1"/>
      </contour>
      <contour>
        <pt x="501" y="-436" on="1"/>
        <pt x="566" y="-418" on="0"/>
        <pt x="649" y="-342" on="0"/>
        <pt x="649" y="-306" on="1"/>
        <pt x="649" y="-273" on="0"/>
        <pt x="612" y="-236" on="0"/>
        <pt x="577" y="-236" on="1"/>
        <pt x="572" y="-236" on="0"/>
        <pt x="557" y="-240" on="1"/>
        <pt x="551" y="-219" on="0"/>
        <pt x="551" y="-202" on="1"/>
        <pt x="551" y="-164" on="0"/>
        <pt x="618" y="-108" on="0"/>
        <pt x="653" y="-108" on="1"/>
        <pt x="757" y="-108" on="0"/>
        <pt x="757" y="-240" on="1"/>
        <pt x="757" y="-298" on="0"/>
        <pt x="706" y="-368" on="1"/>
        <pt x="678" y="-405" on="0"/>
        <pt x="575" y="-467" on="0"/>
        <pt x="509" y="-484" on="1"/>
      </contour>
    </TTGlyph>
    <TTGlyph name="Lslash" xMin="101" yMin="0" xMax="1341" yMax="1506">
      <contour>
        <pt x="959" y="1506" on="1"/>
        <pt x="939" y="1414" on="1"/>
        <pt x="731" y="1358" on="1"/>
        <pt x="662" y="922" on="1"/>
        <pt x="927" y="1018" on="1"/>
        <pt x="950" y="897" on="1"/>
        <pt x="641" y="785" on="1"/>
        <pt x="535" y="116" on="1"/>
        <pt x="1045" y="116" on="1"/>
        <pt x="1243" y="416" on="1"/>
        <pt x="1341" y="400" on="1"/>
        <pt x="1235" y="0" on="1"/>
        <pt x="101" y="0" on="1"/>
        <pt x="117" y="90" on="1"/>
        <pt x="319" y="146" on="1"/>
        <pt x="406" y="701" on="1"/>
        <pt x="226" y="636" on="1"/>
        <pt x="203" y="756" on="1"/>
        <pt x="428" y="837" on="1"/>
        <pt x="509" y="1354" on="1"/>
        <pt x="301" y="1414" on="1"/>
        <pt x="325" y="1506" on="1"/>
      </contour>
    </TTGlyph>
    <TTGlyph name="M" xMin="51" yMin="0" xMax="2107" yMax="1506">
      <contour>
        <pt x="877" y="38" on="1"/>
        <pt x="657" y="1170" on="1"/>
        <pt x="421" y="138" on="1"/>
        <pt x="631" y="98" on="1"/>
        <pt x="605" y="0" on="1"/>
        <pt x="51" y="0" on="1"/>
        <pt x="73" y="90" on="1"/>
        <pt x="273" y="146" on="1"/>
        <pt x="549" y="1364" on="1"/>
        <pt x="345" y="1414" on="1"/>
        <pt x="367" y="1506" on="1"/>
        <pt x="829" y="1506" on="1"/>
        <pt x="881" y="1272" on="1"/>
        <pt x="1041" y="374" on="1"/>
        <pt x="1547" y="1312" on="1"/>
        <pt x="1651" y="1506" on="1"/>
        <pt x="2107" y="1506" on="1"/>
        <pt x="2087" y="1414" on="1"/>
        <pt x="1885" y="1368" on="1"/>
        <pt x="1753" y="138" on="1"/>
        <pt x="1957" y="98" on="1"/>
        <pt x="1935" y="0" on="1"/>
        <pt x="1319" y="0" on="1"/>
        <pt x="1341" y="90" on="1"/>
        <pt x="1539" y="146" on="1"/>
        <pt x="1643" y="1216" on="1"/>
        <pt x="1021" y="62" on="1"/>
      </contour>
    </TTGlyph>
    <TTGlyph name="N" xMin="101" yMin="-36" xMax="1815" yMax="1506">
      <contour>
        <pt x="1201" y="-36" on="1"/>
        <pt x="625" y="1164" on="1"/>
        <pt x="463" y="138" on="1"/>
        <pt x="671" y="98" on="1"/>
        <pt x="649" y="0" on="1"/>
        <pt x="101" y="0" on="1"/>
        <pt x="119" y="90" on="1"/>
        <pt x="319" y="146" on="1"/>
        <pt x="509" y="1354" on="1"/>
        <pt x="309" y="1414" on="1"/>
        <pt x="329" y="1506" on="1"/>
        <pt x="733" y="1506" on="1"/>
        <pt x="1289" y="330" on="1"/>
        <pt x="1451" y="1364" on="1"/>
        <pt x="1245" y="1414" on="1"/>
        <pt x="1267" y="1506" on="1"/>
        <pt x="1815" y="1506" on="1"/>
        <pt x="1793" y="1414" on="1"/>
        <pt x="1593" y="1368" on="1"/>
        <pt x="1377" y="0" on="1"/>
      </contour>
    </TTGlyph>
    <TTGlyph name="Nacute" xMin="101" yMin="-36" xMax="1815" yMax="2066">
      <contour>
        <pt x="1201" y="-36" on="1"/>
        <pt x="625" y="1164" on="1"/>
        <pt x="463" y="138" on="1"/>
        <pt x="671" y="98" on="1"/>
        <pt x="649" y="0" on="1"/>
        <pt x="101" y="0" on="1"/>
        <pt x="119" y="90" on="1"/>
        <pt x="319" y="146" on="1"/>
        <pt x="509" y="1354" on="1"/>
        <pt x="309" y="1414" on="1"/>
        <pt x="329" y="1506" on="1"/>
        <pt x="733" y="1506" on="1"/>
        <pt x="1289" y="330" on="1"/>
        <pt x="1451" y="1364" on="1"/>
        <pt x="1245" y="1414" on="1"/>
        <pt x="1267" y="1506" on="1"/>
        <pt x="1815" y="1506" on="1"/>
        <pt x="1793" y="1414" on="1"/>
        <pt x="1593" y="1368" on="1"/>
        <pt x="1377" y="0" on="1"/>
      </contour>
      <contour>
        <pt x="1381" y="2018" on="1"/>
        <pt x="1159" y="1634" on="1"/>
        <pt x="1097" y="1672" on="1"/>
        <pt x="1245" y="2066" on="1"/>
      </contour>
    </TTGlyph>
    <TTGlyph name="Ncaron" xMin="101" yMin="-36" xMax="1815" yMax="1918">
      <contour>
        <pt x="1201" y="-36" on="1"/>
        <pt x="625" y="1164" on="1"/>
        <pt x="463" y="138" on="1"/>
        <pt x="671" y="98" on="1"/>
        <pt x="649" y="0" on="1"/>
        <pt x="101" y="0" on="1"/>
        <pt x="119" y="90" on="1"/>
        <pt x="319" y="146" on="1"/>
        <pt x="509" y="1354" on="1"/>
        <pt x="309" y="1414" on="1"/>
        <pt x="329" y="1506" on="1"/>
        <pt x="733" y="1506" on="1"/>
        <pt x="1289" y="330" on="1"/>
        <pt x="1451" y="1364" on="1"/>
        <pt x="1245" y="1414" on="1"/>
        <pt x="1267" y="1506" on="1"/>
        <pt x="1815" y="1506" on="1"/>
        <pt x="1793" y="1414" on="1"/>
        <pt x="1593" y="1368" on="1"/>
        <pt x="1377" y="0" on="1"/>
      </contour>
      <contour>
        <pt x="1041" y="1644" on="1"/>
        <pt x="823" y="1844" on="1"/>
        <pt x="921" y="1918" on="1"/>
        <pt x="1101" y="1744" on="1"/>
        <pt x="1113" y="1744" on="1"/>
        <pt x="1263" y="1914" on="1"/>
        <pt x="1315" y="1878" on="1"/>
        <pt x="1107" y="1660" on="1"/>
      </contour>
    </TTGlyph>
    <TTGlyph name="Ncommaaccent" xMin="101" yMin="-484" xMax="1815" yMax="1506">
      <contour>
        <pt x="1201" y="-36" on="1"/>
        <pt x="625" y="1164" on="1"/>
        <pt x="463" y="138" on="1"/>
        <pt x="671" y="98" on="1"/>
        <pt x="649" y="0" on="1"/>
        <pt x="101" y="0" on="1"/>
        <pt x="119" y="90" on="1"/>
        <pt x="319" y="146" on="1"/>
        <pt x="509" y="1354" on="1"/>
        <pt x="309" y="1414" on="1"/>
        <pt x="329" y="1506" on="1"/>
        <pt x="733" y="1506" on="1"/>
        <pt x="1289" y="330" on="1"/>
        <pt x="1451" y="1364" on="1"/>
        <pt x="1245" y="1414" on="1"/>
        <pt x="1267" y="1506" on="1"/>
        <pt x="1815" y="1506" on="1"/>
        <pt x="1793" y="1414" on="1"/>
        <pt x="1593" y="1368" on="1"/>
        <pt x="1377" y="0" on="1"/>
      </contour>
      <contour>
        <pt x="673" y="-436" on="1"/>
        <pt x="738" y="-418" on="0"/>
        <pt x="821" y="-342" on="0"/>
        <pt x="821" y="-306" on="1"/>
        <pt x="821" y="-273" on="0"/>
        <pt x="784" y="-236" on="0"/>
        <pt x="749" y="-236" on="1"/>
        <pt x="744" y="-236" on="0"/>
        <pt x="729" y="-240" on="1"/>
        <pt x="722" y="-216" on="0"/>
        <pt x="722" y="-202" on="1"/>
        <pt x="722" y="-164" on="0"/>
        <pt x="789" y="-108" on="0"/>
        <pt x="824" y="-108" on="1"/>
        <pt x="872" y="-108" on="0"/>
        <pt x="929" y="-171" on="0"/>
        <pt x="929" y="-240" on="1"/>
        <pt x="929" y="-298" on="0"/>
        <pt x="878" y="-368" on="1"/>
        <pt x="850" y="-405" on="0"/>
        <pt x="747" y="-467" on="0"/>
        <pt x="681" y="-484" on="1"/>
      </contour>
    </TTGlyph>
    <TTGlyph name="Ntilde" xMin="101" yMin="-36" xMax="1815" yMax="1856">
      <contour>
        <pt x="1201" y="-36" on="1"/>
        <pt x="625" y="1164" on="1"/>
        <pt x="463" y="138" on="1"/>
        <pt x="671" y="98" on="1"/>
        <pt x="649" y="0" on="1"/>
        <pt x="101" y="0" on="1"/>
        <pt x="119" y="90" on="1"/>
        <pt x="319" y="146" on="1"/>
        <pt x="509" y="1354" on="1"/>
        <pt x="309" y="1414" on="1"/>
        <pt x="329" y="1506" on="1"/>
        <pt x="733" y="1506" on="1"/>
        <pt x="1289" y="330" on="1"/>
        <pt x="1451" y="1364" on="1"/>
        <pt x="1245" y="1414" on="1"/>
        <pt x="1267" y="1506" on="1"/>
        <pt x="1815" y="1506" on="1"/>
        <pt x="1793" y="1414" on="1"/>
        <pt x="1593" y="1368" on="1"/>
        <pt x="1377" y="0" on="1"/>
      </contour>
      <contour>
        <pt x="787" y="1670" on="1"/>
        <pt x="789" y="1676" on="0"/>
        <pt x="790" y="1680" on="1"/>
        <pt x="796" y="1704" on="0"/>
        <pt x="812" y="1739" on="1"/>
        <pt x="832" y="1783" on="0"/>
        <pt x="859" y="1810" on="1"/>
        <pt x="893" y="1844" on="0"/>
        <pt x="935" y="1844" on="1"/>
        <pt x="940" y="1844" on="0"/>
        <pt x="946" y="1842" on="0"/>
        <pt x="951" y="1842" on="1"/>
        <pt x="1221" y="1806" on="1"/>
        <pt x="1225" y="1806" on="1"/>
        <pt x="1238" y="1806" on="0"/>
        <pt x="1272" y="1830" on="0"/>
        <pt x="1283" y="1844" on="1"/>
        <pt x="1293" y="1856" on="1"/>
        <pt x="1351" y="1854" on="1"/>
        <pt x="1350" y="1851" on="0"/>
        <pt x="1347" y="1838" on="0"/>
        <pt x="1346" y="1835" on="1"/>
        <pt x="1330" y="1785" on="0"/>
        <pt x="1298" y="1741" on="1"/>
        <pt x="1253" y="1680" on="0"/>
        <pt x="1193" y="1680" on="1"/>
        <pt x="1179" y="1680" on="1"/>
        <pt x="909" y="1718" on="1"/>
        <pt x="905" y="1718" on="1"/>
        <pt x="890" y="1718" on="0"/>
        <pt x="854" y="1690" on="0"/>
        <pt x="843" y="1674" on="1"/>
        <pt x="833" y="1660" on="1"/>
      </contour>
    </TTGlyph>
    <TTGlyph name="O" xMin="212" yMin="-32" xMax="1648" yMax="1542">
      <contour>
        <pt x="1305" y="1247" on="1"/>
        <pt x="1261" y="1330" on="0"/>
        <pt x="1113" y="1424" on="0"/>
        <pt x="1020" y="1424" on="1"/>
        <pt x="924" y="1424" on="0"/>
        <pt x="759" y="1368" on="0"/>
        <pt x="702" y="1320" on="1"/>
        <pt x="595" y="1229" on="0"/>
        <pt x="539" y="1070" on="1"/>
        <pt x="492" y="935" on="0"/>
        <pt x="481" y="774" on="1"/>
        <pt x="476" y="701" on="0"/>
        <pt x="476" y="638" on="1"/>
        <pt x="476" y="416" on="0"/>
        <pt x="561" y="262" on="1"/>
        <pt x="604" y="183" on="0"/>
        <pt x="750" y="96" on="0"/>
        <pt x="844" y="96" on="1"/>
        <pt x="1036" y="96" on="0"/>
        <pt x="1160" y="200" on="1"/>
        <pt x="1267" y="290" on="0"/>
        <pt x="1325" y="447" on="1"/>
        <pt x="1372" y="580" on="0"/>
        <pt x="1385" y="735" on="1"/>
        <pt x="1390" y="807" on="0"/>
        <pt x="1390" y="864" on="1"/>
        <pt x="1390" y="1083" on="0"/>
      </contour>
      <contour>
        <pt x="1507" y="1348" on="1"/>
        <pt x="1648" y="1162" on="0"/>
        <pt x="1648" y="882" on="1"/>
        <pt x="1648" y="581" on="0"/>
        <pt x="1494" y="352" on="1"/>
        <pt x="1332" y="109" on="0"/>
        <pt x="1066" y="17" on="1"/>
        <pt x="926" y="-32" on="0"/>
        <pt x="766" y="-32" on="1"/>
        <pt x="600" y="-32" on="0"/>
        <pt x="344" y="137" on="0"/>
        <pt x="278" y="284" on="1"/>
        <pt x="212" y="430" on="0"/>
        <pt x="212" y="612" on="1"/>
        <pt x="212" y="808" on="0"/>
        <pt x="340" y="1152" on="0"/>
        <pt x="456" y="1277" on="1"/>
        <pt x="573" y="1402" on="0"/>
        <pt x="904" y="1542" on="0"/>
        <pt x="1094" y="1542" on="1"/>
        <pt x="1224" y="1542" on="0"/>
        <pt x="1437" y="1440" on="0"/>
      </contour>
    </TTGlyph>
    <TTGlyph name="OE" xMin="211" yMin="-32" xMax="2068" yMax="1542">
      <contour>
        <pt x="979" y="112" on="1"/>
        <pt x="1184" y="1379" on="1"/>
        <pt x="1111" y="1424" on="0"/>
        <pt x="1019" y="1424" on="1"/>
        <pt x="923" y="1424" on="0"/>
        <pt x="758" y="1368" on="0"/>
        <pt x="701" y="1320" on="1"/>
        <pt x="594" y="1229" on="0"/>
        <pt x="538" y="1070" on="1"/>
        <pt x="491" y="935" on="0"/>
        <pt x="480" y="774" on="1"/>
        <pt x="475" y="701" on="0"/>
        <pt x="475" y="638" on="1"/>
        <pt x="475" y="416" on="0"/>
        <pt x="560" y="262" on="1"/>
        <pt x="603" y="183" on="0"/>
        <pt x="749" y="96" on="0"/>
        <pt x="843" y="96" on="1"/>
        <pt x="912" y="96" on="0"/>
      </contour>
      <contour>
        <pt x="2068" y="1506" on="1"/>
        <pt x="1972" y="1120" on="1"/>
        <pt x="1874" y="1136" on="1"/>
        <pt x="1868" y="1396" on="1"/>
        <pt x="1409" y="1396" on="1"/>
        <pt x="1319" y="820" on="1"/>
        <pt x="1568" y="820" on="1"/>
        <pt x="1642" y="964" on="1"/>
        <pt x="1752" y="980" on="1"/>
        <pt x="1640" y="510" on="1"/>
        <pt x="1538" y="494" on="1"/>
        <pt x="1532" y="706" on="1"/>
        <pt x="1301" y="706" on="1"/>
        <pt x="1207" y="116" on="1"/>
        <pt x="1694" y="116" on="1"/>
        <pt x="1852" y="394" on="1"/>
        <pt x="1946" y="380" on="1"/>
        <pt x="1850" y="0" on="1"/>
        <pt x="1011" y="0" on="1"/>
        <pt x="892" y="-32" on="0"/>
        <pt x="765" y="-32" on="1"/>
        <pt x="599" y="-32" on="0"/>
        <pt x="343" y="137" on="0"/>
        <pt x="277" y="284" on="1"/>
        <pt x="211" y="430" on="0"/>
        <pt x="211" y="612" on="1"/>
        <pt x="211" y="808" on="0"/>
        <pt x="339" y="1152" on="0"/>
        <pt x="455" y="1277" on="1"/>
        <pt x="572" y="1402" on="0"/>
        <pt x="903" y="1542" on="0"/>
        <pt x="1093" y="1542" on="1"/>
        <pt x="1201" y="1542" on="0"/>
        <pt x="1294" y="1506" on="1"/>
      </contour>
    </TTGlyph>
    <TTGlyph name="Oacute" xMin="212" yMin="-32" xMax="1648" yMax="2070">
      <contour>
        <pt x="1305" y="1247" on="1"/>
        <pt x="1261" y="1330" on="0"/>
        <pt x="1113" y="1424" on="0"/>
        <pt x="1020" y="1424" on="1"/>
        <pt x="924" y="1424" on="0"/>
        <pt x="759" y="1368" on="0"/>
        <pt x="702" y="1320" on="1"/>
        <pt x="649" y="1275" on="0"/>
        <pt x="564" y="1142" on="0"/>
        <pt x="539" y="1071" on="1"/>
        <pt x="492" y="938" on="0"/>
        <pt x="481" y="776" on="1"/>
        <pt x="476" y="703" on="0"/>
        <pt x="476" y="640" on="1"/>
        <pt x="476" y="459" on="0"/>
        <pt x="530" y="327" on="1"/>
        <pt x="590" y="179" on="0"/>
        <pt x="705" y="126" on="1"/>
        <pt x="766" y="96" on="0"/>
        <pt x="844" y="96" on="1"/>
        <pt x="1036" y="96" on="0"/>
        <pt x="1160" y="200" on="1"/>
        <pt x="1267" y="290" on="0"/>
        <pt x="1325" y="447" on="1"/>
        <pt x="1372" y="580" on="0"/>
        <pt x="1385" y="735" on="1"/>
        <pt x="1390" y="807" on="0"/>
        <pt x="1390" y="864" on="1"/>
        <pt x="1390" y="1083" on="0"/>
      </contour>
      <contour>
        <pt x="1507" y="1348" on="1"/>
        <pt x="1648" y="1162" on="0"/>
        <pt x="1648" y="882" on="1"/>
        <pt x="1648" y="581" on="0"/>
        <pt x="1494" y="352" on="1"/>
        <pt x="1332" y="109" on="0"/>
        <pt x="1066" y="17" on="1"/>
        <pt x="926" y="-32" on="0"/>
        <pt x="766" y="-32" on="1"/>
        <pt x="600" y="-32" on="0"/>
        <pt x="344" y="137" on="0"/>
        <pt x="278" y="284" on="1"/>
        <pt x="212" y="430" on="0"/>
        <pt x="212" y="612" on="1"/>
        <pt x="212" y="808" on="0"/>
        <pt x="340" y="1152" on="0"/>
        <pt x="456" y="1277" on="1"/>
        <pt x="573" y="1402" on="0"/>
        <pt x="904" y="1542" on="0"/>
        <pt x="1094" y="1542" on="1"/>
        <pt x="1224" y="1542" on="0"/>
        <pt x="1437" y="1440" on="0"/>
      </contour>
      <contour>
        <pt x="1418" y="2022" on="1"/>
        <pt x="1196" y="1638" on="1"/>
        <pt x="1134" y="1676" on="1"/>
        <pt x="1282" y="2070" on="1"/>
      </contour>
    </TTGlyph>
    <TTGlyph name="Ocaron" xMin="212" yMin="-32" xMax="1648" yMax="1918">
      <contour>
        <pt x="1305" y="1247" on="1"/>
        <pt x="1261" y="1330" on="0"/>
        <pt x="1113" y="1424" on="0"/>
        <pt x="1020" y="1424" on="1"/>
        <pt x="924" y="1424" on="0"/>
        <pt x="759" y="1368" on="0"/>
        <pt x="702" y="1320" on="1"/>
        <pt x="595" y="1229" on="0"/>
        <pt x="539" y="1070" on="1"/>
        <pt x="492" y="935" on="0"/>
        <pt x="481" y="774" on="1"/>
        <pt x="476" y="701" on="0"/>
        <pt x="476" y="638" on="1"/>
        <pt x="476" y="416" on="0"/>
        <pt x="561" y="262" on="1"/>
        <pt x="604" y="183" on="0"/>
        <pt x="750" y="96" on="0"/>
        <pt x="844" y="96" on="1"/>
        <pt x="1036" y="96" on="0"/>
        <pt x="1160" y="200" on="1"/>
        <pt x="1267" y="290" on="0"/>
        <pt x="1325" y="447" on="1"/>
        <pt x="1372" y="580" on="0"/>
        <pt x="1385" y="735" on="1"/>
        <pt x="1390" y="807" on="0"/>
        <pt x="1390" y="864" on="1"/>
        <pt x="1390" y="1083" on="0"/>
      </contour>
      <contour>
        <pt x="1507" y="1348" on="1"/>
        <pt x="1648" y="1162" on="0"/>
        <pt x="1648" y="882" on="1"/>
        <pt x="1648" y="581" on="0"/>
        <pt x="1494" y="352" on="1"/>
        <pt x="1332" y="109" on="0"/>
        <pt x="1066" y="17" on="1"/>
        <pt x="926" y="-32" on="0"/>
        <pt x="766" y="-32" on="1"/>
        <pt x="600" y="-32" on="0"/>
        <pt x="344" y="137" on="0"/>
        <pt x="278" y="284" on="1"/>
        <pt x="212" y="430" on="0"/>
        <pt x="212" y="612" on="1"/>
        <pt x="212" y="808" on="0"/>
        <pt x="340" y="1152" on="0"/>
        <pt x="456" y="1277" on="1"/>
        <pt x="573" y="1402" on="0"/>
        <pt x="904" y="1542" on="0"/>
        <pt x="1094" y="1542" on="1"/>
        <pt x="1224" y="1542" on="0"/>
        <pt x="1437" y="1440" on="0"/>
      </contour>
      <contour>
        <pt x="1083" y="1644" on="1"/>
        <pt x="865" y="1844" on="1"/>
        <pt x="963" y="1918" on="1"/>
        <pt x="1143" y="1744" on="1"/>
        <pt x="1155" y="1744" on="1"/>
        <pt x="1305" y="1914" on="1"/>
        <pt x="1357" y="1878" on="1"/>
        <pt x="1149" y="1660" on="1"/>
      </contour>
    </TTGlyph>
    <TTGlyph name="Ocircumflex" xMin="212" yMin="-32" xMax="1648" yMax="1918">
      <contour>
        <pt x="1305" y="1247" on="1"/>
        <pt x="1261" y="1330" on="0"/>
        <pt x="1113" y="1424" on="0"/>
        <pt x="1020" y="1424" on="1"/>
        <pt x="924" y="1424" on="0"/>
        <pt x="759" y="1368" on="0"/>
        <pt x="702" y="1320" on="1"/>
        <pt x="649" y="1275" on="0"/>
        <pt x="564" y="1142" on="0"/>
        <pt x="539" y="1071" on="1"/>
        <pt x="492" y="938" on="0"/>
        <pt x="481" y="776" on="1"/>
        <pt x="476" y="703" on="0"/>
        <pt x="476" y="640" on="1"/>
        <pt x="476" y="459" on="0"/>
        <pt x="530" y="327" on="1"/>
        <pt x="590" y="179" on="0"/>
        <pt x="705" y="126" on="1"/>
        <pt x="766" y="96" on="0"/>
        <pt x="844" y="96" on="1"/>
        <pt x="1036" y="96" on="0"/>
        <pt x="1160" y="200" on="1"/>
        <pt x="1267" y="290" on="0"/>
        <pt x="1325" y="447" on="1"/>
        <pt x="1372" y="580" on="0"/>
        <pt x="1385" y="735" on="1"/>
        <pt x="1390" y="807" on="0"/>
        <pt x="1390" y="864" on="1"/>
        <pt x="1390" y="1083" on="0"/>
      </contour>
      <contour>
        <pt x="1507" y="1348" on="1"/>
        <pt x="1648" y="1162" on="0"/>
        <pt x="1648" y="882" on="1"/>
        <pt x="1648" y="581" on="0"/>
        <pt x="1494" y="352" on="1"/>
        <pt x="1332" y="109" on="0"/>
        <pt x="1066" y="17" on="1"/>
        <pt x="926" y="-32" on="0"/>
        <pt x="766" y="-32" on="1"/>
        <pt x="600" y="-32" on="0"/>
        <pt x="344" y="137" on="0"/>
        <pt x="278" y="284" on="1"/>
        <pt x="212" y="430" on="0"/>
        <pt x="212" y="612" on="1"/>
        <pt x="212" y="808" on="0"/>
        <pt x="340" y="1152" on="0"/>
        <pt x="456" y="1277" on="1"/>
        <pt x="573" y="1402" on="0"/>
        <pt x="904" y="1542" on="0"/>
        <pt x="1094" y="1542" on="1"/>
        <pt x="1224" y="1542" on="0"/>
        <pt x="1437" y="1440" on="0"/>
      </contour>
      <contour>
        <pt x="1132" y="1918" on="1"/>
        <pt x="1348" y="1694" on="1"/>
        <pt x="1288" y="1650" on="1"/>
        <pt x="1090" y="1782" on="1"/>
        <pt x="1078" y="1782" on="1"/>
        <pt x="908" y="1648" on="1"/>
        <pt x="862" y="1684" on="1"/>
        <pt x="1066" y="1902" on="1"/>
      </contour>
    </TTGlyph>
    <TTGlyph name="Odieresis" xMin="212" yMin="-32" xMax="1648" yMax="1872">
      <contour>
        <pt x="1305" y="1247" on="1"/>
        <pt x="1261" y="1330" on="0"/>
        <pt x="1113" y="1424" on="0"/>
        <pt x="1020" y="1424" on="1"/>
        <pt x="924" y="1424" on="0"/>
        <pt x="759" y="1368" on="0"/>
        <pt x="702" y="1320" on="1"/>
        <pt x="649" y="1275" on="0"/>
        <pt x="564" y="1142" on="0"/>
        <pt x="539" y="1071" on="1"/>
        <pt x="492" y="938" on="0"/>
        <pt x="481" y="776" on="1"/>
        <pt x="476" y="703" on="0"/>
        <pt x="476" y="640" on="1"/>
        <pt x="476" y="459" on="0"/>
        <pt x="530" y="327" on="1"/>
        <pt x="590" y="179" on="0"/>
        <pt x="705" y="126" on="1"/>
        <pt x="766" y="96" on="0"/>
        <pt x="844" y="96" on="1"/>
        <pt x="1036" y="96" on="0"/>
        <pt x="1160" y="200" on="1"/>
        <pt x="1267" y="290" on="0"/>
        <pt x="1325" y="447" on="1"/>
        <pt x="1372" y="580" on="0"/>
        <pt x="1385" y="735" on="1"/>
        <pt x="1390" y="807" on="0"/>
        <pt x="1390" y="864" on="1"/>
        <pt x="1390" y="1083" on="0"/>
      </contour>
      <contour>
        <pt x="1507" y="1348" on="1"/>
        <pt x="1648" y="1162" on="0"/>
        <pt x="1648" y="882" on="1"/>
        <pt x="1648" y="581" on="0"/>
        <pt x="1494" y="352" on="1"/>
        <pt x="1332" y="109" on="0"/>
        <pt x="1066" y="17" on="1"/>
        <pt x="926" y="-32" on="0"/>
        <pt x="766" y="-32" on="1"/>
        <pt x="600" y="-32" on="0"/>
        <pt x="344" y="137" on="0"/>
        <pt x="278" y="284" on="1"/>
        <pt x="212" y="430" on="0"/>
        <pt x="212" y="612" on="1"/>
        <pt x="212" y="808" on="0"/>
        <pt x="340" y="1152" on="0"/>
        <pt x="456" y="1277" on="1"/>
        <pt x="573" y="1402" on="0"/>
        <pt x="904" y="1542" on="0"/>
        <pt x="1094" y="1542" on="1"/>
        <pt x="1224" y="1542" on="0"/>
        <pt x="1437" y="1440" on="0"/>
      </contour>
      <contour>
        <pt x="1372" y="1778" on="1"/>
        <pt x="1372" y="1736" on="0"/>
        <pt x="1309" y="1680" on="0"/>
        <pt x="1266" y="1680" on="1"/>
        <pt x="1224" y="1680" on="0"/>
        <pt x="1164" y="1736" on="0"/>
        <pt x="1164" y="1778" on="1"/>
        <pt x="1164" y="1819" on="0"/>
        <pt x="1225" y="1872" on="0"/>
        <pt x="1266" y="1872" on="1"/>
        <pt x="1309" y="1872" on="0"/>
        <pt x="1372" y="1818" on="0"/>
      </contour>
      <contour>
        <pt x="1046" y="1778" on="1"/>
        <pt x="1046" y="1736" on="0"/>
        <pt x="985" y="1680" on="0"/>
        <pt x="942" y="1680" on="1"/>
        <pt x="900" y="1680" on="0"/>
        <pt x="840" y="1736" on="0"/>
        <pt x="840" y="1778" on="1"/>
        <pt x="840" y="1819" on="0"/>
        <pt x="901" y="1872" on="0"/>
        <pt x="942" y="1872" on="1"/>
        <pt x="985" y="1872" on="0"/>
        <pt x="1046" y="1818" on="0"/>
      </contour>
    </TTGlyph>
    <TTGlyph name="Ograve" xMin="212" yMin="-32" xMax="1648" yMax="2060">
      <contour>
        <pt x="1305" y="1247" on="1"/>
        <pt x="1261" y="1330" on="0"/>
        <pt x="1113" y="1424" on="0"/>
        <pt x="1020" y="1424" on="1"/>
        <pt x="924" y="1424" on="0"/>
        <pt x="759" y="1368" on="0"/>
        <pt x="702" y="1320" on="1"/>
        <pt x="649" y="1275" on="0"/>
        <pt x="564" y="1142" on="0"/>
        <pt x="539" y="1071" on="1"/>
        <pt x="492" y="938" on="0"/>
        <pt x="481" y="776" on="1"/>
        <pt x="476" y="703" on="0"/>
        <pt x="476" y="640" on="1"/>
        <pt x="476" y="459" on="0"/>
        <pt x="530" y="327" on="1"/>
        <pt x="590" y="179" on="0"/>
        <pt x="705" y="126" on="1"/>
        <pt x="766" y="96" on="0"/>
        <pt x="844" y="96" on="1"/>
        <pt x="1036" y="96" on="0"/>
        <pt x="1160" y="200" on="1"/>
        <pt x="1267" y="290" on="0"/>
        <pt x="1325" y="447" on="1"/>
        <pt x="1372" y="580" on="0"/>
        <pt x="1385" y="735" on="1"/>
        <pt x="1390" y="807" on="0"/>
        <pt x="1390" y="864" on="1"/>
        <pt x="1390" y="1083" on="0"/>
      </contour>
      <contour>
        <pt x="1507" y="1348" on="1"/>
        <pt x="1648" y="1162" on="0"/>
        <pt x="1648" y="882" on="1"/>
        <pt x="1648" y="581" on="0"/>
        <pt x="1494" y="352" on="1"/>
        <pt x="1332" y="109" on="0"/>
        <pt x="1066" y="17" on="1"/>
        <pt x="926" y="-32" on="0"/>
        <pt x="766" y="-32" on="1"/>
        <pt x="600" y="-32" on="0"/>
        <pt x="344" y="137" on="0"/>
        <pt x="278" y="284" on="1"/>
        <pt x="212" y="430" on="0"/>
        <pt x="212" y="612" on="1"/>
        <pt x="212" y="808" on="0"/>
        <pt x="340" y="1152" on="0"/>
        <pt x="456" y="1277" on="1"/>
        <pt x="573" y="1402" on="0"/>
        <pt x="904" y="1542" on="0"/>
        <pt x="1094" y="1542" on="1"/>
        <pt x="1224" y="1542" on="0"/>
        <pt x="1437" y="1440" on="0"/>
      </contour>
      <contour>
        <pt x="956" y="2014" on="1"/>
        <pt x="1096" y="2060" on="1"/>
        <pt x="1256" y="1656" on="1"/>
        <pt x="1186" y="1614" on="1"/>
      </contour>
    </TTGlyph>
    <TTGlyph name="Ohungarumlaut" xMin="212" yMin="-32" xMax="1648" yMax="1962">
      <contour>
        <pt x="1305" y="1247" on="1"/>
        <pt x="1261" y="1330" on="0"/>
        <pt x="1113" y="1424" on="0"/>
        <pt x="1020" y="1424" on="1"/>
        <pt x="924" y="1424" on="0"/>
        <pt x="759" y="1368" on="0"/>
        <pt x="702" y="1320" on="1"/>
        <pt x="595" y="1229" on="0"/>
        <pt x="539" y="1070" on="1"/>
        <pt x="492" y="935" on="0"/>
        <pt x="481" y="774" on="1"/>
        <pt x="476" y="701" on="0"/>
        <pt x="476" y="638" on="1"/>
        <pt x="476" y="416" on="0"/>
        <pt x="561" y="262" on="1"/>
        <pt x="604" y="183" on="0"/>
        <pt x="750" y="96" on="0"/>
        <pt x="844" y="96" on="1"/>
        <pt x="1036" y="96" on="0"/>
        <pt x="1160" y="200" on="1"/>
        <pt x="1267" y="290" on="0"/>
        <pt x="1325" y="447" on="1"/>
        <pt x="1372" y="580" on="0"/>
        <pt x="1385" y="735" on="1"/>
        <pt x="1390" y="807" on="0"/>
        <pt x="1390" y="864" on="1"/>
        <pt x="1390" y="1083" on="0"/>
      </contour>
      <contour>
        <pt x="1507" y="1348" on="1"/>
        <pt x="1648" y="1162" on="0"/>
        <pt x="1648" y="882" on="1"/>
        <pt x="1648" y="581" on="0"/>
        <pt x="1494" y="352" on="1"/>
        <pt x="1332" y="109" on="0"/>
        <pt x="1066" y="17" on="1"/>
        <pt x="926" y="-32" on="0"/>
        <pt x="766" y="-32" on="1"/>
        <pt x="600" y="-32" on="0"/>
        <pt x="344" y="137" on="0"/>
        <pt x="278" y="284" on="1"/>
        <pt x="212" y="430" on="0"/>
        <pt x="212" y="612" on="1"/>
        <pt x="212" y="808" on="0"/>
        <pt x="340" y="1152" on="0"/>
        <pt x="456" y="1277" on="1"/>
        <pt x="573" y="1402" on="0"/>
        <pt x="904" y="1542" on="0"/>
        <pt x="1094" y="1542" on="1"/>
        <pt x="1224" y="1542" on="0"/>
        <pt x="1437" y="1440" on="0"/>
      </contour>
      <contour>
        <pt x="1594" y="1852" on="1"/>
        <pt x="1242" y="1650" on="1"/>
        <pt x="1208" y="1710" on="1"/>
        <pt x="1506" y="1952" on="1"/>
      </contour>
      <contour>
        <pt x="1350" y="1858" on="1"/>
        <pt x="986" y="1650" on="1"/>
        <pt x="952" y="1710" on="1"/>
        <pt x="1260" y="1962" on="1"/>
      </contour>
    </TTGlyph>
    <TTGlyph name="Omacron" xMin="212" yMin="-32" xMax="1648" yMax="1796">
      <contour>
        <pt x="1305" y="1247" on="1"/>
        <pt x="1261" y="1330" on="0"/>
        <pt x="1113" y="1424" on="0"/>
        <pt x="1020" y="1424" on="1"/>
        <pt x="924" y="1424" on="0"/>
        <pt x="759" y="1368" on="0"/>
        <pt x="702" y="1320" on="1"/>
        <pt x="595" y="1229" on="0"/>
        <pt x="539" y="1070" on="1"/>
        <pt x="492" y="935" on="0"/>
        <pt x="481" y="774" on="1"/>
        <pt x="476" y="701" on="0"/>
        <pt x="476" y="638" on="1"/>
        <pt x="476" y="416" on="0"/>
        <pt x="561" y="262" on="1"/>
        <pt x="604" y="183" on="0"/>
        <pt x="750" y="96" on="0"/>
        <pt x="844" y="96" on="1"/>
        <pt x="1036" y="96" on="0"/>
        <pt x="1160" y="200" on="1"/>
        <pt x="1267" y="290" on="0"/>
        <pt x="1325" y="447" on="1"/>
        <pt x="1372" y="580" on="0"/>
        <pt x="1385" y="735" on="1"/>
        <pt x="1390" y="807" on="0"/>
        <pt x="1390" y="864" on="1"/>
        <pt x="1390" y="1083" on="0"/>
      </contour>
      <contour>
        <pt x="1507" y="1348" on="1"/>
        <pt x="1648" y="1162" on="0"/>
        <pt x="1648" y="882" on="1"/>
        <pt x="1648" y="581" on="0"/>
        <pt x="1494" y="352" on="1"/>
        <pt x="1332" y="109" on="0"/>
        <pt x="1066" y="17" on="1"/>
        <pt x="926" y="-32" on="0"/>
        <pt x="766" y="-32" on="1"/>
        <pt x="600" y="-32" on="0"/>
        <pt x="344" y="137" on="0"/>
        <pt x="278" y="284" on="1"/>
        <pt x="212" y="430" on="0"/>
        <pt x="212" y="612" on="1"/>
        <pt x="212" y="808" on="0"/>
        <pt x="340" y="1152" on="0"/>
        <pt x="456" y="1277" on="1"/>
        <pt x="573" y="1402" on="0"/>
        <pt x="904" y="1542" on="0"/>
        <pt x="1094" y="1542" on="1"/>
        <pt x="1224" y="1542" on="0"/>
        <pt x="1437" y="1440" on="0"/>
      </contour>
      <contour>
        <pt x="846" y="1796" on="1"/>
        <pt x="1380" y="1796" on="1"/>
        <pt x="1364" y="1674" on="1"/>
        <pt x="830" y="1674" on="1"/>
      </contour>
    </TTGlyph>
    <TTGlyph name="Oslash" xMin="212" yMin="-100" xMax="1648" yMax="1568">
      <contour>
        <pt x="570" y="247" on="1"/>
        <pt x="1266" y="1306" on="1"/>
        <pt x="1171" y="1424" on="0"/>
        <pt x="1020" y="1424" on="1"/>
        <pt x="924" y="1424" on="0"/>
        <pt x="759" y="1368" on="0"/>
        <pt x="702" y="1320" on="1"/>
        <pt x="595" y="1229" on="0"/>
        <pt x="539" y="1070" on="1"/>
        <pt x="492" y="935" on="0"/>
        <pt x="481" y="774" on="1"/>
        <pt x="476" y="701" on="0"/>
        <pt x="476" y="638" on="1"/>
        <pt x="476" y="416" on="0"/>
        <pt x="561" y="262" on="1"/>
      </contour>
      <contour>
        <pt x="1313" y="1232" on="1"/>
        <pt x="620" y="183" on="1"/>
        <pt x="624" y="179" on="0"/>
        <pt x="624" y="176" on="1"/>
        <pt x="624" y="163" on="0"/>
        <pt x="520" y="136" on="0"/>
        <pt x="417" y="115" on="0"/>
        <pt x="417" y="110" on="1"/>
        <pt x="417" y="96" on="0"/>
        <pt x="844" y="96" on="1"/>
        <pt x="1036" y="96" on="0"/>
        <pt x="1160" y="200" on="1"/>
        <pt x="1267" y="290" on="0"/>
        <pt x="1325" y="447" on="1"/>
        <pt x="1372" y="580" on="0"/>
        <pt x="1385" y="735" on="1"/>
        <pt x="1390" y="807" on="0"/>
        <pt x="1390" y="864" on="1"/>
        <pt x="1390" y="1073" on="0"/>
      </contour>
      <contour>
        <pt x="1507" y="1348" on="1"/>
        <pt x="1648" y="1162" on="0"/>
        <pt x="1648" y="882" on="1"/>
        <pt x="1648" y="581" on="0"/>
        <pt x="1494" y="352" on="1"/>
        <pt x="1332" y="109" on="0"/>
        <pt x="1066" y="17" on="1"/>
        <pt x="926" y="-32" on="0"/>
        <pt x="766" y="-32" on="1"/>
        <pt x="642" y="-32" on="0"/>
        <pt x="539" y="15" on="1"/>
        <pt x="470" y="-90" on="1"/>
        <pt x="311" y="-100" on="1"/>
        <pt x="431" y="82" on="1"/>
        <pt x="333" y="160" on="0"/>
        <pt x="278" y="284" on="1"/>
        <pt x="212" y="430" on="0"/>
        <pt x="212" y="612" on="1"/>
        <pt x="212" y="808" on="0"/>
        <pt x="340" y="1152" on="0"/>
        <pt x="456" y="1277" on="1"/>
        <pt x="573" y="1402" on="0"/>
        <pt x="904" y="1542" on="0"/>
        <pt x="1094" y="1542" on="1"/>
        <pt x="1236" y="1542" on="0"/>
        <pt x="1351" y="1480" on="1"/>
        <pt x="1402" y="1558" on="1"/>
        <pt x="1565" y="1568" on="1"/>
        <pt x="1457" y="1404" on="1"/>
        <pt x="1484" y="1378" on="0"/>
      </contour>
    </TTGlyph>
    <TTGlyph name="Otilde" xMin="212" yMin="-32" xMax="1648" yMax="1860">
      <contour>
        <pt x="1305" y="1247" on="1"/>
        <pt x="1261" y="1330" on="0"/>
        <pt x="1113" y="1424" on="0"/>
        <pt x="1020" y="1424" on="1"/>
        <pt x="924" y="1424" on="0"/>
        <pt x="759" y="1368" on="0"/>
        <pt x="702" y="1320" on="1"/>
        <pt x="649" y="1275" on="0"/>
        <pt x="564" y="1142" on="0"/>
        <pt x="539" y="1071" on="1"/>
        <pt x="492" y="938" on="0"/>
        <pt x="481" y="776" on="1"/>
        <pt x="476" y="703" on="0"/>
        <pt x="476" y="640" on="1"/>
        <pt x="476" y="459" on="0"/>
        <pt x="530" y="327" on="1"/>
        <pt x="590" y="179" on="0"/>
        <pt x="705" y="126" on="1"/>
        <pt x="766" y="96" on="0"/>
        <pt x="844" y="96" on="1"/>
        <pt x="1036" y="96" on="0"/>
        <pt x="1160" y="200" on="1"/>
        <pt x="1267" y="290" on="0"/>
        <pt x="1325" y="447" on="1"/>
        <pt x="1372" y="580" on="0"/>
        <pt x="1385" y="735" on="1"/>
        <pt x="1390" y="807" on="0"/>
        <pt x="1390" y="864" on="1"/>
        <pt x="1390" y="1083" on="0"/>
      </contour>
      <contour>
        <pt x="1507" y="1348" on="1"/>
        <pt x="1648" y="1162" on="0"/>
        <pt x="1648" y="882" on="1"/>
        <pt x="1648" y="581" on="0"/>
        <pt x="1494" y="352" on="1"/>
        <pt x="1332" y="109" on="0"/>
        <pt x="1066" y="17" on="1"/>
        <pt x="926" y="-32" on="0"/>
        <pt x="766" y="-32" on="1"/>
        <pt x="600" y="-32" on="0"/>
        <pt x="344" y="137" on="0"/>
        <pt x="278" y="284" on="1"/>
        <pt x="212" y="430" on="0"/>
        <pt x="212" y="612" on="1"/>
        <pt x="212" y="808" on="0"/>
        <pt x="340" y="1152" on="0"/>
        <pt x="456" y="1277" on="1"/>
        <pt x="573" y="1402" on="0"/>
        <pt x="904" y="1542" on="0"/>
        <pt x="1094" y="1542" on="1"/>
        <pt x="1224" y="1542" on="0"/>
        <pt x="1437" y="1440" on="0"/>
      </contour>
      <contour>
        <pt x="824" y="1674" on="1"/>
        <pt x="826" y="1680" on="0"/>
        <pt x="827" y="1684" on="1"/>
        <pt x="833" y="1708" on="0"/>
        <pt x="849" y="1743" on="1"/>
        <pt x="869" y="1787" on="0"/>
        <pt x="896" y="1814" on="1"/>
        <pt x="930" y="1848" on="0"/>
        <pt x="972" y="1848" on="1"/>
        <pt x="977" y="1848" on="0"/>
        <pt x="983" y="1846" on="0"/>
        <pt x="988" y="1846" on="1"/>
        <pt x="1258" y="1810" on="1"/>
        <pt x="1262" y="1810" on="1"/>
        <pt x="1275" y="1810" on="0"/>
        <pt x="1309" y="1834" on="0"/>
        <pt x="1320" y="1848" on="1"/>
        <pt x="1330" y="1860" on="1"/>
        <pt x="1388" y="1858" on="1"/>
        <pt x="1387" y="1855" on="0"/>
        <pt x="1384" y="1842" on="0"/>
        <pt x="1383" y="1839" on="1"/>
        <pt x="1367" y="1789" on="0"/>
        <pt x="1335" y="1745" on="1"/>
        <pt x="1290" y="1684" on="0"/>
        <pt x="1230" y="1684" on="1"/>
        <pt x="1216" y="1684" on="1"/>
        <pt x="946" y="1722" on="1"/>
        <pt x="942" y="1722" on="1"/>
        <pt x="927" y="1722" on="0"/>
        <pt x="891" y="1694" on="0"/>
        <pt x="880" y="1678" on="1"/>
        <pt x="870" y="1664" on="1"/>
      </contour>
    </TTGlyph>
    <TTGlyph name="P" xMin="93" yMin="0" xMax="1411" yMax="1520">
      <contour>
        <pt x="1411" y="1158" on="1"/>
        <pt x="1411" y="1038" on="0"/>
        <pt x="1313" y="824" on="0"/>
        <pt x="1228" y="751" on="1"/>
        <pt x="1144" y="677" on="0"/>
        <pt x="926" y="594" on="0"/>
        <pt x="813" y="594" on="1"/>
        <pt x="753" y="594" on="0"/>
        <pt x="683" y="604" on="1"/>
        <pt x="675" y="704" on="1"/>
        <pt x="737" y="704" on="1"/>
        <pt x="949" y="704" on="0"/>
        <pt x="1163" y="911" on="0"/>
        <pt x="1163" y="1110" on="1"/>
        <pt x="1163" y="1253" on="0"/>
        <pt x="1008" y="1420" on="0"/>
        <pt x="859" y="1420" on="1"/>
        <pt x="735" y="1414" on="1"/>
        <pt x="535" y="148" on="1"/>
        <pt x="803" y="102" on="1"/>
        <pt x="777" y="0" on="1"/>
        <pt x="93" y="0" on="1"/>
        <pt x="113" y="90" on="1"/>
        <pt x="316" y="146" on="1"/>
        <pt x="501" y="1338" on="1"/>
        <pt x="311" y="1374" on="1"/>
        <pt x="337" y="1466" on="1"/>
        <pt x="679" y="1520" on="0"/>
        <pt x="897" y="1520" on="1"/>
        <pt x="1411" y="1520" on="0"/>
      </contour>
    </TTGlyph>
    <TTGlyph name="Q" xMin="210" yMin="-466" xMax="1666" yMax="1542">
      <contour>
        <pt x="1353" y="1161" on="1"/>
        <pt x="1282" y="1321" on="0"/>
        <pt x="1164" y="1382" on="1"/>
        <pt x="1098" y="1414" on="0"/>
        <pt x="1024" y="1414" on="1"/>
        <pt x="761" y="1414" on="0"/>
        <pt x="456" y="1022" on="0"/>
        <pt x="456" y="678" on="1"/>
        <pt x="456" y="503" on="0"/>
        <pt x="517" y="363" on="1"/>
        <pt x="587" y="198" on="0"/>
        <pt x="732" y="128" on="1"/>
        <pt x="810" y="88" on="0"/>
        <pt x="914" y="82" on="1"/>
        <pt x="1093" y="127" on="0"/>
        <pt x="1208" y="232" on="1"/>
        <pt x="1307" y="322" on="0"/>
        <pt x="1359" y="456" on="1"/>
        <pt x="1401" y="563" on="0"/>
        <pt x="1412" y="705" on="1"/>
        <pt x="1416" y="754" on="0"/>
        <pt x="1416" y="824" on="1"/>
        <pt x="1416" y="1014" on="0"/>
      </contour>
      <contour>
        <pt x="840" y="-76" on="1"/>
        <pt x="840" y="-50" on="0"/>
        <pt x="842" y="-26" on="1"/>
        <pt x="827" y="-32" on="0"/>
        <pt x="768" y="-32" on="1"/>
        <pt x="602" y="-32" on="0"/>
        <pt x="345" y="137" on="0"/>
        <pt x="277" y="284" on="1"/>
        <pt x="210" y="428" on="0"/>
        <pt x="210" y="612" on="1"/>
        <pt x="210" y="805" on="0"/>
        <pt x="345" y="1151" on="0"/>
        <pt x="587" y="1401" on="0"/>
        <pt x="923" y="1542" on="0"/>
        <pt x="1110" y="1542" on="1"/>
        <pt x="1239" y="1542" on="0"/>
        <pt x="1453" y="1442" on="0"/>
        <pt x="1523" y="1352" on="1"/>
        <pt x="1666" y="1169" on="0"/>
        <pt x="1666" y="892" on="1"/>
        <pt x="1666" y="680" on="0"/>
        <pt x="1498" y="307" on="0"/>
        <pt x="1342" y="175" on="1"/>
        <pt x="1184" y="41" on="0"/>
        <pt x="980" y="-8" on="1"/>
        <pt x="996" y="-76" on="0"/>
        <pt x="1050" y="-169" on="0"/>
        <pt x="1098" y="-210" on="1"/>
        <pt x="1196" y="-293" on="0"/>
        <pt x="1426" y="-334" on="1"/>
        <pt x="1418" y="-392" on="0"/>
        <pt x="1400" y="-424" on="1"/>
        <pt x="1312" y="-466" on="0"/>
        <pt x="1190" y="-466" on="1"/>
        <pt x="1035" y="-466" on="0"/>
        <pt x="840" y="-254" on="0"/>
      </contour>
    </TTGlyph>
    <TTGlyph name="R" xMin="94" yMin="-26" xMax="1478" yMax="1518">
      <contour>
        <pt x="1328" y="1376" on="1"/>
        <pt x="1396" y="1298" on="0"/>
        <pt x="1396" y="1183" on="1"/>
        <pt x="1396" y="1041" on="0"/>
        <pt x="1291" y="918" on="1"/>
        <pt x="1184" y="793" on="0"/>
        <pt x="996" y="726" on="1"/>
        <pt x="996" y="724" on="1"/>
        <pt x="1156" y="422" on="1"/>
        <pt x="1198" y="343" on="0"/>
        <pt x="1234" y="281" on="1"/>
        <pt x="1262" y="231" on="0"/>
        <pt x="1306" y="183" on="1"/>
        <pt x="1334" y="149" on="0"/>
        <pt x="1390" y="119" on="1"/>
        <pt x="1419" y="103" on="0"/>
        <pt x="1444" y="94" on="1"/>
        <pt x="1478" y="82" on="1"/>
        <pt x="1448" y="0" on="1"/>
        <pt x="1372" y="-26" on="0"/>
        <pt x="1304" y="-26" on="1"/>
        <pt x="1182" y="-26" on="0"/>
        <pt x="1011" y="142" on="0"/>
        <pt x="948" y="306" on="1"/>
        <pt x="816" y="650" on="1"/>
        <pt x="616" y="650" on="1"/>
        <pt x="538" y="152" on="1"/>
        <pt x="748" y="100" on="1"/>
        <pt x="725" y="0" on="1"/>
        <pt x="94" y="0" on="1"/>
        <pt x="114" y="90" on="1"/>
        <pt x="317" y="146" on="1"/>
        <pt x="504" y="1334" on="1"/>
        <pt x="310" y="1370" on="1"/>
        <pt x="338" y="1462" on="1"/>
        <pt x="685" y="1518" on="0"/>
        <pt x="874" y="1518" on="1"/>
        <pt x="1202" y="1518" on="0"/>
      </contour>
      <contour>
        <pt x="632" y="760" on="1"/>
        <pt x="824" y="760" on="1"/>
        <pt x="950" y="760" on="0"/>
        <pt x="1146" y="971" on="0"/>
        <pt x="1146" y="1120" on="1"/>
        <pt x="1146" y="1249" on="0"/>
        <pt x="1001" y="1416" on="0"/>
        <pt x="878" y="1416" on="1"/>
        <pt x="846" y="1416" on="0"/>
        <pt x="754" y="1412" on="1"/>
        <pt x="736" y="1410" on="1"/>
      </contour>
    </TTGlyph>
    <TTGlyph name="Racute" xMin="94" yMin="-26" xMax="1478" yMax="2066">
      <contour>
        <pt x="1328" y="1376" on="1"/>
        <pt x="1396" y="1298" on="0"/>
        <pt x="1396" y="1183" on="1"/>
        <pt x="1396" y="1041" on="0"/>
        <pt x="1291" y="918" on="1"/>
        <pt x="1184" y="793" on="0"/>
        <pt x="996" y="726" on="1"/>
        <pt x="996" y="724" on="1"/>
        <pt x="1156" y="422" on="1"/>
        <pt x="1198" y="343" on="0"/>
        <pt x="1234" y="281" on="1"/>
        <pt x="1262" y="231" on="0"/>
        <pt x="1306" y="183" on="1"/>
        <pt x="1334" y="149" on="0"/>
        <pt x="1390" y="119" on="1"/>
        <pt x="1419" y="103" on="0"/>
        <pt x="1444" y="94" on="1"/>
        <pt x="1478" y="82" on="1"/>
        <pt x="1448" y="0" on="1"/>
        <pt x="1372" y="-26" on="0"/>
        <pt x="1304" y="-26" on="1"/>
        <pt x="1182" y="-26" on="0"/>
        <pt x="1011" y="142" on="0"/>
        <pt x="948" y="306" on="1"/>
        <pt x="816" y="650" on="1"/>
        <pt x="616" y="650" on="1"/>
        <pt x="538" y="152" on="1"/>
        <pt x="748" y="100" on="1"/>
        <pt x="725" y="0" on="1"/>
        <pt x="94" y="0" on="1"/>
        <pt x="114" y="90" on="1"/>
        <pt x="317" y="146" on="1"/>
        <pt x="504" y="1334" on="1"/>
        <pt x="310" y="1370" on="1"/>
        <pt x="338" y="1462" on="1"/>
        <pt x="685" y="1518" on="0"/>
        <pt x="874" y="1518" on="1"/>
        <pt x="1202" y="1518" on="0"/>
      </contour>
      <contour>
        <pt x="632" y="760" on="1"/>
        <pt x="824" y="760" on="1"/>
        <pt x="950" y="760" on="0"/>
        <pt x="1146" y="971" on="0"/>
        <pt x="1146" y="1120" on="1"/>
        <pt x="1146" y="1254" on="0"/>
        <pt x="1003" y="1416" on="0"/>
        <pt x="878" y="1416" on="1"/>
        <pt x="846" y="1416" on="0"/>
        <pt x="754" y="1412" on="1"/>
        <pt x="736" y="1410" on="1"/>
      </contour>
      <contour>
        <pt x="1260" y="2018" on="1"/>
        <pt x="1038" y="1634" on="1"/>
        <pt x="976" y="1672" on="1"/>
        <pt x="1124" y="2066" on="1"/>
      </contour>
    </TTGlyph>
    <TTGlyph name="Rcaron" xMin="94" yMin="-26" xMax="1478" yMax="1918">
      <contour>
        <pt x="1328" y="1376" on="1"/>
        <pt x="1396" y="1298" on="0"/>
        <pt x="1396" y="1183" on="1"/>
        <pt x="1396" y="1041" on="0"/>
        <pt x="1291" y="918" on="1"/>
        <pt x="1184" y="793" on="0"/>
        <pt x="996" y="726" on="1"/>
        <pt x="996" y="724" on="1"/>
        <pt x="1156" y="422" on="1"/>
        <pt x="1198" y="343" on="0"/>
        <pt x="1234" y="281" on="1"/>
        <pt x="1262" y="231" on="0"/>
        <pt x="1306" y="183" on="1"/>
        <pt x="1334" y="149" on="0"/>
        <pt x="1390" y="119" on="1"/>
        <pt x="1419" y="103" on="0"/>
        <pt x="1444" y="94" on="1"/>
        <pt x="1478" y="82" on="1"/>
        <pt x="1448" y="0" on="1"/>
        <pt x="1372" y="-26" on="0"/>
        <pt x="1304" y="-26" on="1"/>
        <pt x="1182" y="-26" on="0"/>
        <pt x="1011" y="142" on="0"/>
        <pt x="948" y="306" on="1"/>
        <pt x="816" y="650" on="1"/>
        <pt x="616" y="650" on="1"/>
        <pt x="538" y="152" on="1"/>
        <pt x="748" y="100" on="1"/>
        <pt x="725" y="0" on="1"/>
        <pt x="94" y="0" on="1"/>
        <pt x="114" y="90" on="1"/>
        <pt x="317" y="146" on="1"/>
        <pt x="504" y="1334" on="1"/>
        <pt x="310" y="1370" on="1"/>
        <pt x="338" y="1462" on="1"/>
        <pt x="685" y="1518" on="0"/>
        <pt x="874" y="1518" on="1"/>
        <pt x="1202" y="1518" on="0"/>
      </contour>
      <contour>
        <pt x="632" y="760" on="1"/>
        <pt x="824" y="760" on="1"/>
        <pt x="950" y="760" on="0"/>
        <pt x="1146" y="971" on="0"/>
        <pt x="1146" y="1120" on="1"/>
        <pt x="1146" y="1254" on="0"/>
        <pt x="1003" y="1416" on="0"/>
        <pt x="878" y="1416" on="1"/>
        <pt x="846" y="1416" on="0"/>
        <pt x="754" y="1412" on="1"/>
        <pt x="736" y="1410" on="1"/>
      </contour>
      <contour>
        <pt x="920" y="1644" on="1"/>
        <pt x="702" y="1844" on="1"/>
        <pt x="800" y="1918" on="1"/>
        <pt x="980" y="1744" on="1"/>
        <pt x="992" y="1744" on="1"/>
        <pt x="1142" y="1914" on="1"/>
        <pt x="1194" y="1878" on="1"/>
        <pt x="986" y="1660" on="1"/>
      </contour>
    </TTGlyph>
    <TTGlyph name="Rcommaaccent" xMin="94" yMin="-26" xMax="1478" yMax="1518">
      <contour>
        <pt x="1328" y="1376" on="1"/>
        <pt x="1396" y="1298" on="0"/>
        <pt x="1396" y="1183" on="1"/>
        <pt x="1396" y="1041" on="0"/>
        <pt x="1291" y="918" on="1"/>
        <pt x="1184" y="793" on="0"/>
        <pt x="996" y="726" on="1"/>
        <pt x="996" y="724" on="1"/>
        <pt x="1156" y="422" on="1"/>
        <pt x="1198" y="343" on="0"/>
        <pt x="1234" y="281" on="1"/>
        <pt x="1262" y="231" on="0"/>
        <pt x="1306" y="183" on="1"/>
        <pt x="1334" y="149" on="0"/>
        <pt x="1390" y="119" on="1"/>
        <pt x="1419" y="103" on="0"/>
        <pt x="1444" y="94" on="1"/>
        <pt x="1478" y="82" on="1"/>
        <pt x="1448" y="0" on="1"/>
        <pt x="1372" y="-26" on="0"/>
        <pt x="1304" y="-26" on="1"/>
        <pt x="1182" y="-26" on="0"/>
        <pt x="1011" y="142" on="0"/>
        <pt x="948" y="306" on="1"/>
        <pt x="816" y="650" on="1"/>
        <pt x="616" y="650" on="1"/>
        <pt x="538" y="152" on="1"/>
        <pt x="748" y="100" on="1"/>
        <pt x="725" y="0" on="1"/>
        <pt x="94" y="0" on="1"/>
        <pt x="114" y="90" on="1"/>
        <pt x="317" y="146" on="1"/>
        <pt x="504" y="1334" on="1"/>
        <pt x="310" y="1370" on="1"/>
        <pt x="338" y="1462" on="1"/>
        <pt x="685" y="1518" on="0"/>
        <pt x="874" y="1518" on="1"/>
        <pt x="1202" y="1518" on="0"/>
      </contour>
      <contour>
        <pt x="632" y="760" on="1"/>
        <pt x="824" y="760" on="1"/>
        <pt x="950" y="760" on="0"/>
        <pt x="1146" y="971" on="0"/>
        <pt x="1146" y="1120" on="1"/>
        <pt x="1146" y="1254" on="0"/>
        <pt x="1003" y="1416" on="0"/>
        <pt x="878" y="1416" on="1"/>
        <pt x="846" y="1416" on="0"/>
        <pt x="754" y="1412" on="1"/>
        <pt x="736" y="1410" on="1"/>
      </contour>
    </TTGlyph>
    <TTGlyph name="S" xMin="134" yMin="-30" xMax="1136" yMax="1538">
      <contour>
        <pt x="1058" y="1074" on="1"/>
        <pt x="944" y="1088" on="1"/>
        <pt x="950" y="1320" on="1"/>
        <pt x="941" y="1357" on="0"/>
        <pt x="835" y="1434" on="0"/>
        <pt x="774" y="1434" on="1"/>
        <pt x="667" y="1434" on="0"/>
        <pt x="524" y="1279" on="0"/>
        <pt x="524" y="1152" on="1"/>
        <pt x="524" y="1039" on="0"/>
        <pt x="636" y="947" on="1"/>
        <pt x="690" y="902" on="0"/>
        <pt x="745" y="867" on="1"/>
        <pt x="916" y="754" on="0"/>
        <pt x="975" y="700" on="1"/>
        <pt x="1086" y="599" on="0"/>
        <pt x="1086" y="464" on="1"/>
        <pt x="1086" y="356" on="0"/>
        <pt x="985" y="166" on="0"/>
        <pt x="899" y="102" on="1"/>
        <pt x="719" y="-30" on="0"/>
        <pt x="494" y="-30" on="1"/>
        <pt x="373" y="-30" on="0"/>
        <pt x="170" y="72" on="0"/>
        <pt x="134" y="148" on="1"/>
        <pt x="202" y="472" on="1"/>
        <pt x="316" y="454" on="1"/>
        <pt x="322" y="226" on="1"/>
        <pt x="347" y="164" on="0"/>
        <pt x="460" y="94" on="0"/>
        <pt x="542" y="94" on="1"/>
        <pt x="630" y="94" on="0"/>
        <pt x="711" y="131" on="1"/>
        <pt x="800" y="172" on="0"/>
        <pt x="838" y="256" on="1"/>
        <pt x="858" y="304" on="0"/>
        <pt x="858" y="359" on="1"/>
        <pt x="858" y="452" on="0"/>
        <pt x="773" y="529" on="1"/>
        <pt x="696" y="597" on="0"/>
        <pt x="584" y="668" on="1"/>
        <pt x="475" y="737" on="0"/>
        <pt x="396" y="822" on="1"/>
        <pt x="310" y="913" on="0"/>
        <pt x="310" y="1034" on="1"/>
        <pt x="310" y="1215" on="0"/>
        <pt x="421" y="1346" on="1"/>
        <pt x="527" y="1470" on="0"/>
        <pt x="679" y="1516" on="1"/>
        <pt x="752" y="1538" on="0"/>
        <pt x="830" y="1538" on="1"/>
        <pt x="924" y="1538" on="0"/>
        <pt x="1087" y="1478" on="0"/>
        <pt x="1136" y="1416" on="1"/>
      </contour>
    </TTGlyph>
    <TTGlyph name="Sacute" xMin="134" yMin="-30" xMax="1170" yMax="2070">
      <contour>
        <pt x="1058" y="1074" on="1"/>
        <pt x="944" y="1088" on="1"/>
        <pt x="950" y="1320" on="1"/>
        <pt x="941" y="1357" on="0"/>
        <pt x="835" y="1434" on="0"/>
        <pt x="774" y="1434" on="1"/>
        <pt x="667" y="1434" on="0"/>
        <pt x="524" y="1279" on="0"/>
        <pt x="524" y="1152" on="1"/>
        <pt x="524" y="1039" on="0"/>
        <pt x="636" y="947" on="1"/>
        <pt x="690" y="902" on="0"/>
        <pt x="745" y="867" on="1"/>
        <pt x="916" y="754" on="0"/>
        <pt x="975" y="700" on="1"/>
        <pt x="1086" y="599" on="0"/>
        <pt x="1086" y="464" on="1"/>
        <pt x="1086" y="356" on="0"/>
        <pt x="985" y="166" on="0"/>
        <pt x="899" y="102" on="1"/>
        <pt x="719" y="-30" on="0"/>
        <pt x="494" y="-30" on="1"/>
        <pt x="373" y="-30" on="0"/>
        <pt x="170" y="72" on="0"/>
        <pt x="134" y="148" on="1"/>
        <pt x="202" y="472" on="1"/>
        <pt x="316" y="454" on="1"/>
        <pt x="322" y="226" on="1"/>
        <pt x="347" y="164" on="0"/>
        <pt x="460" y="94" on="0"/>
        <pt x="542" y="94" on="1"/>
        <pt x="630" y="94" on="0"/>
        <pt x="711" y="131" on="1"/>
        <pt x="800" y="172" on="0"/>
        <pt x="838" y="256" on="1"/>
        <pt x="858" y="304" on="0"/>
        <pt x="858" y="359" on="1"/>
        <pt x="858" y="452" on="0"/>
        <pt x="773" y="529" on="1"/>
        <pt x="696" y="597" on="0"/>
        <pt x="584" y="668" on="1"/>
        <pt x="475" y="737" on="0"/>
        <pt x="396" y="822" on="1"/>
        <pt x="310" y="913" on="0"/>
        <pt x="310" y="1034" on="1"/>
        <pt x="310" y="1215" on="0"/>
        <pt x="421" y="1346" on="1"/>
        <pt x="527" y="1470" on="0"/>
        <pt x="679" y="1516" on="1"/>
        <pt x="752" y="1538" on="0"/>
        <pt x="830" y="1538" on="1"/>
        <pt x="924" y="1538" on="0"/>
        <pt x="1087" y="1478" on="0"/>
        <pt x="1136" y="1416" on="1"/>
      </contour>
      <contour>
        <pt x="1170" y="2022" on="1"/>
        <pt x="948" y="1638" on="1"/>
        <pt x="886" y="1676" on="1"/>
        <pt x="1034" y="2070" on="1"/>
      </contour>
    </TTGlyph>
    <TTGlyph name="Scaron" xMin="134" yMin="-30" xMax="1136" yMax="1922">
      <contour>
        <pt x="1058" y="1074" on="1"/>
        <pt x="944" y="1088" on="1"/>
        <pt x="950" y="1320" on="1"/>
        <pt x="941" y="1357" on="0"/>
        <pt x="835" y="1434" on="0"/>
        <pt x="774" y="1434" on="1"/>
        <pt x="667" y="1434" on="0"/>
        <pt x="524" y="1279" on="0"/>
        <pt x="524" y="1152" on="1"/>
        <pt x="524" y="1038" on="0"/>
        <pt x="636" y="945" on="1"/>
        <pt x="688" y="903" on="0"/>
        <pt x="745" y="864" on="1"/>
        <pt x="754" y="858" on="0"/>
        <pt x="814" y="818" on="0"/>
        <pt x="839" y="801" on="0"/>
        <pt x="890" y="765" on="0"/>
        <pt x="920" y="742" on="0"/>
        <pt x="959" y="711" on="0"/>
        <pt x="975" y="697" on="1"/>
        <pt x="1086" y="596" on="0"/>
        <pt x="1086" y="464" on="1"/>
        <pt x="1086" y="356" on="0"/>
        <pt x="985" y="166" on="0"/>
        <pt x="899" y="102" on="1"/>
        <pt x="719" y="-30" on="0"/>
        <pt x="494" y="-30" on="1"/>
        <pt x="373" y="-30" on="0"/>
        <pt x="170" y="72" on="0"/>
        <pt x="134" y="148" on="1"/>
        <pt x="202" y="472" on="1"/>
        <pt x="316" y="454" on="1"/>
        <pt x="322" y="226" on="1"/>
        <pt x="347" y="164" on="0"/>
        <pt x="460" y="94" on="0"/>
        <pt x="542" y="94" on="1"/>
        <pt x="630" y="94" on="0"/>
        <pt x="711" y="131" on="1"/>
        <pt x="800" y="172" on="0"/>
        <pt x="838" y="256" on="1"/>
        <pt x="858" y="304" on="0"/>
        <pt x="858" y="359" on="1"/>
        <pt x="858" y="452" on="0"/>
        <pt x="773" y="529" on="1"/>
        <pt x="696" y="597" on="0"/>
        <pt x="584" y="668" on="1"/>
        <pt x="475" y="737" on="0"/>
        <pt x="396" y="822" on="1"/>
        <pt x="310" y="913" on="0"/>
        <pt x="310" y="1034" on="1"/>
        <pt x="310" y="1215" on="0"/>
        <pt x="421" y="1346" on="1"/>
        <pt x="527" y="1470" on="0"/>
        <pt x="679" y="1516" on="1"/>
        <pt x="752" y="1538" on="0"/>
        <pt x="830" y="1538" on="1"/>
        <pt x="924" y="1538" on="0"/>
        <pt x="1087" y="1478" on="0"/>
        <pt x="1136" y="1416" on="1"/>
      </contour>
      <contour>
        <pt x="830" y="1648" on="1"/>
        <pt x="612" y="1848" on="1"/>
        <pt x="710" y="1922" on="1"/>
        <pt x="890" y="1748" on="1"/>
        <pt x="902" y="1748" on="1"/>
        <pt x="1052" y="1918" on="1"/>
        <pt x="1104" y="1882" on="1"/>
        <pt x="896" y="1664" on="1"/>
      </contour>
    </TTGlyph>
    <TTGlyph name="Scedilla" xMin="135" yMin="-472" xMax="1137" yMax="1538">
      <contour>
        <pt x="567" y="-92" on="1"/>
        <pt x="675" y="-186" on="0"/>
        <pt x="675" y="-274" on="1"/>
        <pt x="675" y="-398" on="0"/>
        <pt x="433" y="-472" on="1"/>
        <pt x="409" y="-400" on="1"/>
        <pt x="458" y="-383" on="0"/>
        <pt x="513" y="-329" on="0"/>
        <pt x="513" y="-300" on="1"/>
        <pt x="513" y="-250" on="0"/>
        <pt x="425" y="-166" on="1"/>
        <pt x="519" y="-30" on="1"/>
        <pt x="495" y="-30" on="1"/>
        <pt x="374" y="-30" on="0"/>
        <pt x="171" y="72" on="0"/>
        <pt x="135" y="148" on="1"/>
        <pt x="203" y="472" on="1"/>
        <pt x="317" y="454" on="1"/>
        <pt x="323" y="226" on="1"/>
        <pt x="348" y="164" on="0"/>
        <pt x="461" y="94" on="0"/>
        <pt x="543" y="94" on="1"/>
        <pt x="631" y="94" on="0"/>
        <pt x="712" y="131" on="1"/>
        <pt x="801" y="172" on="0"/>
        <pt x="839" y="256" on="1"/>
        <pt x="859" y="304" on="0"/>
        <pt x="859" y="359" on="1"/>
        <pt x="859" y="452" on="0"/>
        <pt x="774" y="529" on="1"/>
        <pt x="697" y="597" on="0"/>
        <pt x="585" y="668" on="1"/>
        <pt x="476" y="737" on="0"/>
        <pt x="397" y="822" on="1"/>
        <pt x="311" y="913" on="0"/>
        <pt x="311" y="1034" on="1"/>
        <pt x="311" y="1215" on="0"/>
        <pt x="422" y="1346" on="1"/>
        <pt x="528" y="1470" on="0"/>
        <pt x="680" y="1516" on="1"/>
        <pt x="753" y="1538" on="0"/>
        <pt x="831" y="1538" on="1"/>
        <pt x="925" y="1538" on="0"/>
        <pt x="1088" y="1478" on="0"/>
        <pt x="1137" y="1416" on="1"/>
        <pt x="1059" y="1074" on="1"/>
        <pt x="945" y="1088" on="1"/>
        <pt x="951" y="1320" on="1"/>
        <pt x="942" y="1357" on="0"/>
        <pt x="836" y="1434" on="0"/>
        <pt x="775" y="1434" on="1"/>
        <pt x="668" y="1434" on="0"/>
        <pt x="525" y="1279" on="0"/>
        <pt x="525" y="1152" on="1"/>
        <pt x="525" y="1039" on="0"/>
        <pt x="637" y="947" on="1"/>
        <pt x="691" y="902" on="0"/>
        <pt x="746" y="867" on="1"/>
        <pt x="917" y="754" on="0"/>
        <pt x="976" y="700" on="1"/>
        <pt x="1087" y="599" on="0"/>
        <pt x="1087" y="464" on="1"/>
        <pt x="1087" y="369" on="0"/>
        <pt x="1011" y="200" on="0"/>
        <pt x="944" y="139" on="1"/>
        <pt x="810" y="15" on="0"/>
        <pt x="617" y="-20" on="1"/>
      </contour>
    </TTGlyph>
    <TTGlyph name="Scommaaccent" xMin="134" yMin="-484" xMax="1136" yMax="1538">
      <contour>
        <pt x="1058" y="1074" on="1"/>
        <pt x="944" y="1088" on="1"/>
        <pt x="950" y="1320" on="1"/>
        <pt x="941" y="1357" on="0"/>
        <pt x="835" y="1434" on="0"/>
        <pt x="774" y="1434" on="1"/>
        <pt x="667" y="1434" on="0"/>
        <pt x="524" y="1279" on="0"/>
        <pt x="524" y="1152" on="1"/>
        <pt x="524" y="1039" on="0"/>
        <pt x="636" y="947" on="1"/>
        <pt x="690" y="902" on="0"/>
        <pt x="745" y="867" on="1"/>
        <pt x="916" y="754" on="0"/>
        <pt x="975" y="700" on="1"/>
        <pt x="1086" y="599" on="0"/>
        <pt x="1086" y="464" on="1"/>
        <pt x="1086" y="356" on="0"/>
        <pt x="985" y="166" on="0"/>
        <pt x="899" y="102" on="1"/>
        <pt x="719" y="-30" on="0"/>
        <pt x="494" y="-30" on="1"/>
        <pt x="373" y="-30" on="0"/>
        <pt x="170" y="72" on="0"/>
        <pt x="134" y="148" on="1"/>
        <pt x="202" y="472" on="1"/>
        <pt x="316" y="454" on="1"/>
        <pt x="322" y="226" on="1"/>
        <pt x="347" y="164" on="0"/>
        <pt x="460" y="94" on="0"/>
        <pt x="542" y="94" on="1"/>
        <pt x="630" y="94" on="0"/>
        <pt x="711" y="131" on="1"/>
        <pt x="800" y="172" on="0"/>
        <pt x="838" y="256" on="1"/>
        <pt x="858" y="304" on="0"/>
        <pt x="858" y="359" on="1"/>
        <pt x="858" y="452" on="0"/>
        <pt x="773" y="529" on="1"/>
        <pt x="696" y="597" on="0"/>
        <pt x="584" y="668" on="1"/>
        <pt x="475" y="737" on="0"/>
        <pt x="396" y="822" on="1"/>
        <pt x="310" y="913" on="0"/>
        <pt x="310" y="1034" on="1"/>
        <pt x="310" y="1215" on="0"/>
        <pt x="421" y="1346" on="1"/>
        <pt x="527" y="1470" on="0"/>
        <pt x="679" y="1516" on="1"/>
        <pt x="752" y="1538" on="0"/>
        <pt x="830" y="1538" on="1"/>
        <pt x="924" y="1538" on="0"/>
        <pt x="1087" y="1478" on="0"/>
        <pt x="1136" y="1416" on="1"/>
      </contour>
      <contour>
        <pt x="425" y="-436" on="1"/>
        <pt x="490" y="-418" on="0"/>
        <pt x="573" y="-342" on="0"/>
        <pt x="573" y="-306" on="1"/>
        <pt x="573" y="-273" on="0"/>
        <pt x="536" y="-236" on="0"/>
        <pt x="501" y="-236" on="1"/>
        <pt x="496" y="-236" on="0"/>
        <pt x="481" y="-240" on="1"/>
        <pt x="475" y="-219" on="0"/>
        <pt x="475" y="-202" on="1"/>
        <pt x="475" y="-164" on="0"/>
        <pt x="542" y="-108" on="0"/>
        <pt x="577" y="-108" on="1"/>
        <pt x="681" y="-108" on="0"/>
        <pt x="681" y="-240" on="1"/>
        <pt x="681" y="-298" on="0"/>
        <pt x="630" y="-368" on="1"/>
        <pt x="602" y="-405" on="0"/>
        <pt x="499" y="-467" on="0"/>
        <pt x="433" y="-484" on="1"/>
      </contour>
    </TTGlyph>
    <TTGlyph name="T" xMin="224" yMin="0" xMax="1558" yMax="1506">
      <contour>
        <pt x="276" y="1506" on="1"/>
        <pt x="1558" y="1506" on="1"/>
        <pt x="1456" y="1098" on="1"/>
        <pt x="1348" y="1116" on="1"/>
        <pt x="1348" y="1396" on="1"/>
        <pt x="998" y="1396" on="1"/>
        <pt x="798" y="138" on="1"/>
        <pt x="1004" y="98" on="1"/>
        <pt x="980" y="0" on="1"/>
        <pt x="356" y="0" on="1"/>
        <pt x="376" y="90" on="1"/>
        <pt x="578" y="146" on="1"/>
        <pt x="776" y="1396" on="1"/>
        <pt x="436" y="1396" on="1"/>
        <pt x="328" y="1102" on="1"/>
        <pt x="224" y="1118" on="1"/>
      </contour>
    </TTGlyph>
    <TTGlyph name="Tbar" xMin="224" yMin="0" xMax="1558" yMax="1791">
      <contour>
        <pt x="276" y="1506" on="1"/>
        <pt x="1558" y="1506" on="1"/>
        <pt x="1456" y="1098" on="1"/>
        <pt x="1348" y="1116" on="1"/>
        <pt x="1348" y="1396" on="1"/>
        <pt x="998" y="1396" on="1"/>
        <pt x="798" y="138" on="1"/>
        <pt x="1004" y="98" on="1"/>
        <pt x="980" y="0" on="1"/>
        <pt x="356" y="0" on="1"/>
        <pt x="376" y="90" on="1"/>
        <pt x="578" y="146" on="1"/>
        <pt x="776" y="1396" on="1"/>
        <pt x="436" y="1396" on="1"/>
        <pt x="328" y="1102" on="1"/>
        <pt x="224" y="1118" on="1"/>
      </contour>
      <contour>
        <pt x="646" y="1791" on="1"/>
        <pt x="1180" y="1791" on="1"/>
        <pt x="1164" y="1670" on="1"/>
        <pt x="630" y="1670" on="1"/>
      </contour>
    </TTGlyph>
    <TTGlyph name="Tcaron" xMin="224" yMin="0" xMax="1558" yMax="1918">
      <contour>
        <pt x="276" y="1506" on="1"/>
        <pt x="1558" y="1506" on="1"/>
        <pt x="1456" y="1098" on="1"/>
        <pt x="1348" y="1116" on="1"/>
        <pt x="1348" y="1396" on="1"/>
        <pt x="998" y="1396" on="1"/>
        <pt x="798" y="138" on="1"/>
        <pt x="1004" y="98" on="1"/>
        <pt x="980" y="0" on="1"/>
        <pt x="356" y="0" on="1"/>
        <pt x="376" y="90" on="1"/>
        <pt x="578" y="146" on="1"/>
        <pt x="776" y="1396" on="1"/>
        <pt x="436" y="1396" on="1"/>
        <pt x="328" y="1102" on="1"/>
        <pt x="224" y="1118" on="1"/>
      </contour>
      <contour>
        <pt x="914" y="1644" on="1"/>
        <pt x="696" y="1844" on="1"/>
        <pt x="794" y="1918" on="1"/>
        <pt x="974" y="1744" on="1"/>
        <pt x="986" y="1744" on="1"/>
        <pt x="1136" y="1914" on="1"/>
        <pt x="1188" y="1878" on="1"/>
        <pt x="980" y="1660" on="1"/>
      </contour>
    </TTGlyph>
    <TTGlyph name="Tcedilla" xMin="224" yMin="-472" xMax="1558" yMax="1506">
      <contour>
        <pt x="690" y="-92" on="1"/>
        <pt x="798" y="-186" on="0"/>
        <pt x="798" y="-274" on="1"/>
        <pt x="798" y="-398" on="0"/>
        <pt x="556" y="-472" on="1"/>
        <pt x="532" y="-400" on="1"/>
        <pt x="581" y="-383" on="0"/>
        <pt x="636" y="-329" on="0"/>
        <pt x="636" y="-300" on="1"/>
        <pt x="636" y="-250" on="0"/>
        <pt x="548" y="-166" on="1"/>
        <pt x="664" y="0" on="1"/>
        <pt x="356" y="0" on="1"/>
        <pt x="376" y="90" on="1"/>
        <pt x="578" y="146" on="1"/>
        <pt x="776" y="1396" on="1"/>
        <pt x="436" y="1396" on="1"/>
        <pt x="328" y="1102" on="1"/>
        <pt x="224" y="1118" on="1"/>
        <pt x="276" y="1506" on="1"/>
        <pt x="1558" y="1506" on="1"/>
        <pt x="1456" y="1098" on="1"/>
        <pt x="1348" y="1116" on="1"/>
        <pt x="1348" y="1396" on="1"/>
        <pt x="998" y="1396" on="1"/>
        <pt x="798" y="138" on="1"/>
        <pt x="1004" y="98" on="1"/>
        <pt x="980" y="0" on="1"/>
        <pt x="754" y="0" on="1"/>
      </contour>
    </TTGlyph>
    <TTGlyph name="Tcommaaccent" xMin="224" yMin="-484" xMax="1558" yMax="1506">
      <contour>
        <pt x="276" y="1506" on="1"/>
        <pt x="1558" y="1506" on="1"/>
        <pt x="1456" y="1098" on="1"/>
        <pt x="1348" y="1116" on="1"/>
        <pt x="1348" y="1396" on="1"/>
        <pt x="998" y="1396" on="1"/>
        <pt x="798" y="138" on="1"/>
        <pt x="1004" y="98" on="1"/>
        <pt x="980" y="0" on="1"/>
        <pt x="356" y="0" on="1"/>
        <pt x="376" y="90" on="1"/>
        <pt x="578" y="146" on="1"/>
        <pt x="776" y="1396" on="1"/>
        <pt x="436" y="1396" on="1"/>
        <pt x="328" y="1102" on="1"/>
        <pt x="224" y="1118" on="1"/>
      </contour>
      <contour>
        <pt x="545" y="-436" on="1"/>
        <pt x="610" y="-418" on="0"/>
        <pt x="693" y="-342" on="0"/>
        <pt x="693" y="-306" on="1"/>
        <pt x="693" y="-273" on="0"/>
        <pt x="656" y="-236" on="0"/>
        <pt x="621" y="-236" on="1"/>
        <pt x="616" y="-236" on="0"/>
        <pt x="601" y="-240" on="1"/>
        <pt x="595" y="-219" on="0"/>
        <pt x="595" y="-202" on="1"/>
        <pt x="595" y="-164" on="0"/>
        <pt x="662" y="-108" on="0"/>
        <pt x="697" y="-108" on="1"/>
        <pt x="801" y="-108" on="0"/>
        <pt x="801" y="-240" on="1"/>
        <pt x="801" y="-298" on="0"/>
        <pt x="750" y="-368" on="1"/>
        <pt x="722" y="-405" on="0"/>
        <pt x="619" y="-467" on="0"/>
        <pt x="553" y="-484" on="1"/>
      </contour>
    </TTGlyph>
    <TTGlyph name="Thorn" xMin="100" yMin="0" xMax="1382" yMax="1506">
      <contour>
        <pt x="732" y="1368" on="1"/>
        <pt x="714" y="1254" on="1"/>
        <pt x="792" y="1260" on="0"/>
        <pt x="868" y="1260" on="1"/>
        <pt x="1045" y="1260" on="0"/>
        <pt x="1165" y="1214" on="1"/>
        <pt x="1302" y="1162" on="0"/>
        <pt x="1354" y="1044" on="1"/>
        <pt x="1382" y="981" on="0"/>
        <pt x="1382" y="898" on="1"/>
        <pt x="1382" y="778" on="0"/>
        <pt x="1284" y="564" on="0"/>
        <pt x="1199" y="491" on="1"/>
        <pt x="1115" y="417" on="0"/>
        <pt x="897" y="334" on="0"/>
        <pt x="784" y="334" on="1"/>
        <pt x="724" y="334" on="0"/>
        <pt x="654" y="344" on="1"/>
        <pt x="646" y="444" on="1"/>
        <pt x="708" y="444" on="1"/>
        <pt x="920" y="444" on="0"/>
        <pt x="1134" y="651" on="0"/>
        <pt x="1134" y="850" on="1"/>
        <pt x="1134" y="993" on="0"/>
        <pt x="979" y="1160" on="0"/>
        <pt x="830" y="1160" on="1"/>
        <pt x="706" y="1154" on="1"/>
        <pt x="698" y="1150" on="1"/>
        <pt x="538" y="138" on="1"/>
        <pt x="744" y="98" on="1"/>
        <pt x="721" y="0" on="1"/>
        <pt x="100" y="0" on="1"/>
        <pt x="118" y="90" on="1"/>
        <pt x="318" y="146" on="1"/>
        <pt x="510" y="1364" on="1"/>
        <pt x="308" y="1414" on="1"/>
        <pt x="328" y="1506" on="1"/>
        <pt x="956" y="1506" on="1"/>
        <pt x="936" y="1414" on="1"/>
      </contour>
    </TTGlyph>
    <TTGlyph name="U" xMin="265" yMin="-32" xMax="1839" yMax="1506">
      <contour>
        <pt x="569" y="598" on="1"/>
        <pt x="557" y="523" on="0"/>
        <pt x="557" y="464" on="1"/>
        <pt x="557" y="288" on="0"/>
        <pt x="733" y="112" on="0"/>
        <pt x="895" y="112" on="1"/>
        <pt x="1036" y="112" on="0"/>
        <pt x="1131" y="172" on="1"/>
        <pt x="1213" y="223" on="0"/>
        <pt x="1265" y="318" on="1"/>
        <pt x="1305" y="393" on="0"/>
        <pt x="1329" y="496" on="1"/>
        <pt x="1336" y="527" on="0"/>
        <pt x="1345" y="582" on="1"/>
        <pt x="1469" y="1364" on="1"/>
        <pt x="1269" y="1414" on="1"/>
        <pt x="1287" y="1506" on="1"/>
        <pt x="1839" y="1506" on="1"/>
        <pt x="1819" y="1414" on="1"/>
        <pt x="1617" y="1368" on="1"/>
        <pt x="1491" y="604" on="1"/>
        <pt x="1384" y="-32" on="0"/>
        <pt x="797" y="-32" on="1"/>
        <pt x="658" y="-32" on="0"/>
        <pt x="551" y="18" on="1"/>
        <pt x="483" y="49" on="0"/>
        <pt x="393" y="147" on="0"/>
        <pt x="364" y="226" on="1"/>
        <pt x="333" y="307" on="0"/>
        <pt x="333" y="416" on="1"/>
        <pt x="333" y="484" on="0"/>
        <pt x="345" y="568" on="1"/>
        <pt x="471" y="1364" on="1"/>
        <pt x="265" y="1414" on="1"/>
        <pt x="287" y="1506" on="1"/>
        <pt x="911" y="1506" on="1"/>
        <pt x="893" y="1414" on="1"/>
        <pt x="689" y="1368" on="1"/>
      </contour>
    </TTGlyph>
    <TTGlyph name="Uacute" xMin="265" yMin="-32" xMax="1839" yMax="2056">
      <contour>
        <pt x="569" y="598" on="1"/>
        <pt x="557" y="523" on="0"/>
        <pt x="557" y="464" on="1"/>
        <pt x="557" y="288" on="0"/>
        <pt x="733" y="112" on="0"/>
        <pt x="895" y="112" on="1"/>
        <pt x="1036" y="112" on="0"/>
        <pt x="1131" y="172" on="1"/>
        <pt x="1213" y="223" on="0"/>
        <pt x="1265" y="318" on="1"/>
        <pt x="1305" y="393" on="0"/>
        <pt x="1329" y="496" on="1"/>
        <pt x="1336" y="527" on="0"/>
        <pt x="1345" y="582" on="1"/>
        <pt x="1469" y="1364" on="1"/>
        <pt x="1269" y="1414" on="1"/>
        <pt x="1287" y="1506" on="1"/>
        <pt x="1839" y="1506" on="1"/>
        <pt x="1819" y="1414" on="1"/>
        <pt x="1617" y="1368" on="1"/>
        <pt x="1491" y="604" on="1"/>
        <pt x="1384" y="-32" on="0"/>
        <pt x="797" y="-32" on="1"/>
        <pt x="658" y="-32" on="0"/>
        <pt x="551" y="18" on="1"/>
        <pt x="483" y="49" on="0"/>
        <pt x="393" y="147" on="0"/>
        <pt x="364" y="226" on="1"/>
        <pt x="333" y="307" on="0"/>
        <pt x="333" y="416" on="1"/>
        <pt x="333" y="484" on="0"/>
        <pt x="345" y="568" on="1"/>
        <pt x="471" y="1364" on="1"/>
        <pt x="265" y="1414" on="1"/>
        <pt x="287" y="1506" on="1"/>
        <pt x="911" y="1506" on="1"/>
        <pt x="893" y="1414" on="1"/>
        <pt x="689" y="1368" on="1"/>
      </contour>
      <contour>
        <pt x="1351" y="2008" on="1"/>
        <pt x="1129" y="1624" on="1"/>
        <pt x="1067" y="1662" on="1"/>
        <pt x="1215" y="2056" on="1"/>
      </contour>
    </TTGlyph>
    <TTGlyph name="Ucaron" xMin="265" yMin="-32" xMax="1839" yMax="1918">
      <contour>
        <pt x="569" y="598" on="1"/>
        <pt x="557" y="523" on="0"/>
        <pt x="557" y="464" on="1"/>
        <pt x="557" y="288" on="0"/>
        <pt x="733" y="112" on="0"/>
        <pt x="895" y="112" on="1"/>
        <pt x="1036" y="112" on="0"/>
        <pt x="1131" y="172" on="1"/>
        <pt x="1213" y="223" on="0"/>
        <pt x="1265" y="318" on="1"/>
        <pt x="1305" y="393" on="0"/>
        <pt x="1329" y="496" on="1"/>
        <pt x="1336" y="527" on="0"/>
        <pt x="1345" y="582" on="1"/>
        <pt x="1469" y="1364" on="1"/>
        <pt x="1269" y="1414" on="1"/>
        <pt x="1287" y="1506" on="1"/>
        <pt x="1839" y="1506" on="1"/>
        <pt x="1819" y="1414" on="1"/>
        <pt x="1617" y="1368" on="1"/>
        <pt x="1491" y="604" on="1"/>
        <pt x="1384" y="-32" on="0"/>
        <pt x="797" y="-32" on="1"/>
        <pt x="658" y="-32" on="0"/>
        <pt x="551" y="18" on="1"/>
        <pt x="483" y="49" on="0"/>
        <pt x="393" y="147" on="0"/>
        <pt x="364" y="226" on="1"/>
        <pt x="333" y="307" on="0"/>
        <pt x="333" y="416" on="1"/>
        <pt x="333" y="484" on="0"/>
        <pt x="345" y="568" on="1"/>
        <pt x="471" y="1364" on="1"/>
        <pt x="265" y="1414" on="1"/>
        <pt x="287" y="1506" on="1"/>
        <pt x="911" y="1506" on="1"/>
        <pt x="893" y="1414" on="1"/>
        <pt x="689" y="1368" on="1"/>
      </contour>
      <contour>
        <pt x="1126" y="1644" on="1"/>
        <pt x="908" y="1844" on="1"/>
        <pt x="1006" y="1918" on="1"/>
        <pt x="1186" y="1744" on="1"/>
        <pt x="1198" y="1744" on="1"/>
        <pt x="1348" y="1914" on="1"/>
        <pt x="1400" y="1878" on="1"/>
        <pt x="1192" y="1660" on="1"/>
      </contour>
    </TTGlyph>
    <TTGlyph name="Ucircumflex" xMin="265" yMin="-32" xMax="1839" yMax="1914">
      <contour>
        <pt x="569" y="598" on="1"/>
        <pt x="557" y="523" on="0"/>
        <pt x="557" y="464" on="1"/>
        <pt x="557" y="288" on="0"/>
        <pt x="733" y="112" on="0"/>
        <pt x="895" y="112" on="1"/>
        <pt x="1036" y="112" on="0"/>
        <pt x="1131" y="172" on="1"/>
        <pt x="1213" y="223" on="0"/>
        <pt x="1265" y="318" on="1"/>
        <pt x="1305" y="393" on="0"/>
        <pt x="1329" y="496" on="1"/>
        <pt x="1336" y="527" on="0"/>
        <pt x="1345" y="582" on="1"/>
        <pt x="1469" y="1364" on="1"/>
        <pt x="1269" y="1414" on="1"/>
        <pt x="1287" y="1506" on="1"/>
        <pt x="1839" y="1506" on="1"/>
        <pt x="1819" y="1414" on="1"/>
        <pt x="1617" y="1368" on="1"/>
        <pt x="1491" y="604" on="1"/>
        <pt x="1384" y="-32" on="0"/>
        <pt x="797" y="-32" on="1"/>
        <pt x="658" y="-32" on="0"/>
        <pt x="551" y="18" on="1"/>
        <pt x="483" y="49" on="0"/>
        <pt x="393" y="147" on="0"/>
        <pt x="364" y="226" on="1"/>
        <pt x="333" y="307" on="0"/>
        <pt x="333" y="416" on="1"/>
        <pt x="333" y="484" on="0"/>
        <pt x="345" y="568" on="1"/>
        <pt x="471" y="1364" on="1"/>
        <pt x="265" y="1414" on="1"/>
        <pt x="287" y="1506" on="1"/>
        <pt x="911" y="1506" on="1"/>
        <pt x="893" y="1414" on="1"/>
        <pt x="689" y="1368" on="1"/>
      </contour>
      <contour>
        <pt x="1145" y="1914" on="1"/>
        <pt x="1361" y="1689" on="1"/>
        <pt x="1301" y="1646" on="1"/>
        <pt x="1103" y="1778" on="1"/>
        <pt x="1091" y="1778" on="1"/>
        <pt x="921" y="1644" on="1"/>
        <pt x="875" y="1680" on="1"/>
        <pt x="1079" y="1898" on="1"/>
      </contour>
    </TTGlyph>
    <TTGlyph name="Udieresis" xMin="265" yMin="-32" xMax="1839" yMax="1868">
      <contour>
        <pt x="569" y="598" on="1"/>
        <pt x="557" y="523" on="0"/>
        <pt x="557" y="464" on="1"/>
        <pt x="557" y="288" on="0"/>
        <pt x="733" y="112" on="0"/>
        <pt x="895" y="112" on="1"/>
        <pt x="1036" y="112" on="0"/>
        <pt x="1131" y="172" on="1"/>
        <pt x="1213" y="223" on="0"/>
        <pt x="1265" y="318" on="1"/>
        <pt x="1305" y="393" on="0"/>
        <pt x="1329" y="496" on="1"/>
        <pt x="1336" y="527" on="0"/>
        <pt x="1345" y="582" on="1"/>
        <pt x="1469" y="1364" on="1"/>
        <pt x="1269" y="1414" on="1"/>
        <pt x="1287" y="1506" on="1"/>
        <pt x="1839" y="1506" on="1"/>
        <pt x="1819" y="1414" on="1"/>
        <pt x="1617" y="1368" on="1"/>
        <pt x="1491" y="604" on="1"/>
        <pt x="1384" y="-32" on="0"/>
        <pt x="797" y="-32" on="1"/>
        <pt x="658" y="-32" on="0"/>
        <pt x="551" y="18" on="1"/>
        <pt x="483" y="49" on="0"/>
        <pt x="393" y="147" on="0"/>
        <pt x="364" y="226" on="1"/>
        <pt x="333" y="307" on="0"/>
        <pt x="333" y="416" on="1"/>
        <pt x="333" y="484" on="0"/>
        <pt x="345" y="568" on="1"/>
        <pt x="471" y="1364" on="1"/>
        <pt x="265" y="1414" on="1"/>
        <pt x="287" y="1506" on="1"/>
        <pt x="911" y="1506" on="1"/>
        <pt x="893" y="1414" on="1"/>
        <pt x="689" y="1368" on="1"/>
      </contour>
      <contour>
        <pt x="1385" y="1774" on="1"/>
        <pt x="1385" y="1732" on="0"/>
        <pt x="1322" y="1676" on="0"/>
        <pt x="1279" y="1676" on="1"/>
        <pt x="1237" y="1676" on="0"/>
        <pt x="1177" y="1732" on="0"/>
        <pt x="1177" y="1774" on="1"/>
        <pt x="1177" y="1815" on="0"/>
        <pt x="1238" y="1868" on="0"/>
        <pt x="1279" y="1868" on="1"/>
        <pt x="1322" y="1868" on="0"/>
        <pt x="1385" y="1814" on="0"/>
      </contour>
      <contour>
        <pt x="1059" y="1774" on="1"/>
        <pt x="1059" y="1732" on="0"/>
        <pt x="998" y="1676" on="0"/>
        <pt x="955" y="1676" on="1"/>
        <pt x="913" y="1676" on="0"/>
        <pt x="853" y="1732" on="0"/>
        <pt x="853" y="1774" on="1"/>
        <pt x="853" y="1815" on="0"/>
        <pt x="914" y="1868" on="0"/>
        <pt x="955" y="1868" on="1"/>
        <pt x="998" y="1868" on="0"/>
        <pt x="1059" y="1815" on="0"/>
      </contour>
    </TTGlyph>
    <TTGlyph name="Udieresisacute" xMin="265" yMin="-32" xMax="1839" yMax="2330">
      <contour>
        <pt x="1418" y="2282" on="1"/>
        <pt x="1196" y="1898" on="1"/>
        <pt x="1134" y="1936" on="1"/>
        <pt x="1282" y="2330" on="1"/>
      </contour>
      <contour>
        <pt x="569" y="598" on="1"/>
        <pt x="557" y="523" on="0"/>
        <pt x="557" y="464" on="1"/>
        <pt x="557" y="288" on="0"/>
        <pt x="733" y="112" on="0"/>
        <pt x="895" y="112" on="1"/>
        <pt x="1036" y="112" on="0"/>
        <pt x="1131" y="172" on="1"/>
        <pt x="1213" y="223" on="0"/>
        <pt x="1265" y="318" on="1"/>
        <pt x="1305" y="393" on="0"/>
        <pt x="1329" y="496" on="1"/>
        <pt x="1336" y="527" on="0"/>
        <pt x="1345" y="582" on="1"/>
        <pt x="1469" y="1364" on="1"/>
        <pt x="1269" y="1414" on="1"/>
        <pt x="1287" y="1506" on="1"/>
        <pt x="1839" y="1506" on="1"/>
        <pt x="1819" y="1414" on="1"/>
        <pt x="1617" y="1368" on="1"/>
        <pt x="1491" y="604" on="1"/>
        <pt x="1384" y="-32" on="0"/>
        <pt x="797" y="-32" on="1"/>
        <pt x="658" y="-32" on="0"/>
        <pt x="551" y="18" on="1"/>
        <pt x="483" y="49" on="0"/>
        <pt x="393" y="147" on="0"/>
        <pt x="364" y="226" on="1"/>
        <pt x="333" y="307" on="0"/>
        <pt x="333" y="416" on="1"/>
        <pt x="333" y="484" on="0"/>
        <pt x="345" y="568" on="1"/>
        <pt x="471" y="1364" on="1"/>
        <pt x="265" y="1414" on="1"/>
        <pt x="287" y="1506" on="1"/>
        <pt x="911" y="1506" on="1"/>
        <pt x="893" y="1414" on="1"/>
        <pt x="689" y="1368" on="1"/>
      </contour>
      <contour>
        <pt x="1420" y="1774" on="1"/>
        <pt x="1420" y="1732" on="0"/>
        <pt x="1357" y="1676" on="0"/>
        <pt x="1314" y="1676" on="1"/>
        <pt x="1272" y="1676" on="0"/>
        <pt x="1212" y="1732" on="0"/>
        <pt x="1212" y="1774" on="1"/>
        <pt x="1212" y="1815" on="0"/>
        <pt x="1273" y="1868" on="0"/>
        <pt x="1314" y="1868" on="1"/>
        <pt x="1357" y="1868" on="0"/>
        <pt x="1420" y="1814" on="0"/>
      </contour>
      <contour>
        <pt x="1094" y="1774" on="1"/>
        <pt x="1094" y="1732" on="0"/>
        <pt x="1033" y="1676" on="0"/>
        <pt x="990" y="1676" on="1"/>
        <pt x="948" y="1676" on="0"/>
        <pt x="888" y="1732" on="0"/>
        <pt x="888" y="1774" on="1"/>
        <pt x="888" y="1815" on="0"/>
        <pt x="949" y="1868" on="0"/>
        <pt x="990" y="1868" on="1"/>
        <pt x="1033" y="1868" on="0"/>
        <pt x="1094" y="1815" on="0"/>
      </contour>
    </TTGlyph>
    <TTGlyph name="Udieresiscaron" xMin="265" yMin="-32" xMax="1839" yMax="2196">
      <contour>
        <pt x="1146" y="1922" on="1"/>
        <pt x="928" y="2122" on="1"/>
        <pt x="1026" y="2196" on="1"/>
        <pt x="1206" y="2022" on="1"/>
        <pt x="1218" y="2022" on="1"/>
        <pt x="1368" y="2192" on="1"/>
        <pt x="1420" y="2156" on="1"/>
        <pt x="1212" y="1938" on="1"/>
      </contour>
      <contour>
        <pt x="569" y="598" on="1"/>
        <pt x="557" y="523" on="0"/>
        <pt x="557" y="464" on="1"/>
        <pt x="557" y="288" on="0"/>
        <pt x="733" y="112" on="0"/>
        <pt x="895" y="112" on="1"/>
        <pt x="1036" y="112" on="0"/>
        <pt x="1131" y="172" on="1"/>
        <pt x="1213" y="223" on="0"/>
        <pt x="1265" y="318" on="1"/>
        <pt x="1305" y="393" on="0"/>
        <pt x="1329" y="496" on="1"/>
        <pt x="1336" y="527" on="0"/>
        <pt x="1345" y="582" on="1"/>
        <pt x="1469" y="1364" on="1"/>
        <pt x="1269" y="1414" on="1"/>
        <pt x="1287" y="1506" on="1"/>
        <pt x="1839" y="1506" on="1"/>
        <pt x="1819" y="1414" on="1"/>
        <pt x="1617" y="1368" on="1"/>
        <pt x="1491" y="604" on="1"/>
        <pt x="1384" y="-32" on="0"/>
        <pt x="797" y="-32" on="1"/>
        <pt x="658" y="-32" on="0"/>
        <pt x="551" y="18" on="1"/>
        <pt x="483" y="49" on="0"/>
        <pt x="393" y="147" on="0"/>
        <pt x="364" y="226" on="1"/>
        <pt x="333" y="307" on="0"/>
        <pt x="333" y="416" on="1"/>
        <pt x="333" y="484" on="0"/>
        <pt x="345" y="568" on="1"/>
        <pt x="471" y="1364" on="1"/>
        <pt x="265" y="1414" on="1"/>
        <pt x="287" y="1506" on="1"/>
        <pt x="911" y="1506" on="1"/>
        <pt x="893" y="1414" on="1"/>
        <pt x="689" y="1368" on="1"/>
      </contour>
      <contour>
        <pt x="1420" y="1774" on="1"/>
        <pt x="1420" y="1732" on="0"/>
        <pt x="1357" y="1676" on="0"/>
        <pt x="1314" y="1676" on="1"/>
        <pt x="1272" y="1676" on="0"/>
        <pt x="1212" y="1732" on="0"/>
        <pt x="1212" y="1774" on="1"/>
        <pt x="1212" y="1815" on="0"/>
        <pt x="1273" y="1868" on="0"/>
        <pt x="1314" y="1868" on="1"/>
        <pt x="1357" y="1868" on="0"/>
        <pt x="1420" y="1814" on="0"/>
      </contour>
      <contour>
        <pt x="1094" y="1774" on="1"/>
        <pt x="1094" y="1732" on="0"/>
        <pt x="1033" y="1676" on="0"/>
        <pt x="990" y="1676" on="1"/>
        <pt x="948" y="1676" on="0"/>
        <pt x="888" y="1732" on="0"/>
        <pt x="888" y="1774" on="1"/>
        <pt x="888" y="1815" on="0"/>
        <pt x="949" y="1868" on="0"/>
        <pt x="990" y="1868" on="1"/>
        <pt x="1033" y="1868" on="0"/>
        <pt x="1094" y="1815" on="0"/>
      </contour>
    </TTGlyph>
    <TTGlyph name="Udieresisgrave" xMin="265" yMin="-32" xMax="1839" yMax="2329">
      <contour>
        <pt x="884" y="2283" on="1"/>
        <pt x="1024" y="2329" on="1"/>
        <pt x="1184" y="1925" on="1"/>
        <pt x="1114" y="1883" on="1"/>
      </contour>
      <contour>
        <pt x="1420" y="1774" on="1"/>
        <pt x="1420" y="1732" on="0"/>
        <pt x="1357" y="1676" on="0"/>
        <pt x="1314" y="1676" on="1"/>
        <pt x="1272" y="1676" on="0"/>
        <pt x="1212" y="1732" on="0"/>
        <pt x="1212" y="1774" on="1"/>
        <pt x="1212" y="1815" on="0"/>
        <pt x="1273" y="1868" on="0"/>
        <pt x="1314" y="1868" on="1"/>
        <pt x="1357" y="1868" on="0"/>
        <pt x="1420" y="1814" on="0"/>
      </contour>
      <contour>
        <pt x="1094" y="1774" on="1"/>
        <pt x="1094" y="1732" on="0"/>
        <pt x="1033" y="1676" on="0"/>
        <pt x="990" y="1676" on="1"/>
        <pt x="948" y="1676" on="0"/>
        <pt x="888" y="1732" on="0"/>
        <pt x="888" y="1774" on="1"/>
        <pt x="888" y="1815" on="0"/>
        <pt x="949" y="1868" on="0"/>
        <pt x="990" y="1868" on="1"/>
        <pt x="1033" y="1868" on="0"/>
        <pt x="1094" y="1815" on="0"/>
      </contour>
      <contour>
        <pt x="569" y="598" on="1"/>
        <pt x="557" y="523" on="0"/>
        <pt x="557" y="464" on="1"/>
        <pt x="557" y="288" on="0"/>
        <pt x="733" y="112" on="0"/>
        <pt x="895" y="112" on="1"/>
        <pt x="1036" y="112" on="0"/>
        <pt x="1131" y="172" on="1"/>
        <pt x="1213" y="223" on="0"/>
        <pt x="1265" y="318" on="1"/>
        <pt x="1305" y="393" on="0"/>
        <pt x="1329" y="496" on="1"/>
        <pt x="1336" y="527" on="0"/>
        <pt x="1345" y="582" on="1"/>
        <pt x="1469" y="1364" on="1"/>
        <pt x="1269" y="1414" on="1"/>
        <pt x="1287" y="1506" on="1"/>
        <pt x="1839" y="1506" on="1"/>
        <pt x="1819" y="1414" on="1"/>
        <pt x="1617" y="1368" on="1"/>
        <pt x="1491" y="604" on="1"/>
        <pt x="1384" y="-32" on="0"/>
        <pt x="797" y="-32" on="1"/>
        <pt x="658" y="-32" on="0"/>
        <pt x="551" y="18" on="1"/>
        <pt x="483" y="49" on="0"/>
        <pt x="393" y="147" on="0"/>
        <pt x="364" y="226" on="1"/>
        <pt x="333" y="307" on="0"/>
        <pt x="333" y="416" on="1"/>
        <pt x="333" y="484" on="0"/>
        <pt x="345" y="568" on="1"/>
        <pt x="471" y="1364" on="1"/>
        <pt x="265" y="1414" on="1"/>
        <pt x="287" y="1506" on="1"/>
        <pt x="911" y="1506" on="1"/>
        <pt x="893" y="1414" on="1"/>
        <pt x="689" y="1368" on="1"/>
      </contour>
    </TTGlyph>
    <TTGlyph name="Udieresismacron" xMin="265" yMin="-32" xMax="1839" yMax="2062">
      <contour>
        <pt x="923" y="2062" on="1"/>
        <pt x="1457" y="2062" on="1"/>
        <pt x="1441" y="1941" on="1"/>
        <pt x="907" y="1941" on="1"/>
      </contour>
      <contour>
        <pt x="569" y="598" on="1"/>
        <pt x="557" y="523" on="0"/>
        <pt x="557" y="464" on="1"/>
        <pt x="557" y="288" on="0"/>
        <pt x="733" y="112" on="0"/>
        <pt x="895" y="112" on="1"/>
        <pt x="1036" y="112" on="0"/>
        <pt x="1131" y="172" on="1"/>
        <pt x="1213" y="223" on="0"/>
        <pt x="1265" y="318" on="1"/>
        <pt x="1305" y="393" on="0"/>
        <pt x="1329" y="496" on="1"/>
        <pt x="1336" y="527" on="0"/>
        <pt x="1345" y="582" on="1"/>
        <pt x="1469" y="1364" on="1"/>
        <pt x="1269" y="1414" on="1"/>
        <pt x="1287" y="1506" on="1"/>
        <pt x="1839" y="1506" on="1"/>
        <pt x="1819" y="1414" on="1"/>
        <pt x="1617" y="1368" on="1"/>
        <pt x="1491" y="604" on="1"/>
        <pt x="1384" y="-32" on="0"/>
        <pt x="797" y="-32" on="1"/>
        <pt x="658" y="-32" on="0"/>
        <pt x="551" y="18" on="1"/>
        <pt x="483" y="49" on="0"/>
        <pt x="393" y="147" on="0"/>
        <pt x="364" y="226" on="1"/>
        <pt x="333" y="307" on="0"/>
        <pt x="333" y="416" on="1"/>
        <pt x="333" y="484" on="0"/>
        <pt x="345" y="568" on="1"/>
        <pt x="471" y="1364" on="1"/>
        <pt x="265" y="1414" on="1"/>
        <pt x="287" y="1506" on="1"/>
        <pt x="911" y="1506" on="1"/>
        <pt x="893" y="1414" on="1"/>
        <pt x="689" y="1368" on="1"/>
      </contour>
      <contour>
        <pt x="1420" y="1774" on="1"/>
        <pt x="1420" y="1732" on="0"/>
        <pt x="1357" y="1676" on="0"/>
        <pt x="1314" y="1676" on="1"/>
        <pt x="1272" y="1676" on="0"/>
        <pt x="1212" y="1732" on="0"/>
        <pt x="1212" y="1774" on="1"/>
        <pt x="1212" y="1815" on="0"/>
        <pt x="1273" y="1868" on="0"/>
        <pt x="1314" y="1868" on="1"/>
        <pt x="1357" y="1868" on="0"/>
        <pt x="1420" y="1814" on="0"/>
      </contour>
      <contour>
        <pt x="1094" y="1774" on="1"/>
        <pt x="1094" y="1732" on="0"/>
        <pt x="1033" y="1676" on="0"/>
        <pt x="990" y="1676" on="1"/>
        <pt x="948" y="1676" on="0"/>
        <pt x="888" y="1732" on="0"/>
        <pt x="888" y="1774" on="1"/>
        <pt x="888" y="1815" on="0"/>
        <pt x="949" y="1868" on="0"/>
        <pt x="990" y="1868" on="1"/>
        <pt x="1033" y="1868" on="0"/>
        <pt x="1094" y="1815" on="0"/>
      </contour>
    </TTGlyph>
    <TTGlyph name="Ugrave" xMin="265" yMin="-32" xMax="1839" yMax="2056">
      <contour>
        <pt x="569" y="598" on="1"/>
        <pt x="557" y="523" on="0"/>
        <pt x="557" y="464" on="1"/>
        <pt x="557" y="288" on="0"/>
        <pt x="733" y="112" on="0"/>
        <pt x="895" y="112" on="1"/>
        <pt x="1036" y="112" on="0"/>
        <pt x="1131" y="172" on="1"/>
        <pt x="1213" y="223" on="0"/>
        <pt x="1265" y="318" on="1"/>
        <pt x="1305" y="393" on="0"/>
        <pt x="1329" y="496" on="1"/>
        <pt x="1336" y="527" on="0"/>
        <pt x="1345" y="582" on="1"/>
        <pt x="1469" y="1364" on="1"/>
        <pt x="1269" y="1414" on="1"/>
        <pt x="1287" y="1506" on="1"/>
        <pt x="1839" y="1506" on="1"/>
        <pt x="1819" y="1414" on="1"/>
        <pt x="1617" y="1368" on="1"/>
        <pt x="1491" y="604" on="1"/>
        <pt x="1384" y="-32" on="0"/>
        <pt x="797" y="-32" on="1"/>
        <pt x="658" y="-32" on="0"/>
        <pt x="551" y="18" on="1"/>
        <pt x="483" y="49" on="0"/>
        <pt x="393" y="147" on="0"/>
        <pt x="364" y="226" on="1"/>
        <pt x="333" y="307" on="0"/>
        <pt x="333" y="416" on="1"/>
        <pt x="333" y="484" on="0"/>
        <pt x="345" y="568" on="1"/>
        <pt x="471" y="1364" on="1"/>
        <pt x="265" y="1414" on="1"/>
        <pt x="287" y="1506" on="1"/>
        <pt x="911" y="1506" on="1"/>
        <pt x="893" y="1414" on="1"/>
        <pt x="689" y="1368" on="1"/>
      </contour>
      <contour>
        <pt x="969" y="2010" on="1"/>
        <pt x="1109" y="2056" on="1"/>
        <pt x="1269" y="1652" on="1"/>
        <pt x="1199" y="1610" on="1"/>
      </contour>
    </TTGlyph>
    <TTGlyph name="Uhungarumlaut" xMin="265" yMin="-32" xMax="1839" yMax="1958">
      <contour>
        <pt x="569" y="598" on="1"/>
        <pt x="557" y="523" on="0"/>
        <pt x="557" y="464" on="1"/>
        <pt x="557" y="288" on="0"/>
        <pt x="733" y="112" on="0"/>
        <pt x="895" y="112" on="1"/>
        <pt x="1036" y="112" on="0"/>
        <pt x="1131" y="172" on="1"/>
        <pt x="1213" y="223" on="0"/>
        <pt x="1265" y="318" on="1"/>
        <pt x="1305" y="393" on="0"/>
        <pt x="1329" y="496" on="1"/>
        <pt x="1336" y="527" on="0"/>
        <pt x="1345" y="582" on="1"/>
        <pt x="1469" y="1364" on="1"/>
        <pt x="1269" y="1414" on="1"/>
        <pt x="1287" y="1506" on="1"/>
        <pt x="1839" y="1506" on="1"/>
        <pt x="1819" y="1414" on="1"/>
        <pt x="1617" y="1368" on="1"/>
        <pt x="1491" y="604" on="1"/>
        <pt x="1384" y="-32" on="0"/>
        <pt x="797" y="-32" on="1"/>
        <pt x="658" y="-32" on="0"/>
        <pt x="551" y="18" on="1"/>
        <pt x="483" y="49" on="0"/>
        <pt x="393" y="147" on="0"/>
        <pt x="364" y="226" on="1"/>
        <pt x="333" y="307" on="0"/>
        <pt x="333" y="416" on="1"/>
        <pt x="333" y="484" on="0"/>
        <pt x="345" y="568" on="1"/>
        <pt x="471" y="1364" on="1"/>
        <pt x="265" y="1414" on="1"/>
        <pt x="287" y="1506" on="1"/>
        <pt x="911" y="1506" on="1"/>
        <pt x="893" y="1414" on="1"/>
        <pt x="689" y="1368" on="1"/>
      </contour>
      <contour>
        <pt x="1607" y="1848" on="1"/>
        <pt x="1255" y="1646" on="1"/>
        <pt x="1221" y="1706" on="1"/>
        <pt x="1519" y="1948" on="1"/>
      </contour>
      <contour>
        <pt x="1363" y="1854" on="1"/>
        <pt x="999" y="1646" on="1"/>
        <pt x="965" y="1706" on="1"/>
        <pt x="1273" y="1958" on="1"/>
      </contour>
    </TTGlyph>
    <TTGlyph name="Umacron" xMin="265" yMin="-32" xMax="1839" yMax="1791">
      <contour>
        <pt x="569" y="598" on="1"/>
        <pt x="557" y="523" on="0"/>
        <pt x="557" y="464" on="1"/>
        <pt x="557" y="288" on="0"/>
        <pt x="733" y="112" on="0"/>
        <pt x="895" y="112" on="1"/>
        <pt x="1036" y="112" on="0"/>
        <pt x="1131" y="172" on="1"/>
        <pt x="1213" y="223" on="0"/>
        <pt x="1265" y="318" on="1"/>
        <pt x="1305" y="393" on="0"/>
        <pt x="1329" y="496" on="1"/>
        <pt x="1336" y="527" on="0"/>
        <pt x="1345" y="582" on="1"/>
        <pt x="1469" y="1364" on="1"/>
        <pt x="1269" y="1414" on="1"/>
        <pt x="1287" y="1506" on="1"/>
        <pt x="1839" y="1506" on="1"/>
        <pt x="1819" y="1414" on="1"/>
        <pt x="1617" y="1368" on="1"/>
        <pt x="1491" y="604" on="1"/>
        <pt x="1384" y="-32" on="0"/>
        <pt x="797" y="-32" on="1"/>
        <pt x="658" y="-32" on="0"/>
        <pt x="551" y="18" on="1"/>
        <pt x="483" y="49" on="0"/>
        <pt x="393" y="147" on="0"/>
        <pt x="364" y="226" on="1"/>
        <pt x="333" y="307" on="0"/>
        <pt x="333" y="416" on="1"/>
        <pt x="333" y="484" on="0"/>
        <pt x="345" y="568" on="1"/>
        <pt x="471" y="1364" on="1"/>
        <pt x="265" y="1414" on="1"/>
        <pt x="287" y="1506" on="1"/>
        <pt x="911" y="1506" on="1"/>
        <pt x="893" y="1414" on="1"/>
        <pt x="689" y="1368" on="1"/>
      </contour>
      <contour>
        <pt x="859" y="1791" on="1"/>
        <pt x="1393" y="1791" on="1"/>
        <pt x="1377" y="1670" on="1"/>
        <pt x="843" y="1670" on="1"/>
      </contour>
    </TTGlyph>
    <TTGlyph name="Uogonek" xMin="265" yMin="-452" xMax="1839" yMax="1506">
      <contour>
        <pt x="957" y="-164" on="1"/>
        <pt x="957" y="-303" on="0"/>
        <pt x="1107" y="-390" on="1"/>
        <pt x="1065" y="-452" on="1"/>
        <pt x="938" y="-439" on="0"/>
        <pt x="777" y="-317" on="0"/>
        <pt x="777" y="-236" on="1"/>
        <pt x="777" y="-186" on="0"/>
        <pt x="826" y="-94" on="0"/>
        <pt x="893" y="-28" on="1"/>
        <pt x="850" y="-32" on="0"/>
        <pt x="797" y="-32" on="1"/>
        <pt x="658" y="-32" on="0"/>
        <pt x="551" y="18" on="1"/>
        <pt x="483" y="49" on="0"/>
        <pt x="393" y="147" on="0"/>
        <pt x="364" y="226" on="1"/>
        <pt x="333" y="307" on="0"/>
        <pt x="333" y="416" on="1"/>
        <pt x="333" y="484" on="0"/>
        <pt x="345" y="568" on="1"/>
        <pt x="471" y="1364" on="1"/>
        <pt x="265" y="1414" on="1"/>
        <pt x="287" y="1506" on="1"/>
        <pt x="911" y="1506" on="1"/>
        <pt x="893" y="1414" on="1"/>
        <pt x="689" y="1368" on="1"/>
        <pt x="569" y="598" on="1"/>
        <pt x="557" y="522" on="0"/>
        <pt x="557" y="464" on="1"/>
        <pt x="557" y="288" on="0"/>
        <pt x="733" y="112" on="0"/>
        <pt x="895" y="112" on="1"/>
        <pt x="1036" y="112" on="0"/>
        <pt x="1131" y="172" on="1"/>
        <pt x="1213" y="223" on="0"/>
        <pt x="1265" y="318" on="1"/>
        <pt x="1305" y="393" on="0"/>
        <pt x="1329" y="496" on="1"/>
        <pt x="1333" y="512" on="0"/>
        <pt x="1345" y="582" on="1"/>
        <pt x="1469" y="1364" on="1"/>
        <pt x="1269" y="1414" on="1"/>
        <pt x="1287" y="1506" on="1"/>
        <pt x="1839" y="1506" on="1"/>
        <pt x="1819" y="1414" on="1"/>
        <pt x="1617" y="1368" on="1"/>
        <pt x="1491" y="604" on="1"/>
        <pt x="1407" y="95" on="0"/>
        <pt x="1015" y="-6" on="1"/>
        <pt x="957" y="-103" on="0"/>
      </contour>
    </TTGlyph>
    <TTGlyph name="Uring" xMin="265" yMin="-32" xMax="1839" yMax="2058">
      <contour>
        <pt x="569" y="598" on="1"/>
        <pt x="557" y="523" on="0"/>
        <pt x="557" y="464" on="1"/>
        <pt x="557" y="288" on="0"/>
        <pt x="733" y="112" on="0"/>
        <pt x="895" y="112" on="1"/>
        <pt x="1036" y="112" on="0"/>
        <pt x="1131" y="172" on="1"/>
        <pt x="1213" y="223" on="0"/>
        <pt x="1265" y="318" on="1"/>
        <pt x="1305" y="393" on="0"/>
        <pt x="1329" y="496" on="1"/>
        <pt x="1336" y="527" on="0"/>
        <pt x="1345" y="582" on="1"/>
        <pt x="1469" y="1364" on="1"/>
        <pt x="1269" y="1414" on="1"/>
        <pt x="1287" y="1506" on="1"/>
        <pt x="1839" y="1506" on="1"/>
        <pt x="1819" y="1414" on="1"/>
        <pt x="1617" y="1368" on="1"/>
        <pt x="1491" y="604" on="1"/>
        <pt x="1384" y="-32" on="0"/>
        <pt x="797" y="-32" on="1"/>
        <pt x="658" y="-32" on="0"/>
        <pt x="551" y="18" on="1"/>
        <pt x="483" y="49" on="0"/>
        <pt x="393" y="147" on="0"/>
        <pt x="364" y="226" on="1"/>
        <pt x="333" y="307" on="0"/>
        <pt x="333" y="416" on="1"/>
        <pt x="333" y="484" on="0"/>
        <pt x="345" y="568" on="1"/>
        <pt x="471" y="1364" on="1"/>
        <pt x="265" y="1414" on="1"/>
        <pt x="287" y="1506" on="1"/>
        <pt x="911" y="1506" on="1"/>
        <pt x="893" y="1414" on="1"/>
        <pt x="689" y="1368" on="1"/>
      </contour>
      <contour>
        <pt x="1009" y="1864" on="1"/>
        <pt x="1009" y="1800" on="0"/>
        <pt x="1072" y="1708" on="0"/>
        <pt x="1125" y="1708" on="1"/>
        <pt x="1175" y="1708" on="0"/>
        <pt x="1229" y="1780" on="0"/>
        <pt x="1229" y="1846" on="1"/>
        <pt x="1229" y="1911" on="0"/>
        <pt x="1165" y="2000" on="0"/>
        <pt x="1113" y="2000" on="1"/>
        <pt x="1064" y="2000" on="0"/>
        <pt x="1009" y="1923" on="0"/>
      </contour>
      <contour>
        <pt x="1315" y="1950" on="0"/>
        <pt x="1315" y="1774" on="0"/>
        <pt x="1199" y="1650" on="0"/>
        <pt x="1111" y="1650" on="1"/>
        <pt x="1026" y="1650" on="0"/>
        <pt x="923" y="1758" on="0"/>
        <pt x="923" y="1850" on="1"/>
        <pt x="923" y="1935" on="0"/>
        <pt x="1043" y="2058" on="0"/>
        <pt x="1127" y="2058" on="1"/>
        <pt x="1213" y="2058" on="0"/>
      </contour>
    </TTGlyph>
    <TTGlyph name="V" xMin="190" yMin="-30" xMax="1670" yMax="1506">
      <contour>
        <pt x="616" y="-30" on="1"/>
        <pt x="348" y="1364" on="1"/>
        <pt x="190" y="1414" on="1"/>
        <pt x="210" y="1506" on="1"/>
        <pt x="822" y="1506" on="1"/>
        <pt x="804" y="1414" on="1"/>
        <pt x="600" y="1368" on="1"/>
        <pt x="794" y="304" on="1"/>
        <pt x="1328" y="1364" on="1"/>
        <pt x="1126" y="1414" on="1"/>
        <pt x="1144" y="1506" on="1"/>
        <pt x="1670" y="1506" on="1"/>
        <pt x="1652" y="1414" on="1"/>
        <pt x="1494" y="1368" on="1"/>
        <pt x="786" y="6" on="1"/>
      </contour>
    </TTGlyph>
    <TTGlyph name="W" xMin="202" yMin="-30" xMax="2306" yMax="1506">
      <contour>
        <pt x="1324" y="-30" on="1"/>
        <pt x="1216" y="1152" on="1"/>
        <pt x="696" y="6" on="1"/>
        <pt x="514" y="-30" on="1"/>
        <pt x="352" y="1364" on="1"/>
        <pt x="202" y="1414" on="1"/>
        <pt x="220" y="1506" on="1"/>
        <pt x="806" y="1506" on="1"/>
        <pt x="782" y="1414" on="1"/>
        <pt x="580" y="1368" on="1"/>
        <pt x="698" y="330" on="1"/>
        <pt x="1208" y="1446" on="1"/>
        <pt x="1408" y="1476" on="1"/>
        <pt x="1506" y="348" on="1"/>
        <pt x="1966" y="1364" on="1"/>
        <pt x="1768" y="1414" on="1"/>
        <pt x="1788" y="1506" on="1"/>
        <pt x="2306" y="1506" on="1"/>
        <pt x="2286" y="1414" on="1"/>
        <pt x="2136" y="1368" on="1"/>
        <pt x="1500" y="6" on="1"/>
      </contour>
    </TTGlyph>
    <TTGlyph name="Wacute" xMin="202" yMin="-30" xMax="2306" yMax="2066">
      <contour>
        <pt x="1324" y="-30" on="1"/>
        <pt x="1216" y="1152" on="1"/>
        <pt x="696" y="6" on="1"/>
        <pt x="514" y="-30" on="1"/>
        <pt x="352" y="1364" on="1"/>
        <pt x="202" y="1414" on="1"/>
        <pt x="220" y="1506" on="1"/>
        <pt x="806" y="1506" on="1"/>
        <pt x="782" y="1414" on="1"/>
        <pt x="580" y="1368" on="1"/>
        <pt x="698" y="330" on="1"/>
        <pt x="1208" y="1446" on="1"/>
        <pt x="1408" y="1476" on="1"/>
        <pt x="1506" y="348" on="1"/>
        <pt x="1966" y="1364" on="1"/>
        <pt x="1768" y="1414" on="1"/>
        <pt x="1788" y="1506" on="1"/>
        <pt x="2306" y="1506" on="1"/>
        <pt x="2286" y="1414" on="1"/>
        <pt x="2136" y="1368" on="1"/>
        <pt x="1500" y="6" on="1"/>
      </contour>
      <contour>
        <pt x="1592" y="2018" on="1"/>
        <pt x="1370" y="1634" on="1"/>
        <pt x="1308" y="1672" on="1"/>
        <pt x="1456" y="2066" on="1"/>
      </contour>
    </TTGlyph>
    <TTGlyph name="Wcircumflex" xMin="202" yMin="-30" xMax="2306" yMax="1914">
      <contour>
        <pt x="1324" y="-30" on="1"/>
        <pt x="1216" y="1152" on="1"/>
        <pt x="696" y="6" on="1"/>
        <pt x="514" y="-30" on="1"/>
        <pt x="352" y="1364" on="1"/>
        <pt x="202" y="1414" on="1"/>
        <pt x="220" y="1506" on="1"/>
        <pt x="806" y="1506" on="1"/>
        <pt x="782" y="1414" on="1"/>
        <pt x="580" y="1368" on="1"/>
        <pt x="698" y="330" on="1"/>
        <pt x="1208" y="1446" on="1"/>
        <pt x="1408" y="1476" on="1"/>
        <pt x="1506" y="348" on="1"/>
        <pt x="1966" y="1364" on="1"/>
        <pt x="1768" y="1414" on="1"/>
        <pt x="1788" y="1506" on="1"/>
        <pt x="2306" y="1506" on="1"/>
        <pt x="2286" y="1414" on="1"/>
        <pt x="2136" y="1368" on="1"/>
        <pt x="1500" y="6" on="1"/>
      </contour>
      <contour>
        <pt x="1355" y="1914" on="1"/>
        <pt x="1571" y="1689" on="1"/>
        <pt x="1511" y="1646" on="1"/>
        <pt x="1313" y="1778" on="1"/>
        <pt x="1301" y="1778" on="1"/>
        <pt x="1131" y="1644" on="1"/>
        <pt x="1085" y="1680" on="1"/>
        <pt x="1289" y="1898" on="1"/>
      </contour>
    </TTGlyph>
    <TTGlyph name="Wdieresis" xMin="202" yMin="-30" xMax="2306" yMax="1868">
      <contour>
        <pt x="1324" y="-30" on="1"/>
        <pt x="1216" y="1152" on="1"/>
        <pt x="696" y="6" on="1"/>
        <pt x="514" y="-30" on="1"/>
        <pt x="352" y="1364" on="1"/>
        <pt x="202" y="1414" on="1"/>
        <pt x="220" y="1506" on="1"/>
        <pt x="806" y="1506" on="1"/>
        <pt x="782" y="1414" on="1"/>
        <pt x="580" y="1368" on="1"/>
        <pt x="698" y="330" on="1"/>
        <pt x="1208" y="1446" on="1"/>
        <pt x="1408" y="1476" on="1"/>
        <pt x="1506" y="348" on="1"/>
        <pt x="1966" y="1364" on="1"/>
        <pt x="1768" y="1414" on="1"/>
        <pt x="1788" y="1506" on="1"/>
        <pt x="2306" y="1506" on="1"/>
        <pt x="2286" y="1414" on="1"/>
        <pt x="2136" y="1368" on="1"/>
        <pt x="1500" y="6" on="1"/>
      </contour>
      <contour>
        <pt x="1594" y="1774" on="1"/>
        <pt x="1594" y="1732" on="0"/>
        <pt x="1531" y="1676" on="0"/>
        <pt x="1488" y="1676" on="1"/>
        <pt x="1446" y="1676" on="0"/>
        <pt x="1386" y="1732" on="0"/>
        <pt x="1386" y="1774" on="1"/>
        <pt x="1386" y="1815" on="0"/>
        <pt x="1447" y="1868" on="0"/>
        <pt x="1488" y="1868" on="1"/>
        <pt x="1531" y="1868" on="0"/>
        <pt x="1594" y="1814" on="0"/>
      </contour>
      <contour>
        <pt x="1268" y="1774" on="1"/>
        <pt x="1268" y="1732" on="0"/>
        <pt x="1207" y="1676" on="0"/>
        <pt x="1164" y="1676" on="1"/>
        <pt x="1122" y="1676" on="0"/>
        <pt x="1062" y="1732" on="0"/>
        <pt x="1062" y="1774" on="1"/>
        <pt x="1062" y="1815" on="0"/>
        <pt x="1123" y="1868" on="0"/>
        <pt x="1164" y="1868" on="1"/>
        <pt x="1207" y="1868" on="0"/>
        <pt x="1268" y="1815" on="0"/>
      </contour>
    </TTGlyph>
    <TTGlyph name="Wgrave" xMin="202" yMin="-30" xMax="2306" yMax="2056">
      <contour>
        <pt x="1324" y="-30" on="1"/>
        <pt x="1216" y="1152" on="1"/>
        <pt x="696" y="6" on="1"/>
        <pt x="514" y="-30" on="1"/>
        <pt x="352" y="1364" on="1"/>
        <pt x="202" y="1414" on="1"/>
        <pt x="220" y="1506" on="1"/>
        <pt x="806" y="1506" on="1"/>
        <pt x="782" y="1414" on="1"/>
        <pt x="580" y="1368" on="1"/>
        <pt x="698" y="330" on="1"/>
        <pt x="1208" y="1446" on="1"/>
        <pt x="1408" y="1476" on="1"/>
        <pt x="1506" y="348" on="1"/>
        <pt x="1966" y="1364" on="1"/>
        <pt x="1768" y="1414" on="1"/>
        <pt x="1788" y="1506" on="1"/>
        <pt x="2306" y="1506" on="1"/>
        <pt x="2286" y="1414" on="1"/>
        <pt x="2136" y="1368" on="1"/>
        <pt x="1500" y="6" on="1"/>
      </contour>
      <contour>
        <pt x="1058" y="2010" on="1"/>
        <pt x="1198" y="2056" on="1"/>
        <pt x="1358" y="1652" on="1"/>
        <pt x="1288" y="1610" on="1"/>
      </contour>
    </TTGlyph>
    <TTGlyph name="X" xMin="14" yMin="0" xMax="1590" yMax="1506">
      <contour>
        <pt x="936" y="788" on="1"/>
        <pt x="1228" y="138" on="1"/>
        <pt x="1384" y="98" on="1"/>
        <pt x="1358" y="0" on="1"/>
        <pt x="774" y="0" on="1"/>
        <pt x="798" y="90" on="1"/>
        <pt x="998" y="146" on="1"/>
        <pt x="770" y="632" on="1"/>
        <pt x="352" y="138" on="1"/>
        <pt x="558" y="98" on="1"/>
        <pt x="536" y="0" on="1"/>
        <pt x="14" y="0" on="1"/>
        <pt x="38" y="90" on="1"/>
        <pt x="184" y="146" on="1"/>
        <pt x="702" y="736" on="1"/>
        <pt x="404" y="1354" on="1"/>
        <pt x="262" y="1414" on="1"/>
        <pt x="284" y="1506" on="1"/>
        <pt x="884" y="1506" on="1"/>
        <pt x="862" y="1414" on="1"/>
        <pt x="662" y="1358" on="1"/>
        <pt x="868" y="900" on="1"/>
        <pt x="1254" y="1364" on="1"/>
        <pt x="1046" y="1414" on="1"/>
        <pt x="1068" y="1506" on="1"/>
        <pt x="1590" y="1506" on="1"/>
        <pt x="1572" y="1414" on="1"/>
        <pt x="1418" y="1368" on="1"/>
      </contour>
    </TTGlyph>
    <TTGlyph name="Y" xMin="188" yMin="0" xMax="1536" yMax="1506">
      <contour>
        <pt x="854" y="640" on="1"/>
        <pt x="774" y="138" on="1"/>
        <pt x="960" y="98" on="1"/>
        <pt x="938" y="0" on="1"/>
        <pt x="352" y="0" on="1"/>
        <pt x="372" y="90" on="1"/>
        <pt x="554" y="146" on="1"/>
        <pt x="628" y="612" on="1"/>
        <pt x="336" y="1364" on="1"/>
        <pt x="188" y="1414" on="1"/>
        <pt x="212" y="1506" on="1"/>
        <pt x="790" y="1506" on="1"/>
        <pt x="768" y="1414" on="1"/>
        <pt x="578" y="1368" on="1"/>
        <pt x="810" y="772" on="1"/>
        <pt x="1206" y="1364" on="1"/>
        <pt x="1006" y="1414" on="1"/>
        <pt x="1024" y="1506" on="1"/>
        <pt x="1536" y="1506" on="1"/>
        <pt x="1518" y="1414" on="1"/>
        <pt x="1366" y="1368" on="1"/>
      </contour>
    </TTGlyph>
    <TTGlyph name="Yacute" xMin="188" yMin="0" xMax="1536" yMax="2066">
      <contour>
        <pt x="854" y="640" on="1"/>
        <pt x="774" y="138" on="1"/>
        <pt x="960" y="98" on="1"/>
        <pt x="938" y="0" on="1"/>
        <pt x="352" y="0" on="1"/>
        <pt x="372" y="90" on="1"/>
        <pt x="554" y="146" on="1"/>
        <pt x="628" y="612" on="1"/>
        <pt x="336" y="1364" on="1"/>
        <pt x="188" y="1414" on="1"/>
        <pt x="212" y="1506" on="1"/>
        <pt x="790" y="1506" on="1"/>
        <pt x="768" y="1414" on="1"/>
        <pt x="578" y="1368" on="1"/>
        <pt x="810" y="772" on="1"/>
        <pt x="1206" y="1364" on="1"/>
        <pt x="1006" y="1414" on="1"/>
        <pt x="1024" y="1506" on="1"/>
        <pt x="1536" y="1506" on="1"/>
        <pt x="1518" y="1414" on="1"/>
        <pt x="1366" y="1368" on="1"/>
      </contour>
      <contour>
        <pt x="1198" y="2018" on="1"/>
        <pt x="976" y="1634" on="1"/>
        <pt x="914" y="1672" on="1"/>
        <pt x="1062" y="2066" on="1"/>
      </contour>
    </TTGlyph>
    <TTGlyph name="Ycircumflex" xMin="188" yMin="0" xMax="1536" yMax="1914">
      <contour>
        <pt x="854" y="640" on="1"/>
        <pt x="774" y="138" on="1"/>
        <pt x="960" y="98" on="1"/>
        <pt x="938" y="0" on="1"/>
        <pt x="352" y="0" on="1"/>
        <pt x="372" y="90" on="1"/>
        <pt x="554" y="146" on="1"/>
        <pt x="628" y="612" on="1"/>
        <pt x="336" y="1364" on="1"/>
        <pt x="188" y="1414" on="1"/>
        <pt x="212" y="1506" on="1"/>
        <pt x="790" y="1506" on="1"/>
        <pt x="768" y="1414" on="1"/>
        <pt x="578" y="1368" on="1"/>
        <pt x="810" y="772" on="1"/>
        <pt x="1206" y="1364" on="1"/>
        <pt x="1006" y="1414" on="1"/>
        <pt x="1024" y="1506" on="1"/>
        <pt x="1536" y="1506" on="1"/>
        <pt x="1518" y="1414" on="1"/>
        <pt x="1366" y="1368" on="1"/>
      </contour>
      <contour>
        <pt x="950" y="1914" on="1"/>
        <pt x="1166" y="1689" on="1"/>
        <pt x="1106" y="1646" on="1"/>
        <pt x="908" y="1778" on="1"/>
        <pt x="896" y="1778" on="1"/>
        <pt x="726" y="1644" on="1"/>
        <pt x="680" y="1680" on="1"/>
        <pt x="884" y="1898" on="1"/>
      </contour>
    </TTGlyph>
</ttFont>
